SplineFontDB: 3.0
FontName: SignikaNegative-Semibold
FullName: Signika Negative Semibold
FamilyName: Signika Negative
Weight: Semibold
Copyright: Copyright (c) 2011 by Anna Giedrys (http://ancymonic.com), with Reserved Font Names "Signika".
Version: 001.001
ItalicAngle: 0
UnderlinePosition: -100
UnderlineWidth: 50
Ascent: 800
Descent: 200
sfntRevision: 0x00010042
LayerCount: 2
Layer: 0 1 "Back"  1
Layer: 1 1 "Fore"  0
NeedsXUIDChange: 1
XUID: [1021 288 713564382 6080107]
FSType: 0
OS2Version: 2
OS2_WeightWidthSlopeOnly: 0
OS2_UseTypoMetrics: 1
CreationTime: 1323969877
ModificationTime: 1323999407
PfmFamily: 17
TTFWeight: 600
TTFWidth: 5
LineGap: 0
VLineGap: 0
Panose: 2 1 0 3 2 6 0 0 0 4
OS2TypoAscent: 140
OS2TypoAOffset: 1
OS2TypoDescent: -92
OS2TypoDOffset: 1
OS2TypoLinegap: 0
OS2WinAscent: 22
OS2WinAOffset: 1
OS2WinDescent: 18
OS2WinDOffset: 1
HheadAscent: 22
HheadAOffset: 1
HheadDescent: -18
HheadDOffset: 1
OS2SubXSize: 700
OS2SubYSize: 650
OS2SubXOff: 0
OS2SubYOff: 140
OS2SupXSize: 700
OS2SupYSize: 650
OS2SupXOff: 0
OS2SupYOff: 477
OS2StrikeYSize: 50
OS2StrikeYPos: 250
OS2Vendor: 'PfEd'
OS2CodePages: 00000093.00000000
OS2UnicodeRanges: a00000ef.40000043.00000000.00000000
Lookup: 258 0 0 "'kern' Horizontal Kerning in Latin lookup 0"  {"'kern' Horizontal Kerning in Latin lookup 0 subtable"  } ['kern' ('DFLT' <'dflt' > 'latn' <'dflt' > ) ]
MarkAttachClasses: 1
DEI: 91125
LangName: 1033 "" "" "" "AnnaGiedrys: Signika Light: 2011" "SignikaNegative-Semibold" "Version 1.001" "" "Signika is a trademark of Anna Giedrys." "Anna Giedrys" "Anna Giedrys" "" "www.ancymonic.com" "www.ancymonic.com" "This Font Software is licensed under the SIL Open Font License, Version 1.1. This license is available with a FAQ at: http://scripts.sil.org/OFL" "http://scripts.sil.org/OFL" 
Encoding: UnicodeBmp
UnicodeInterp: none
NameList: Adobe Glyph List
DisplaySize: -36
AntiAlias: 1
FitToEm: 1
WinInfo: 50 25 10
BeginPrivate: 6

StartChar: a
Encoding: 97 97 5
Width: 509
Flags: HMW
HStem: -14 95<200.5 219.5> 222 82<215 244 179 253> 409 98<239.5 267.5>
VStem: 38 122<126 167.5 126 193.5> 319 123<129 134 134 218 218 218 300 330 330 338>
LayerCount: 2
Fore
SplineSet
470 56 m 1,0,1
 465 39 465 39 452.5 20.5 c 128,-1,2
 440 2 440 2 427 -8 c 1,3,4
 365 -1 365 -1 336 50 c 1,5,6
 270 -14 270 -14 193 -14 c 0,7,8
 116 -14 116 -14 77 31 c 128,-1,9
 38 76 38 76 38 135 c 0,10,11
 38 219 38 219 92.5 261.5 c 128,-1,12
 147 304 147 304 232 304 c 0,13,14
 278 304 278 304 319 300 c 1,15,-1
 319 330 l 2,16,17
 319 409 319 409 243 409 c 0,18,19
 189 409 189 409 90 373 c 1,20,21
 61 404 61 404 57 462 c 1,22,23
 165 507 165 507 273 507 c 0,24,25
 348 507 348 507 395 465 c 128,-1,26
 442 423 442 423 442 338 c 2,27,-1
 442 134 l 2,28,29
 442 79 442 79 470 56 c 1,0,1
219 81 m 0,30,31
 271 81 271 81 319 129 c 1,32,-1
 319 218 l 1,33,34
 284 222 284 222 243 222 c 0,35,36
 202 222 202 222 181 201 c 128,-1,37
 160 180 160 180 160 148 c 0,38,39
 160 116 160 116 176 98.5 c 128,-1,40
 192 81 192 81 219 81 c 0,30,31
EndSplineSet
EndChar

StartChar: b
Encoding: 98 98 6
Width: 531
Flags: HMW
HStem: -8 90<247.5 293 247.5 325.5> 404 101<269 376>
VStem: 71 121<91 357 460 659> 366 126<254 306>
LayerCount: 2
Fore
SplineSet
447 436.5 m 128,-1,1
 492.015151515 367.976936027 492.015151515 367.976936027 492.015151515 248.465740741 c 128,-1,2
 492.015151515 128.954545455 492.015151515 128.954545455 427.507575758 60.4772727273 c 128,-1,3
 363 -8 363 -8 260 -8 c 128,-1,4
 157 -8 157 -8 71 25 c 1,5,-1
 71 729 l 1,6,-1
 78 736 l 1,7,-1
 124 736 l 2,8,9
 161 736 161 736 176.5 718.5 c 128,-1,10
 192 701 192 701 192 659 c 2,11,-1
 192 460 l 1,12,13
 250 505 250 505 318 505 c 0,14,0
 402 505 402 505 447 436.5 c 128,-1,1
285 404 m 1,15,16
 233 404 233 404 192 357 c 1,17,-1
 192 91 l 1,18,19
 224 82 224 82 260 82 c 0,20,21
 310 82 310 82 338 126.5 c 128,-1,22
 366 171 366 171 366 253 c 0,23,24
 366 402 366 402 285 404 c 1,15,16
EndSplineSet
EndChar

StartChar: c
Encoding: 99 99 7
Width: 472
Flags: HMW
HStem: -14 99<236 285.5> 416 94<222.5 283.5>
VStem: 39 127<188.5 303.5 188.5 340> 327 113
LayerCount: 2
Fore
SplineSet
327 293 m 1,0,1
 327.216216216 299.378378378 327.216216216 299.378378378 327.216216216 305.441197955 c 0,2,3
 327.216216216 355.459459459 327.216216216 355.459459459 311.608108108 385.72972973 c 0,4,5
 296 416 296 416 251 416 c 0,6,7
 166 416 166 416 166 250.5 c 0,8,9
 166 85 166 85 269 85 c 0,10,11
 321 85 321 85 386 133 c 1,12,13
 402 123 402 123 416 102 c 128,-1,14
 430 81 430 81 435 61 c 1,15,16
 360 -14 360 -14 253 -14 c 0,17,18
 146 -14 146 -14 92.5 58 c 128,-1,19
 39 130 39 130 39 254 c 0,20,21
 39 378 39 378 102 444 c 128,-1,22
 165 510 165 510 252 510 c 0,23,24
 339 510 339 510 389.5 463.5 c 128,-1,25
 440 417 440 417 440 352.5 c 0,26,27
 440 288 440 288 378 288 c 0,28,29
 355 288 355 288 327 293 c 1,0,1
EndSplineSet
EndChar

StartChar: d
Encoding: 100 100 8
Width: 533
Flags: HMW
HStem: -14 102<223.5 243> 409 96<227.5 254.5 184.5 268>
VStem: 39 127<186.5 296.5 186.5 330> 340 121<142 378 378 378 477 659>
LayerCount: 2
Fore
SplineSet
84 55.5 m 128,-1,1
 39 125 39 125 39 246 c 128,-1,2
 39 367 39 367 96.5 436 c 128,-1,3
 154 505 154 505 235 505 c 0,4,5
 286 505 286 505 340 477 c 1,6,-1
 340 729 l 1,7,-1
 346 736 l 1,8,-1
 394 736 l 2,9,10
 431 736 431 736 446 718.5 c 128,-1,11
 461 701 461 701 461 659 c 2,12,-1
 461 142 l 2,13,14
 461 80 461 80 489 56 c 1,15,16
 484 39 484 39 471.5 20.5 c 128,-1,17
 459 2 459 2 446 -8 c 1,18,19
 383 1 383 1 357 52 c 1,20,21
 298 -14 298 -14 213.5 -14 c 128,-1,0
 129 -14 129 -14 84 55.5 c 128,-1,1
245 88 m 0,22,23
 300 88 300 88 340 142 c 1,24,-1
 340 378 l 1,25,26
 289 409 289 409 251 409 c 128,-1,27
 213 409 213 409 189.5 365.5 c 128,-1,28
 166 322 166 322 166 243 c 128,-1,29
 166 164 166 164 188 126 c 128,-1,30
 210 88 210 88 245 88 c 0,22,23
EndSplineSet
EndChar

StartChar: e
Encoding: 101 101 9
Width: 499
Flags: HMW
HStem: -14 98<232 286> 208 88<166 339 165 446 166 166> 420 90<225 284>
VStem: 39 127<208 208 208 321> 339 117<296 308 308 338.5>
LayerCount: 2
Fore
SplineSet
446 208 m 1,0,-1
 166 208 l 1,1,2
 169 149 169 149 192.5 116.5 c 128,-1,3
 216 84 216 84 275 84 c 0,4,5
 334 84 334 84 406 119 c 1,6,7
 434 92 434 92 442 43 c 1,8,9
 362 -14 362 -14 249.5 -14 c 0,10,11
 137 -14 137 -14 88 59 c 128,-1,12
 39 132 39 132 39 248 c 0,13,14
 39 364 39 364 93 437 c 128,-1,15
 147 510 147 510 247.5 510 c 0,16,17
 348 510 348 510 402 449.5 c 128,-1,18
 456 389 456 389 456 297 c 0,19,20
 456 251 456 251 446 208 c 1,0,-1
253 420 m 0,21,22
 171 420 171 420 165 296 c 1,23,-1
 339 296 l 1,24,-1
 339 308 l 2,25,26
 339 358 339 358 318 389 c 128,-1,27
 297 420 297 420 253 420 c 0,21,22
EndSplineSet
EndChar

StartChar: f
Encoding: 102 102 10
Width: 343
Flags: HMW
HStem: 408 89 646 94<251.5 272 196 287.5>
VStem: 96 121<0 409 0 409>
LayerCount: 2
Fore
SplineSet
96 0 m 1,0,-1
 96 409 l 1,1,-1
 10 407 l 1,2,3
 5 430 5 430 5 451 c 0,4,5
 5 472 5 472 10 497 c 1,6,-1
 90 496 l 1,7,8
 84 550 84 550 84 577 c 0,9,10
 84 648 84 648 128 694 c 128,-1,11
 172 740 172 740 244.5 740 c 0,12,13
 317 740 317 740 384 715 c 1,14,15
 384 662 384 662 356 632 c 1,16,17
 310 646 310 646 275 646 c 0,18,19
 240 646 240 646 221 626 c 128,-1,20
 202 606 202 606 202 570 c 0,21,22
 202 534 202 534 208 495 c 1,23,-1
 345 497 l 1,24,25
 350 478 350 478 350 451 c 0,26,27
 350 424 350 424 345 407 c 1,28,-1
 217 409 l 1,29,-1
 217 0 l 1,30,31
 185 -5 185 -5 155.5 -5 c 0,32,33
 126 -5 126 -5 96 0 c 1,0,-1
EndSplineSet
EndChar

StartChar: g
Encoding: 103 103 11
Width: 531
Flags: HMW
HStem: -221 94<207.5 272.5 206.5 277.5> -9 101<222 240> 414 96<227.5 264.5 184 268.5> 483 20G
VStem: 39 127<191.5 301.5 191.5 334.5> 341 121<7.5 38 38 38 141 354>
LayerCount: 2
Fore
SplineSet
84 60 m 128,-1,1
 39 129 39 129 39 250.5 c 128,-1,2
 39 372 39 372 96 441 c 128,-1,3
 153 510 153 510 233 510 c 128,-1,4
 313 510 313 510 368 460 c 1,5,6
 397 497 397 497 447 503 c 1,7,8
 461 494 461 494 473.5 475 c 128,-1,9
 486 456 486 456 490 440 c 1,10,11
 462 416 462 416 462 354 c 2,12,-1
 462 70 l 2,13,14
 462 -89 462 -89 410 -155 c 128,-1,15
 358 -221 358 -221 239 -221 c 0,16,17
 146 -221 146 -221 60 -187 c 1,18,19
 60 -132 60 -132 91 -96 c 1,20,21
 160 -127 160 -127 225.5 -127 c 128,-1,22
 291 -127 291 -127 316 -94 c 128,-1,23
 341 -61 341 -61 341 -2 c 2,24,-1
 341 38 l 1,25,26
 284 -9 284 -9 216 -9 c 0,27,0
 129 -9 129 -9 84 60 c 128,-1,1
341 141 m 1,28,-1
 341 373 l 1,29,30
 297 414 297 414 255 414 c 128,-1,31
 213 414 213 414 189.5 371 c 128,-1,32
 166 328 166 328 166 248 c 128,-1,33
 166 168 166 168 187.5 130 c 128,-1,34
 209 92 209 92 244 92 c 0,35,36
 298 92 298 92 341 141 c 1,28,-1
EndSplineSet
EndChar

StartChar: h
Encoding: 104 104 12
Width: 543
Flags: HMW
HStem: 393 111<312.5 319>
VStem: 71 121<0 341 0 442 442 659> 352 124<95 113 113 308 308 335>
LayerCount: 2
Fore
SplineSet
476 335 m 2,0,-1
 476 113 l 2,1,2
 476 52 476 52 496 19 c 1,3,4
 465 -7 465 -7 423.5 -7 c 0,5,6
 382 -7 382 -7 367 12 c 128,-1,7
 352 31 352 31 352 71 c 2,8,-1
 352 308 l 2,9,10
 352 354 352 354 340.5 373.5 c 128,-1,11
 329 393 329 393 298 393 c 0,12,13
 241 393 241 393 192 341 c 1,14,-1
 192 0 l 1,15,16
 164 -5 164 -5 132.5 -5 c 0,17,18
 101 -5 101 -5 71 0 c 1,19,-1
 71 729 l 1,20,-1
 78 736 l 1,21,-1
 125 736 l 2,22,23
 163 736 163 736 177.5 718.5 c 128,-1,24
 192 701 192 701 192 659 c 2,25,-1
 192 442 l 1,26,27
 263 504 263 504 335 504 c 0,28,29
 407 504 407 504 441.5 457.5 c 128,-1,30
 476 411 476 411 476 335 c 2,0,-1
EndSplineSet
EndChar

StartChar: j
Encoding: 106 106 14
Width: 288
Flags: HMW
HStem: -220 21G 407 92<30 129 30 129> 586 99<72 72 198 198>
VStem: 62 136 96 123<-21 22 22 353 353 370>
LayerCount: 2
Fore
SplineSet
219 399 m 2,0,-1
 219 22 l 2,1,2
 219 -64.6842105263 219 -64.6842105263 206.5 -102.842105263 c 128,-1,3
 194 -141 194 -141 176.5 -160 c 0,4,5
 139.019470405 -200.693146417 139.019470405 -200.693146417 56 -220 c 1,6,7
 26 -193 26 -193 21 -144 c 1,8,9
 64 -123 64 -123 80 -98 c 128,-1,10
 96 -73 96 -73 96 -21 c 2,11,-1
 96 353 l 2,12,13
 96 407 96 407 51 407 c 2,14,-1
 30 407 l 1,15,16
 25 424 25 424 25 450 c 128,-1,17
 25 476 25 476 30 495 c 1,18,19
 70 499 70 499 112 499 c 2,20,-1
 129 499 l 2,21,22
 171 499 171 499 195 472.5 c 128,-1,23
 219 446 219 446 219 399 c 2,0,-1
72 586 m 1,24,25
 62 609 62 609 62 635.5 c 128,-1,26
 62 662 62 662 72 685 c 1,27,28
 98 699 98 699 136.5 699 c 128,-1,29
 175 699 175 699 198 685 c 1,30,31
 208 662 208 662 208 635.5 c 128,-1,32
 208 609 208 609 198 586 c 1,33,34
 175 572 175 572 133.5 572 c 128,-1,35
 92 572 92 572 72 586 c 1,24,25
EndSplineSet
EndChar

StartChar: k
Encoding: 107 107 15
Width: 510
Flags: HMW
HStem: 209 102<219 251.5> 490 9
VStem: 71 121<0 207 0 310 310 659>
LayerCount: 2
Fore
SplineSet
419 191 m 1,0,-1
 449 112 l 1,1,2
 471 49 471 49 497 31 c 1,3,4
 463 -7 463 -7 414 -7 c 0,5,6
 385 -7 385 -7 370.5 7 c 128,-1,7
 356 21 356 21 343 55 c 2,8,-1
 307 149 l 2,9,10
 293 185 293 185 277.5 197 c 128,-1,11
 262 209 262 209 240 209 c 0,12,13
 218 209 218 209 192 207 c 1,14,-1
 192 0 l 1,15,16
 164 -5 164 -5 132.5 -5 c 0,17,18
 101 -5 101 -5 71 0 c 1,19,-1
 71 729 l 1,20,-1
 78 736 l 1,21,-1
 125 736 l 2,22,23
 163 736 163 736 177.5 718.5 c 128,-1,24
 192 701 192 701 192 659 c 2,25,-1
 192 310 l 1,26,-1
 219 311 l 2,27,28
 234 311 234 311 245 327 c 1,29,-1
 318 450 l 2,30,31
 346 499 346 499 392 499 c 0,32,33
 438 499 438 499 461 498 c 1,34,-1
 467 490 l 1,35,-1
 370 326 l 2,36,37
 352 295 352 295 330 280 c 1,38,39
 391 261 391 261 419 191 c 1,0,-1
EndSplineSet
EndChar

StartChar: l
Encoding: 108 108 16
Width: 301
Flags: HMW
HStem: -5 97<141 265>
VStem: 70 121<122 137 137 659>
LayerCount: 2
Fore
SplineSet
232 92 m 2,0,-1
 265 92 l 1,1,2
 275 62 275 62 275 39 c 0,3,4
 275 16 275 16 272 4 c 1,5,6
 214 -5 214 -5 178 -5 c 0,7,8
 70 -5 70 -5 70 112 c 2,9,-1
 70 729 l 1,10,-1
 76 736 l 1,11,-1
 124 736 l 2,12,13
 161 736 161 736 176 718.5 c 128,-1,14
 191 701 191 701 191 659 c 2,15,-1
 191 137 l 2,16,17
 191 92 191 92 232 92 c 2,0,-1
EndSplineSet
EndChar

StartChar: m
Encoding: 109 109 17
Width: 802
Flags: HMW
HStem: 393 112<271.5 360>
VStem: 71 124<0 343 0 494> 340 124<0 308 308 340> 610 124<95 113 113 309 309 341>
LayerCount: 2
Fore
SplineSet
340 308 m 2,0,1
 340 393 340 393 286 393 c 0,2,3
 242 393 242 393 195 343 c 1,4,-1
 195 0 l 1,5,6
 167 -5 167 -5 134 -5 c 0,7,8
 101 -5 101 -5 71 0 c 1,9,-1
 71 494 l 1,10,-1
 78 501 l 1,11,-1
 124 501 l 2,12,13
 182 501 182 501 193 439 c 1,14,15
 262 505 262 505 337.5 505 c 0,16,17
 413 505 413 505 447 433 c 1,18,19
 524 505 524 505 604 505 c 0,20,21
 667 505 667 505 700.5 461 c 128,-1,22
 734 417 734 417 734 347 c 2,23,-1
 734 113 l 2,24,25
 734 52 734 52 754 19 c 1,26,27
 723 -7 723 -7 681.5 -7 c 0,28,29
 640 -7 640 -7 625 12 c 128,-1,30
 610 31 610 31 610 71 c 2,31,-1
 610 309 l 2,32,33
 610 393 610 393 555 393 c 0,34,35
 513 393 513 393 464 341 c 1,36,-1
 464 0 l 1,37,38
 436 -5 436 -5 403 -5 c 128,-1,39
 370 -5 370 -5 340 0 c 1,40,-1
 340 308 l 2,0,1
EndSplineSet
EndChar

StartChar: n
Encoding: 110 110 18
Width: 546
Flags: HMW
HStem: 393 112<314 321.5> 481 20G<78 124 124 144>
VStem: 71 124<0 343 0 495> 355 124<95 113 113 309 309 335>
LayerCount: 2
Fore
SplineSet
479 335 m 2,0,-1
 479 113 l 2,1,2
 479 52 479 52 499 19 c 1,3,4
 466 -7 466 -7 425.5 -7 c 0,5,6
 385 -7 385 -7 370 12 c 128,-1,7
 355 31 355 31 355 71 c 2,8,-1
 355 309 l 2,9,10
 355 354 355 354 343 373.5 c 128,-1,11
 331 393 331 393 300 393 c 0,12,13
 243 393 243 393 195 343 c 1,14,-1
 195 0 l 1,15,16
 167 -5 167 -5 134 -5 c 0,17,18
 101 -5 101 -5 71 0 c 1,19,-1
 71 495 l 1,20,-1
 78 501 l 1,21,-1
 124 501 l 2,22,23
 181 501 181 501 192 441 c 1,24,25
 265 505 265 505 337.5 505 c 0,26,27
 410 505 410 505 444.5 458 c 128,-1,28
 479 411 479 411 479 335 c 2,0,-1
EndSplineSet
EndChar

StartChar: o
Encoding: 111 111 19
Width: 521
Flags: HMW
HStem: -14 94<230 290.5> 416 94<230 290.5 230 299>
VStem: 39 127<205.5 290> 355 127<205.5 290 205.5 292>
LayerCount: 2
Fore
SplineSet
482 248 m 128,-1,1
 482 114 482 114 411 43 c 0,2,3
 354 -14 354 -14 260.5 -14 c 0,4,5
 167 -14 167 -14 110 43 c 0,6,7
 39 114 39 114 39 248 c 128,-1,8
 39 382 39 382 110 453 c 0,9,10
 167 510 167 510 260.5 510 c 0,11,12
 354 510 354 510 411 453 c 0,13,0
 482 382 482 382 482 248 c 128,-1,1
166 248 m 128,-1,15
 166 80 166 80 260.5 80 c 0,16,17
 355 80 355 80 355 248 c 128,-1,18
 355 416 355 416 260.5 416 c 0,19,14
 166 416 166 416 166 248 c 128,-1,15
EndSplineSet
EndChar

StartChar: p
Encoding: 112 112 20
Width: 533
Flags: HMW
HStem: -216 21G<78 125 78 78> -209 21G<71 71> -9 95<279 305.5 264.5 349.5> 408 102<292 310> 481 20G<78 113 113 130.5>
VStem: 71 122<-166.5 -139 -139 19 117 354> 367 127<199 308.5>
LayerCount: 2
Fore
SplineSet
449 440.5 m 128,-1,1
 494 371 494 371 494 250 c 128,-1,2
 494 129 494 129 437 60 c 128,-1,3
 380 -9 380 -9 299 -9 c 0,4,5
 247 -9 247 -9 193 19 c 1,6,-1
 193 -139 l 2,7,8
 193 -181 193 -181 178 -198.5 c 128,-1,9
 163 -216 163 -216 125 -216 c 2,10,-1
 78 -216 l 1,11,-1
 71 -209 l 1,12,-1
 71 495 l 1,13,-1
 78 501 l 1,14,-1
 113 501 l 2,15,16
 165 501 165 501 184 452 c 1,17,18
 242 510 242 510 323 510 c 128,-1,0
 404 510 404 510 449 440.5 c 128,-1,1
288 408 m 0,19,20
 233 408 233 408 193 354 c 1,21,-1
 193 117 l 1,22,23
 241 86 241 86 280.5 86 c 128,-1,24
 320 86 320 86 343.5 129.5 c 128,-1,25
 367 173 367 173 367 252.5 c 128,-1,26
 367 332 367 332 345 370 c 128,-1,27
 323 408 323 408 288 408 c 0,19,20
EndSplineSet
EndChar

StartChar: q
Encoding: 113 113 21
Width: 533
Flags: HMW
HStem: -216 21G<382 407 407 455> -9 101<222.5 239.5> 414 96<228 264.5 184 268.5> 483 20G
VStem: 39 127<191.5 301.5 191.5 334.5> 340 121<-139 37 37 37 140 354 -209 364 -209 374 -209 374>
LayerCount: 2
Fore
SplineSet
340 -139 m 2,0,-1
 340 37 l 1,1,2
 284 -9 284 -9 216 -9 c 0,3,4
 129 -9 129 -9 84 60 c 128,-1,5
 39 129 39 129 39 250.5 c 128,-1,6
 39 372 39 372 96 441 c 128,-1,7
 153 510 153 510 232.5 510 c 128,-1,8
 312 510 312 510 368 461 c 1,9,10
 398 497 398 497 447 503 c 1,11,12
 460 494 460 494 472.5 475.5 c 128,-1,13
 485 457 485 457 489 440 c 1,14,15
 461 416 461 416 461 354 c 2,16,-1
 461 -209 l 1,17,-1
 455 -216 l 1,18,-1
 407 -216 l 2,19,20
 370 -216 370 -216 355 -198.5 c 128,-1,21
 340 -181 340 -181 340 -139 c 2,0,-1
244 92 m 0,22,23
 297 92 297 92 340 140 c 1,24,-1
 340 374 l 1,25,26
 295 414 295 414 254.5 414 c 128,-1,27
 214 414 214 414 190 371 c 128,-1,28
 166 328 166 328 166 248 c 128,-1,29
 166 168 166 168 187.5 130 c 128,-1,30
 209 92 209 92 244 92 c 0,22,23
EndSplineSet
EndChar

StartChar: r
Encoding: 114 114 22
Width: 379
Flags: HMW
HStem: 476 20G
VStem: 79 124<0 321 0 335 0 363>
LayerCount: 2
Fore
SplineSet
42 438 m 1,0,1
 46 455 46 455 58.5 474.5 c 128,-1,2
 71 494 71 494 84 503 c 1,3,4
 162 491 162 491 189 414 c 1,5,6
 229 503 229 503 318 503 c 0,7,8
 341 503 341 503 376 496 c 1,9,10
 376 431 376 431 346 380 c 1,11,12
 331 384 331 384 301 386 c 1,13,14
 240 386 240 386 203 321 c 1,15,-1
 203 0 l 1,16,17
 175 -5 175 -5 142 -5 c 128,-1,18
 109 -5 109 -5 79 0 c 1,19,-1
 79 335 l 2,20,21
 79 408 79 408 42 438 c 1,0,1
EndSplineSet
EndChar

StartChar: s
Encoding: 115 115 23
Width: 440
Flags: HMW
HStem: -14 92<182 228 182 272> 417 93<208 251>
VStem: 43 123<357 383.5 357 402.5> 281 128<114 141.5>
LayerCount: 2
Fore
SplineSet
26 36 m 1,0,1
 27 56 27 56 38 81.5 c 128,-1,2
 49 107 49 107 64 121 c 1,3,4
 144 78 144 78 204 78 c 0,5,6
 240 78 240 78 260.5 92 c 128,-1,7
 281 106 281 106 281 129 c 0,8,9
 281 168 281 168 225 189 c 2,10,-1
 169 210 l 2,11,12
 43 257 43 257 43 355 c 0,13,14
 43 425 43 425 94 467.5 c 128,-1,15
 145 510 145 510 229.5 510 c 0,16,17
 314 510 314 510 398 471 c 1,18,19
 399 448 399 448 388.5 422 c 128,-1,20
 378 396 378 396 362 383 c 1,21,22
 288 417 288 417 227 417 c 0,23,24
 199 417 199 417 182.5 404 c 128,-1,25
 166 391 166 391 166 369 c 0,26,27
 166 337 166 337 219 318 c 2,28,-1
 280 295 l 2,29,30
 409 247 409 247 409 141 c 0,31,32
 409 70 409 70 355.5 28 c 128,-1,33
 302 -14 302 -14 207.5 -14 c 0,34,35
 113 -14 113 -14 26 36 c 1,0,1
EndSplineSet
EndChar

StartChar: t
Encoding: 116 116 24
Width: 360
Flags: HMW
HStem: -5 97<167.5 318> 408 89<15 90> 628 20G<157 205 205 205>
VStem: 90 121<123 137 137 408 408 408 495 571 571 598.5>
LayerCount: 2
Fore
SplineSet
333 497 m 1,0,1
 338 477 338 477 338 451.5 c 0,2,3
 338 426 338 426 333 407 c 1,4,-1
 211 409 l 1,5,-1
 211 137 l 2,6,7
 211 92 211 92 254 92 c 2,8,-1
 318 92 l 1,9,10
 328 62 328 62 328 39 c 0,11,12
 328 16 328 16 325 4 c 1,13,14
 262 -5 262 -5 206 -5 c 0,15,16
 90 -5 90 -5 90 112 c 2,17,-1
 90 408 l 1,18,-1
 15 407 l 1,19,20
 10 426 10 426 10 451.5 c 0,21,22
 10 477 10 477 15 497 c 1,23,-1
 90 495 l 1,24,-1
 90 571 l 2,25,26
 90 613 90 613 105 630.5 c 128,-1,27
 120 648 120 648 157 648 c 2,28,-1
 205 648 l 1,29,-1
 211 641 l 1,30,-1
 211 495 l 1,31,-1
 333 497 l 1,0,1
EndSplineSet
EndChar

StartChar: u
Encoding: 117 117 25
Width: 548
Flags: HMW
HStem: -9 111<224.5 234.5> 476 20<351 351 475 475>
VStem: 67 124<160 187 187 383 383 401> 351 124<152 496>
LayerCount: 2
Fore
SplineSet
67 160 m 2,0,-1
 67 383 l 2,1,2
 67 443 67 443 48 476 c 1,3,4
 78 503 78 503 119.5 503 c 0,5,6
 161 503 161 503 176 484 c 128,-1,7
 191 465 191 465 191 425 c 2,8,-1
 191 187 l 2,9,10
 191 141 191 141 203 121.5 c 128,-1,11
 215 102 215 102 246 102 c 0,12,13
 303 102 303 102 351 152 c 1,14,-1
 351 496 l 1,15,16
 379 501 379 501 413 501 c 128,-1,17
 447 501 447 501 475 496 c 1,18,-1
 475 141 l 2,19,20
 475 77 475 77 503 55 c 1,21,22
 494 16 494 16 461 -8 c 1,23,24
 390 1 390 1 364 63 c 1,25,26
 287 -9 287 -9 203 -9 c 0,27,28
 136 -9 136 -9 101.5 37.5 c 128,-1,29
 67 84 67 84 67 160 c 2,0,-1
EndSplineSet
EndChar

StartChar: v
Encoding: 118 118 26
Width: 465
Flags: HMW
HStem: -6 103<197 241> 480 20G<385.5 404> 484 20G<61.5 90.5>
VStem: 2 458<485 486>
LayerCount: 2
Fore
SplineSet
241 97 m 1,0,-1
 347 496 l 1,1,2
 368 500 368 500 400 500 c 0,3,4
 432 500 432 500 456 491 c 1,5,-1
 460 485 l 1,6,7
 363 155 363 155 312 0 c 1,8,9
 272 -6 272 -6 227.5 -6 c 0,10,11
 183 -6 183 -6 164 7 c 128,-1,12
 145 20 145 20 133 59 c 2,13,-1
 2 486 l 1,14,15
 41 504 41 504 72 504 c 0,16,17
 127 504 127 504 141 448 c 1,18,-1
 199 242 l 2,19,20
 207 216 207 216 232 105 c 0,21,22
 233 97 233 97 241 97 c 1,0,-1
EndSplineSet
EndChar

StartChar: w
Encoding: 119 119 27
Width: 736
Flags: HMW
HStem: -5 97<176 222 518.5 521> 383 109<295 371 295 365> 481 20G<646.5 664> 484 20G
VStem: 16 706<484 488>
LayerCount: 2
Fore
SplineSet
117 58 m 2,0,-1
 16 488 l 1,1,2
 52 504 52 504 82 504 c 0,3,4
 112 504 112 504 125.5 491.5 c 128,-1,5
 139 479 139 479 145 452 c 2,6,-1
 184 262 l 1,7,8
 205 169 205 169 214 100 c 0,9,10
 216 92 216 92 222 92 c 1,11,-1
 295 492 l 1,12,13
 319 498 319 498 369 498 c 0,14,15
 419 498 419 498 442 492 c 1,16,-1
 513 100 l 2,17,18
 515 92 515 92 521 92 c 1,19,20
 547 229 547 229 554 262 c 2,21,-1
 605 496 l 1,22,23
 627 501 627 501 662.5 501 c 0,24,25
 698 501 698 501 718 491 c 1,26,-1
 722 484 l 1,27,-1
 602 0 l 1,28,29
 572 -5 572 -5 521.5 -5 c 0,30,31
 471 -5 471 -5 452.5 7 c 128,-1,32
 434 19 434 19 428 56 c 2,33,-1
 404 183 l 1,34,35
 387 282 387 282 371 383 c 1,36,-1
 365 383 l 1,37,38
 356 317 356 317 330 184 c 2,39,-1
 295 0 l 1,40,41
 261 -5 261 -5 211.5 -5 c 0,42,43
 162 -5 162 -5 144 7.5 c 128,-1,44
 126 20 126 20 117 58 c 2,0,-1
EndSplineSet
EndChar

StartChar: x
Encoding: 120 120 28
Width: 468
Flags: HMW
HStem: 481 20G<369 389.5> 485 20G<93 121.5>
VStem: 10 451<13 20>
LayerCount: 2
Fore
SplineSet
328 496 m 1,0,1
 350 501 350 501 379 501 c 0,2,3
 408 501 408 501 439 492 c 1,4,-1
 442 483 l 1,5,-1
 301 264 l 1,6,-1
 461 20 l 1,7,8
 419 -8 419 -8 377.5 -8 c 0,9,10
 336 -8 336 -8 312 29 c 2,11,-1
 226 162 l 1,12,-1
 128 0 l 1,13,14
 110 -6 110 -6 74 -6 c 0,15,16
 38 -6 38 -6 14 4 c 1,17,-1
 10 13 l 1,18,-1
 166 255 l 1,19,-1
 22 477 l 1,20,21
 62 505 62 505 103.5 505 c 0,22,23
 145 505 145 505 169 467 c 2,24,-1
 242 355 l 1,25,-1
 328 496 l 1,0,1
EndSplineSet
EndChar

StartChar: y
Encoding: 121 121 29
Width: 479
Flags: HMW
HStem: -219 93<95.5 140.5 95.5 180.5> 481 20G<392 411> 484 20G
VStem: 4 466
LayerCount: 2
Fore
SplineSet
470 484 m 1,0,-1
 341 15 l 2,1,2
 308 -106 308 -106 258.5 -162.5 c 128,-1,3
 209 -219 209 -219 110 -219 c 0,4,5
 56 -219 56 -219 4 -201 c 1,6,7
 3.57894736842 -196.368421053 3.57894736842 -196.368421053 3.57894736842 -184.894736842 c 128,-1,8
 3.57894736842 -173.421052632 3.57894736842 -173.421052632 10.2894736842 -149.710526316 c 128,-1,9
 17 -126 17 -126 30 -112 c 1,10,11
 72 -126 72 -126 113 -126 c 0,12,13
 190.716981132 -126 190.716981132 -126 221 -19 c 1,14,-1
 225 -6 l 1,15,16
 189 -5 189 -5 167.5 8 c 128,-1,17
 146 21 146 21 137 52 c 2,18,-1
 12 486 l 1,19,20
 52 504 52 504 88 504 c 0,21,22
 135 504 135 504 149 450 c 2,23,-1
 208 234 l 2,24,25
 211 225 211 225 240 93 c 0,26,27
 241 86 241 86 249 86 c 1,28,-1
 350 496 l 1,29,30
 373 501 373 501 406 501 c 128,-1,31
 439 501 439 501 466 492 c 1,32,-1
 470 484 l 1,0,-1
EndSplineSet
EndChar

StartChar: z
Encoding: 122 122 30
Width: 447
Flags: HMW
HStem: 0 94<261 304 304 323.5 261 346> 402 94<51 143 48 391>
VStem: 31 387<56.5 65.5 39.5 71>
LayerCount: 2
Fore
SplineSet
49 112 m 1,0,-1
 195 309 l 2,1,2
 217 339 217 339 275 404 c 1,3,-1
 272 409 l 1,4,5
 216 402 216 402 143 402 c 2,6,-1
 48 402 l 1,7,8
 44 418 44 418 44 441 c 128,-1,9
 44 464 44 464 51 496 c 1,10,-1
 391 496 l 1,11,12
 408 445 408 445 408 425 c 128,-1,13
 408 405 408 405 395 386 c 2,14,-1
 247 188 l 1,15,16
 213 140 213 140 171 93 c 1,17,-1
 174 89 l 1,18,19
 226 94 226 94 261 94 c 2,20,-1
 304 94 l 2,21,22
 374 94 374 94 406 109 c 1,23,24
 418 77 418 77 418 57 c 0,25,26
 418 0 418 0 346 0 c 2,27,-1
 46 0 l 1,28,29
 31 45 31 45 31 65.5 c 0,30,31
 31 86 31 86 49 112 c 1,0,-1
EndSplineSet
EndChar

StartChar: A
Encoding: 65 65 31
Width: 622
Flags: HMW
HStem: -11 20G<15 15> 156 104<231.5 352 263 352 352 356 263 375> 562 126<303 308 303 303>
VStem: 15 591<8 9>
LayerCount: 2
Fore
SplineSet
427 157 m 1,0,-1
 375 156 l 1,1,-1
 236 156 l 1,2,-1
 185 157 l 1,3,-1
 136 -1 l 1,4,5
 116 -6 116 -6 79 -6 c 128,-1,6
 42 -6 42 -6 20 3 c 1,7,-1
 15 9 l 1,8,-1
 239 683 l 1,9,10
 272 688 272 688 315 688 c 128,-1,11
 358 688 358 688 385 682 c 1,12,-1
 606 8 l 1,13,14
 577 -8 577 -8 539.5 -8 c 128,-1,15
 502 -8 502 -8 485.5 6.5 c 128,-1,16
 469 21 469 21 457 60 c 2,17,-1
 427 157 l 1,0,-1
216 259 m 1,18,-1
 263 260 l 1,19,-1
 352 260 l 2,20,21
 355 260 355 260 371.5 259.5 c 128,-1,22
 388 259 388 259 396 259 c 1,23,-1
 362 371 l 2,24,25
 334 460 334 460 308 562 c 1,26,-1
 303 562 l 1,27,28
 291 501 291 501 260 400 c 2,29,-1
 216 259 l 1,18,-1
EndSplineSet
EndChar

StartChar: B
Encoding: 66 66 32
Width: 609
Flags: HMW
HStem: -5 94<302 366.5 302 402.5> 311 95<211 303 303 313 211 303> 594 94<292 346>
VStem: 85 126<88 311 88 406 406 595> 407 126<478 523> 436 129<175.5 223>
LayerCount: 2
Fore
SplineSet
92 684 m 1,0,1
 242 688 242 688 308 688 c 0,2,3
 417 688 417 688 475 641.5 c 128,-1,4
 533 595 533 595 533 507 c 0,5,6
 533 460 533 460 507.5 422 c 128,-1,7
 482 384 482 384 441 367 c 1,8,9
 494 351 494 351 529.5 302.5 c 128,-1,10
 565 254 565 254 565 193 c 0,11,12
 565 100 565 100 503 47.5 c 128,-1,13
 441 -5 441 -5 322 -5 c 0,14,15
 250 -5 250 -5 92 -1 c 1,16,-1
 85 5 l 1,17,-1
 85 678 l 1,18,-1
 92 684 l 1,0,1
211 88 m 1,19,-1
 318 89 l 2,20,21
 383 89 383 89 409.5 122 c 128,-1,22
 436 155 436 155 436 199 c 128,-1,23
 436 243 436 243 407.5 277 c 128,-1,24
 379 311 379 311 313 311 c 2,25,-1
 211 311 l 1,26,-1
 211 88 l 1,19,-1
211 595 m 1,27,-1
 211 406 l 1,28,-1
 303 406 l 2,29,30
 360 406 360 406 383.5 433.5 c 128,-1,31
 407 461 407 461 407 500 c 0,32,33
 407 594 407 594 304 594 c 0,34,35
 240 594 240 594 211 595 c 1,27,-1
EndSplineSet
EndChar

StartChar: C
Encoding: 67 67 33
Width: 606
Flags: HMW
HStem: -14 111<283.5 363> 595 102<273 372>
VStem: 44 134<260 421.5 260 463.5>
LayerCount: 2
Fore
SplineSet
450 433 m 1,0,1
 450.123076923 437.184615385 450.123076923 437.184615385 450.123076923 441.289704142 c 0,2,3
 450.123076923 503.892307692 450.123076923 503.892307692 420.561538462 549.446153846 c 128,-1,4
 391 595 391 595 322 595 c 0,5,6
 178 595 178 595 178 338 c 0,7,8
 178 222 178 222 218.5 159.5 c 128,-1,9
 259 97 259 97 336 97 c 128,-1,10
 413 97 413 97 508 171 c 1,11,12
 528 157 528 157 546 133.5 c 128,-1,13
 564 110 564 110 569 89 c 1,14,15
 524 44 524 44 455 15 c 128,-1,16
 386 -14 386 -14 312 -14 c 128,-1,17
 238 -14 238 -14 185 16 c 128,-1,18
 132 46 132 46 102 97.5 c 0,19,20
 44 197.066666667 44 197.066666667 44 339 c 0,21,22
 44 516 44 516 123.5 606.5 c 128,-1,23
 203 697 203 697 319 697 c 128,-1,24
 435 697 435 697 503.5 638.5 c 128,-1,25
 572 580 572 580 572 497 c 0,26,27
 572 426 572 426 500 426 c 0,28,29
 474 426 474 426 450 433 c 1,0,1
EndSplineSet
EndChar

StartChar: D
Encoding: 68 68 34
Width: 656
Flags: HMW
HStem: -5 101<282.5 323 323 351> 587 101<304 351 282.5 391>
VStem: 85 127<96 588 96 678 96 678> 479 131<285.5 398>
LayerCount: 2
Fore
SplineSet
587.5 514 m 128,-1,1
 610 442 610 442 610 341.5 c 128,-1,2
 610 241 610 241 587.5 168.5 c 128,-1,3
 565 96 565 96 502 45 c 0,4,5
 471 20 471 20 420.5 7.5 c 128,-1,6
 370 -5 370 -5 318 -5 c 128,-1,7
 266 -5 266 -5 92 -1 c 1,8,-1
 85 5 l 1,9,-1
 85 678 l 1,10,-1
 92 684 l 1,11,12
 207 688 207 688 324 688 c 0,13,14
 370 688 370 688 420.5 675 c 128,-1,15
 471 662 471 662 502 637 c 0,16,0
 565 586 565 586 587.5 514 c 128,-1,1
473.5 254.5 m 128,-1,18
 479 293 479 293 479 341.5 c 128,-1,19
 479 390 479 390 473.5 428.5 c 128,-1,20
 468 467 468 467 452.5 505.5 c 128,-1,21
 437 544 437 544 404 565.5 c 128,-1,22
 371 587 371 587 312 587 c 128,-1,23
 253 587 253 587 212 588 c 1,24,-1
 212 96 l 1,25,-1
 323 96 l 2,26,27
 371 96 371 96 404 117.5 c 128,-1,28
 437 139 437 139 452.5 177.5 c 128,-1,17
 468 216 468 216 473.5 254.5 c 128,-1,18
EndSplineSet
EndChar

StartChar: E
Encoding: 69 69 35
Width: 569
Flags: HMW
HStem: -2 108<278 442> 292 105<266.5 448 274 448> 576 107<209 274 209 209 274 499>
VStem: 84 126<152.5 163 163 293 396 508>
LayerCount: 2
Fore
SplineSet
210 163 m 1,0,-1
 209 104 l 1,1,2
 251 106 251 106 278 106 c 2,3,-1
 526 106 l 1,4,5
 526 75 526 75 524 59 c 0,6,7
 513 -2 513 -2 442 -2 c 2,8,-1
 157 -2 l 2,9,10
 123 -2 123 -2 103.5 18.5 c 128,-1,11
 84 39 84 39 84 75 c 2,12,-1
 84 676 l 1,13,-1
 91 683 l 1,14,-1
 504 683 l 1,15,16
 509 659 509 659 509 633.5 c 128,-1,17
 509 608 509 608 499 576 c 1,18,-1
 209 576 l 1,19,-1
 210 508 l 1,20,-1
 210 396 l 1,21,22
 234 397 234 397 274 397 c 2,23,-1
 448 397 l 1,24,25
 455 373 455 373 455 344.5 c 128,-1,26
 455 316 455 316 448 292 c 1,27,-1
 274 292 l 2,28,29
 234 292 234 292 210 293 c 1,30,-1
 210 163 l 1,0,-1
EndSplineSet
EndChar

StartChar: F
Encoding: 70 70 36
Width: 527
Flags: HMW
HStem: 290 105<212 246 212 246 246 444> 574 109<282 298 298 436>
VStem: 85 127<0 290 395 473>
LayerCount: 2
Fore
SplineSet
211 575 m 1,0,-1
 212 473 l 1,1,-1
 212 395 l 1,2,-1
 444 395 l 1,3,4
 450 371 450 371 450 342.5 c 128,-1,5
 450 314 450 314 444 290 c 1,6,-1
 212 290 l 1,7,-1
 212 0 l 1,8,9
 186 -5 186 -5 148.5 -5 c 128,-1,10
 111 -5 111 -5 85 0 c 1,11,-1
 85 677 l 1,12,-1
 92 683 l 1,13,-1
 500 683 l 1,14,15
 506 662 506 662 506 633 c 0,16,17
 506 574 506 574 436 574 c 2,18,-1
 298 574 l 2,19,20
 237 574 237 574 211 575 c 1,0,-1
EndSplineSet
EndChar

StartChar: G
Encoding: 71 71 37
Width: 648
Flags: HMW
HStem: -14 103<298 378.5 298 386.5> 263 107<346 406 346 470> 590 107<301 383.5>
VStem: 44 131<252.5 427.5 252.5 461.5> 468 121<102 197 197 208>
LayerCount: 2
Fore
SplineSet
346 370 m 1,0,-1
 501 371 l 2,1,2
 502.060240964 371.012048193 502.060240964 371.012048193 503.10770794 371.012048193 c 0,3,4
 589 371.012048193 589 371.012048193 589 290 c 2,5,-1
 589 29 l 1,6,7
 472 -14 472 -14 330 -14 c 0,8,9
 188 -14 188 -14 116 82.5 c 128,-1,10
 44 179 44 179 44 345.5 c 0,11,12
 44 512 44 512 133.5 604.5 c 128,-1,13
 223 697 223 697 352.5 697 c 0,14,15
 482 697 482 697 587 624 c 1,16,17
 584 597 584 597 566.5 571 c 128,-1,18
 549 545 549 545 528 531 c 1,19,20
 444 590 444 590 357.5 590 c 0,21,22
 271 590 271 590 223 528.5 c 128,-1,23
 175 467 175 467 175 336 c 0,24,25
 175 89 175 89 357 89 c 0,26,27
 410 89 410 89 468 102 c 1,28,-1
 468 197 l 2,29,30
 468 242 468 242 470 263 c 1,31,-1
 397 263 l 2,32,33
 366 263 366 263 351.5 275.5 c 128,-1,34
 337 288 337 288 337 315.5 c 0,35,36
 337 343 337 343 346 370 c 1,0,-1
EndSplineSet
EndChar

StartChar: H
Encoding: 72 72 38
Width: 679
Flags: HMW
HStem: 298 108<259.5 414 265 414>
VStem: 85 127<0 225 465 479 479 683> 467 127<0 225 225 239 479 683 0 683>
LayerCount: 2
Fore
SplineSet
468 405 m 1,0,-1
 467 479 l 1,1,-1
 467 683 l 1,2,3
 492 688 492 688 530.5 688 c 128,-1,4
 569 688 569 688 594 683 c 1,5,-1
 594 0 l 1,6,7
 568 -5 568 -5 530 -5 c 128,-1,8
 492 -5 492 -5 467 0 c 1,9,-1
 467 225 l 1,10,-1
 468 299 l 1,11,-1
 414 298 l 1,12,-1
 265 298 l 1,13,-1
 211 299 l 1,14,-1
 212 225 l 1,15,-1
 212 0 l 1,16,17
 187 -5 187 -5 148 -5 c 128,-1,18
 109 -5 109 -5 85 0 c 1,19,-1
 85 683 l 1,20,21
 109 688 109 688 148 688 c 128,-1,22
 187 688 187 688 212 683 c 1,23,-1
 212 479 l 1,24,-1
 211 405 l 1,25,-1
 265 406 l 1,26,-1
 414 406 l 1,27,-1
 468 405 l 1,0,-1
EndSplineSet
EndChar

StartChar: I
Encoding: 73 73 39
Width: 303
Flags: HMW
HStem: -5 693<142.5 160.5>
VStem: 88 127<0 683 0 683>
LayerCount: 2
Fore
SplineSet
88 0 m 1,0,-1
 88 683 l 1,1,2
 112 688 112 688 151 688 c 128,-1,3
 190 688 190 688 215 683 c 1,4,-1
 215 0 l 1,5,6
 190 -5 190 -5 151 -5 c 128,-1,7
 112 -5 112 -5 88 0 c 1,0,-1
EndSplineSet
EndChar

StartChar: J
Encoding: 74 74 40
Width: 457
Flags: HMW
HStem: -10 106<142.5 195 138.5 258.5>
VStem: 256 128<239 254 254 683>
LayerCount: 2
Fore
SplineSet
56 128 m 1,0,1
 108 96 108 96 160 96 c 128,-1,2
 212 96 212 96 234 130 c 128,-1,3
 256 164 256 164 256 239 c 2,4,-1
 256 683 l 1,5,6
 281 688 281 688 320 688 c 128,-1,7
 359 688 359 688 384 683 c 1,8,-1
 384 254 l 2,9,10
 384 96.5744680851 384 96.5744680851 322.5 39 c 0,11,12
 270.159090909 -10 270.159090909 -10 174.579545455 -10 c 128,-1,13
 79 -10 79 -10 10 33 c 1,14,15
 20 89 20 89 56 128 c 1,0,1
EndSplineSet
EndChar

StartChar: K
Encoding: 75 75 41
Width: 606
Flags: HMW
HStem: 299 108<263.5 267 256 298> 674 13
VStem: 85 127<0 297 0 406 406 683>
LayerCount: 2
Fore
SplineSet
593 32 m 1,0,1
 566 -7 566 -7 508 -7 c 0,2,3
 474 -7 474 -7 457.5 10 c 128,-1,4
 441 27 441 27 427 68 c 2,5,-1
 380 203 l 2,6,7
 361 256 361 256 336.5 277.5 c 128,-1,8
 312 299 312 299 271 299 c 0,9,10
 262 299 262 299 212 297 c 1,11,-1
 212 0 l 1,12,13
 187 -5 187 -5 148 -5 c 128,-1,14
 109 -5 109 -5 85 0 c 1,15,-1
 85 683 l 1,16,17
 109 688 109 688 148 688 c 128,-1,18
 187 688 187 688 212 683 c 1,19,-1
 212 406 l 1,20,-1
 256 407 l 2,21,22
 272 407 272 407 280 413 c 128,-1,23
 288 419 288 419 297 437 c 1,24,-1
 413 639 l 2,25,26
 427 665 427 665 441.5 676 c 128,-1,27
 456 687 456 687 488 687 c 0,28,29
 520 687 520 687 558 684 c 1,30,-1
 566 674 l 1,31,-1
 426 428 l 2,32,33
 407 393 407 393 380 369 c 1,34,35
 427 360 427 360 452.5 331 c 128,-1,36
 478 302 478 302 497 250 c 2,37,-1
 546 113 l 2,38,39
 566 56 566 56 593 32 c 1,0,1
EndSplineSet
EndChar

StartChar: L
Encoding: 76 76 42
Width: 516
Flags: HMW
HStem: -2 110<302 405>
VStem: 84 128<105 607 105 682 105 682>
LayerCount: 2
Fore
SplineSet
302 108 m 2,0,-1
 491 108 l 1,1,2
 491 75 491 75 488 60 c 0,3,4
 477 -2 477 -2 405 -2 c 2,5,-1
 158 -2 l 2,6,7
 124 -2 124 -2 104 18.5 c 128,-1,8
 84 39 84 39 84 75 c 2,9,-1
 84 682 l 1,10,-1
 91 688 l 1,11,-1
 138 688 l 2,12,13
 176 688 176 688 194 669 c 128,-1,14
 212 650 212 650 212 607 c 2,15,-1
 212 105 l 1,16,17
 260 108 260 108 302 108 c 2,0,-1
EndSplineSet
EndChar

StartChar: M
Encoding: 77 77 43
Width: 818
Flags: HMW
HStem: -18 20G<66 66 751 751> 103 125<344 412 406 474> 545 137<119 222 119 216>
VStem: 66 685<2 2>
LayerCount: 2
Fore
SplineSet
66 2 m 1,0,-1
 119 682 l 1,1,2
 153 688 153 688 203.5 688 c 0,3,4
 254 688 254 688 286 682 c 1,5,-1
 367 396 l 2,6,7
 394 301 394 301 406 228 c 1,8,-1
 412 228 l 1,9,10
 424 301 424 301 451 396 c 2,11,-1
 532 682 l 1,12,13
 566 688 566 688 615 688 c 0,14,15
 664 688 664 688 698 682 c 1,16,-1
 751 2 l 1,17,18
 726 -5 726 -5 690.5 -5 c 0,19,20
 655 -5 655 -5 630 -1 c 1,21,-1
 610 331 l 2,22,23
 604 423 604 423 602 545 c 1,24,-1
 596 545 l 1,25,-1
 474 103 l 1,26,27
 442 98 442 98 408 98 c 128,-1,28
 374 98 374 98 344 103 c 1,29,-1
 222 545 l 1,30,-1
 216 545 l 1,31,32
 211 396 211 396 208 331 c 1,33,-1
 187 -1 l 1,34,35
 163 -5 163 -5 127 -5 c 0,36,37
 91 -5 91 -5 66 2 c 1,0,-1
EndSplineSet
EndChar

StartChar: N
Encoding: 78 78 44
Width: 686
Flags: HMW
HStem: -5 693<152.5 153 152.5 532>
VStem: 85 118<0 268 0 681> 483 118<410 610 610 638.5>
LayerCount: 2
Fore
SplineSet
595 688 m 1,0,-1
 601 682 l 1,1,-1
 601 2 l 1,2,3
 573 -5 573 -5 528 -5 c 128,-1,4
 483 -5 483 -5 449 0 c 1,5,-1
 258 396 l 2,6,7
 233 447 233 447 197 535 c 1,8,-1
 193 534 l 1,9,10
 203 409 203 409 203 268 c 2,11,-1
 203 0 l 1,12,13
 177 -5 177 -5 143.5 -5 c 128,-1,14
 110 -5 110 -5 85 0 c 1,15,-1
 85 681 l 1,16,17
 113 688 113 688 157.5 688 c 128,-1,18
 202 688 202 688 235 683 c 1,19,-1
 424 288 l 2,20,21
 450.25 233.75 450.25 233.75 490 141 c 1,22,-1
 493 142 l 1,23,24
 483 284 483 284 483 410 c 2,25,-1
 483 610 l 2,26,27
 483 652 483 652 499 670 c 128,-1,28
 515 688 515 688 553 688 c 2,29,-1
 595 688 l 1,0,-1
EndSplineSet
EndChar

StartChar: O
Encoding: 79 79 45
Width: 661
Flags: HMW
HStem: -14 100<289 373> 597 100<289 373 289 396>
VStem: 44 133<288.5 395.5> 484 133<288.5 395.5 288.5 399.5>
LayerCount: 2
Fore
SplineSet
177 341.5 m 128,-1,1
 177 86 177 86 330.5 86 c 128,-1,2
 484 86 484 86 484 341.5 c 128,-1,3
 484 597 484 597 330.5 597 c 128,-1,0
 177 597 177 597 177 341.5 c 128,-1,1
151 47 m 0,4,5
 44 138 44 138 44 341.5 c 128,-1,6
 44 545 44 545 151 636 c 0,7,8
 224 697 224 697 330 697 c 128,-1,9
 436 697 436 697 511 636 c 1,10,11
 617 545 617 545 617 341.5 c 128,-1,12
 617 138 617 138 511 47 c 1,13,14
 436 -14 436 -14 330 -14 c 128,-1,15
 224 -14 224 -14 151 47 c 0,4,5
EndSplineSet
EndChar

StartChar: P
Encoding: 80 80 46
Width: 576
Flags: HMW
HStem: 231 99<292 308 212 346> 588 100<287.5 346>
VStem: 85 127<0 231 0 328 328 589> 412 131<431.5 487>
LayerCount: 2
Fore
SplineSet
478.5 629.5 m 128,-1,1
 543 571 543 571 543 460.5 c 128,-1,2
 543 350 543 350 478.5 290.5 c 128,-1,3
 414 231 414 231 308 231 c 2,4,-1
 212 231 l 1,5,-1
 212 0 l 1,6,7
 187 -5 187 -5 148 -5 c 128,-1,8
 109 -5 109 -5 85 0 c 1,9,-1
 85 678 l 1,10,-1
 92 684 l 1,11,12
 250 688 250 688 308 688 c 0,13,0
 414 688 414 688 478.5 629.5 c 128,-1,1
212 589 m 1,14,-1
 212 328 l 1,15,16
 280 330 280 330 300 330 c 0,17,18
 362 330 362 330 387 368.5 c 128,-1,19
 412 407 412 407 412 459.5 c 128,-1,20
 412 512 412 512 387 550 c 128,-1,21
 362 588 362 588 302.5 588 c 128,-1,22
 243 588 243 588 212 589 c 1,14,-1
EndSplineSet
EndChar

StartChar: Q
Encoding: 81 81 47
Width: 660
Flags: HMW
HStem: -134 91 -14 101<289 331 331 338> 597 100<287 371.5 287 394.5>
VStem: 44 132<289 395> 482 132<292 394.5 292 400>
LayerCount: 2
Fore
SplineSet
446 -102 m 2,0,-1
 338 -14 l 1,1,-1
 331 -14 l 2,2,3
 222 -14 222 -14 150 46 c 1,4,5
 44 138 44 138 44 342.5 c 0,6,7
 44 547 44 547 150 637 c 0,8,9
 220 697 220 697 328.5 697 c 0,10,11
 437 697 437 697 509 637 c 1,12,13
 614 546 614 546 614 341 c 0,14,15
 614 157 614 157 529 69 c 1,16,17
 501 38 501 38 468 26 c 1,18,-1
 491 10 l 1,19,20
 563 -42 563 -42 618 -43 c 1,21,22
 617 -85 617 -85 592.5 -109.5 c 128,-1,23
 568 -134 568 -134 526 -134 c 0,24,25
 484 -134 484 -134 446 -102 c 2,0,-1
176 342 m 128,-1,27
 176 87 176 87 329 87 c 128,-1,28
 482 87 482 87 482 342 c 128,-1,29
 482 597 482 597 329 597 c 128,-1,26
 176 597 176 597 176 342 c 128,-1,27
EndSplineSet
EndChar

StartChar: R
Encoding: 82 82 48
Width: 606
Flags: HMW
HStem: 265 102<211 352.5 211 352.5> 589 99<295 352.5>
VStem: 85 126<0 265 0 365 365 590> 419 131<450.5 506.5>
LayerCount: 2
Fore
SplineSet
550 478 m 0,0,1
 550 411 550 411 513.5 362.5 c 128,-1,2
 477 314 477 314 424 295 c 1,3,4
 473 278 473 278 497 208 c 1,5,-1
 536 103 l 2,6,7
 555 52 555 52 583 31 c 1,8,9
 555 -8 555 -8 497 -8 c 0,10,11
 464 -8 464 -8 447.5 9.5 c 128,-1,12
 431 27 431 27 417 68 c 2,13,-1
 372 191 l 2,14,15
 359 227 359 227 338.5 246 c 128,-1,16
 318 265 318 265 277 265 c 2,17,-1
 211 265 l 1,18,-1
 211 0 l 1,19,20
 186 -5 186 -5 147.5 -5 c 0,21,22
 109 -5 109 -5 85 0 c 1,23,-1
 85 678 l 1,24,-1
 92 684 l 1,25,26
 250 688 250 688 316 688 c 0,27,28
 423 688 423 688 486.5 634 c 128,-1,29
 550 580 550 580 550 478 c 0,0,1
211 590 m 1,30,-1
 211 365 l 1,31,32
 283 367 283 367 308 367 c 0,33,34
 419 367 419 367 419 478 c 128,-1,35
 419 589 419 589 308 589 c 0,36,37
 243 589 243 589 211 590 c 1,30,-1
EndSplineSet
EndChar

StartChar: S
Encoding: 83 83 49
Width: 556
Flags: HMW
HStem: -14 105<242.5 313 242.5 353.5> 593 104<250 310>
VStem: 50 130<494.5 534 494.5 554.5> 387 134<150.5 174>
LayerCount: 2
Fore
SplineSet
24 61 m 1,0,1
 31 120 31 120 76 157 c 1,2,3
 180 91 180 91 277 91 c 0,4,5
 329 91 329 91 358 114 c 128,-1,6
 387 137 387 137 387 174 c 1,7,8
 389 233 389 233 307 269 c 1,9,-1
 189 319 l 1,10,11
 50 381 50 381 50 497 c 0,12,13
 50 583 50 583 116 640 c 128,-1,14
 182 697 182 697 288.5 697 c 0,15,16
 395 697 395 697 503 643 c 1,17,18
 500 584 500 584 459 545 c 1,19,20
 363 593 363 593 284 593 c 0,21,22
 235 593 235 593 207.5 569.5 c 128,-1,23
 180 546 180 546 180 513 c 0,24,25
 180 464 180 464 253 433 c 2,26,-1
 371 383 l 1,27,28
 521 318 521 318 521 192 c 0,29,30
 521 100 521 100 456 43 c 128,-1,31
 391 -14 391 -14 263.5 -14 c 0,32,33
 136 -14 136 -14 24 61 c 1,0,1
EndSplineSet
EndChar

StartChar: T
Encoding: 84 84 50
Width: 499
Flags: HMW
HStem: 577 106<14 127 14 487 367 374 374 425>
VStem: 187 127<0 504 0 578 0 578>
LayerCount: 2
Fore
SplineSet
313 578 m 1,0,-1
 314 504 l 1,1,-1
 314 0 l 1,2,3
 288 -5 288 -5 250 -5 c 128,-1,4
 212 -5 212 -5 187 0 c 1,5,-1
 187 578 l 1,6,-1
 127 577 l 1,7,-1
 14 577 l 1,8,9
 9 600 9 600 9 629.5 c 128,-1,10
 9 659 9 659 14 683 c 1,11,-1
 487 683 l 1,12,13
 494 658 494 658 494 630.5 c 128,-1,14
 494 603 494 603 477.5 590 c 128,-1,15
 461 577 461 577 425 577 c 2,16,-1
 374 577 l 1,17,-1
 314 578 l 1,18,-1
 313 578 l 1,0,-1
EndSplineSet
EndChar

StartChar: U
Encoding: 85 85 51
Width: 671
Flags: HMW
HStem: -14 102<290 380 290 415.5>
VStem: 76 127<245 607> 467 128<244 245 245 683>
LayerCount: 2
Fore
SplineSet
595 683 m 1,0,-1
 595 245 l 2,1,2
 595 121 595 121 526 53.5 c 128,-1,3
 457 -14 457 -14 335.5 -14 c 0,4,5
 214 -14 214 -14 145 53.5 c 128,-1,6
 76 121 76 121 76 245 c 2,7,-1
 76 682 l 1,8,-1
 82 688 l 1,9,-1
 130 688 l 2,10,11
 168 688 168 688 185.5 668.5 c 128,-1,12
 203 649 203 649 203 607 c 2,13,-1
 203 244 l 2,14,15
 203 88 203 88 335 88 c 128,-1,16
 467 88 467 88 467 244 c 2,17,-1
 467 683 l 1,18,19
 492 688 492 688 531 688 c 0,20,21
 570 688 570 688 595 683 c 1,0,-1
EndSplineSet
EndChar

StartChar: V
Encoding: 86 86 52
Width: 587
Flags: HMW
HStem: -5 115<259 306>
VStem: 16 558<672 672>
LayerCount: 2
Fore
SplineSet
306 110 m 1,0,-1
 455 683 l 1,1,2
 476 688 476 688 509 688 c 0,3,4
 542 688 542 688 568 680 c 1,5,-1
 574 672 l 1,6,-1
 380 0 l 1,7,8
 341 -5 341 -5 292.5 -5 c 0,9,10
 244 -5 244 -5 223.5 7 c 128,-1,11
 203 19 203 19 193 54 c 2,12,-1
 16 672 l 1,13,14
 60 691 60 691 90.5 691 c 0,15,16
 121 691 121 691 137 676.5 c 128,-1,17
 153 662 153 662 162 628 c 2,18,-1
 255 297 l 2,19,20
 271 241 271 241 297 121 c 0,21,22
 299 110 299 110 306 110 c 1,0,-1
EndSplineSet
EndChar

StartChar: W
Encoding: 87 87 53
Width: 871
Flags: HMW
HStem: -5 111<209.5 256> 544 125<355 439 355 432>
VStem: 24 822<672 676>
LayerCount: 2
Fore
SplineSet
147 55 m 2,0,-1
 24 676 l 1,1,2
 59 691 59 691 92.5 691 c 0,3,4
 126 691 126 691 141 676 c 128,-1,5
 156 661 156 661 162 622 c 2,6,-1
 217 314 l 2,7,8
 236 205 236 205 242 157 c 0,9,10
 248 109 248 109 249.5 107.5 c 128,-1,11
 251 106 251 106 256 106 c 1,12,-1
 355 669 l 1,13,14
 392 675 392 675 438 675 c 0,15,16
 484 675 484 675 519 669 c 1,17,-1
 610 118 l 2,18,19
 611 110 611 110 613 108 c 128,-1,20
 615 106 615 106 620 106 c 1,21,22
 631 197 631 197 653 315 c 2,23,-1
 722 683 l 1,24,25
 745 688 745 688 778 688 c 0,26,27
 811 688 811 688 840 680 c 1,28,-1
 846 672 l 1,29,-1
 707 1 l 1,30,31
 662 -5 662 -5 612 -5 c 0,32,33
 562 -5 562 -5 542.5 7 c 128,-1,34
 523 19 523 19 518 55 c 1,35,-1
 475 303 l 1,36,37
 448 475 448 475 439 544 c 1,38,-1
 432 544 l 1,39,40
 414 417 414 417 393 303 c 2,41,-1
 338 1 l 1,42,43
 292 -5 292 -5 243 -5 c 0,44,45
 194 -5 194 -5 174 7 c 128,-1,46
 154 19 154 19 147 55 c 2,0,-1
EndSplineSet
EndChar

StartChar: X
Encoding: 88 88 54
Width: 598
Flags: HMW
HStem: 643 20G<35 35>
VStem: 14 570<14 20>
LayerCount: 2
Fore
SplineSet
440 683 m 1,0,1
 462 688 462 688 496.5 688 c 0,2,3
 531 688 531 688 560 677 c 1,4,-1
 563 670 l 1,5,-1
 373 360 l 1,6,-1
 584 20 l 1,7,8
 544 -8 544 -8 498 -8 c 0,9,10
 452 -8 452 -8 419 42 c 1,11,-1
 290 251 l 1,12,-1
 139 0 l 1,13,14
 119 -5 119 -5 84 -5 c 0,15,16
 49 -5 49 -5 18 6 c 1,17,-1
 14 14 l 1,18,-1
 225 355 l 1,19,-1
 35 663 l 1,20,21
 75 691 75 691 110 691 c 0,22,23
 145 691 145 691 163 680 c 128,-1,24
 181 669 181 669 199 641 c 2,25,-1
 309 464 l 1,26,-1
 440 683 l 1,0,1
EndSplineSet
EndChar

StartChar: Y
Encoding: 89 89 55
Width: 518
Flags: HMW
HStem: -5 696<70 269>
VStem: 196 127<0 214 0 218 0 218>
LayerCount: 2
Fore
SplineSet
313 477 m 2,0,-1
 395 683 l 1,1,2
 416 688 416 688 450 688 c 0,3,4
 484 688 484 688 509 679 c 1,5,-1
 515 671 l 1,6,-1
 323 214 l 1,7,-1
 323 0 l 1,8,9
 298 -5 298 -5 259 -5 c 0,10,11
 220 -5 220 -5 196 0 c 1,12,-1
 196 218 l 1,13,-1
 4 668 l 1,14,15
 45 691 45 691 77 691 c 0,16,17
 109 691 109 691 124 679 c 128,-1,18
 139 667 139 667 151 638 c 2,19,-1
 218 474 l 1,20,21
 243 410 243 410 261 342 c 1,22,-1
 267 342 l 1,23,24
 280 395 280 395 313 477 c 2,0,-1
EndSplineSet
EndChar

StartChar: Z
Encoding: 90 90 56
Width: 569
Flags: HMW
HStem: 0 108<315 400 400 425.5 315 440> 577 106<72 222 68 496>
VStem: 44 481<72.5 79 46 86.5>
LayerCount: 2
Fore
SplineSet
60 129 m 2,0,-1
 301 480 l 2,1,2
 319 507 319 507 380 583 c 1,3,-1
 377 586 l 1,4,5
 320 577 320 577 222 577 c 2,6,-1
 68 577 l 1,7,8
 63 596 63 596 63 623 c 0,9,10
 63 650 63 650 72 683 c 1,11,-1
 496 683 l 1,12,13
 514 618 514 618 514 598 c 0,14,15
 514 578 514 578 498 555 c 2,16,-1
 258 207 l 1,17,18
 233 168 233 168 180 105 c 1,19,-1
 183 102 l 1,20,21
 267 108 267 108 315 108 c 2,22,-1
 400 108 l 2,23,24
 471 108 471 108 516 128 c 1,25,26
 525 99 525 99 525 69 c 0,27,28
 525 0 525 0 440 0 c 2,29,-1
 59 0 l 1,30,31
 44 60 44 60 44 83 c 0,32,33
 44 106 44 106 60 129 c 2,0,-1
EndSplineSet
EndChar

StartChar: ampersand
Encoding: 38 38 57
Width: 636
Flags: HMW
HStem: -14 99<243.5 269> 308 105<263 508 320 393 514 526.5 320 541 514 514> 597 100<272 324 221.5 330.5>
VStem: 46 131<154.5 221.5 154.5 226> 75 131<481 533 477.5 568.5> 392 123<134.5 155 155 245 245 246 134.5 253.5>
LayerCount: 2
Fore
SplineSet
320 413 m 2,0,-1
 508 413 l 2,1,2
 569 413 569 413 608 431 c 1,3,4
 624 409 624 409 624 372 c 0,5,6
 624 308 624 308 541 308 c 2,7,-1
 514 308 l 1,8,9
 515 284 515 284 515 246 c 2,10,-1
 515 155 l 2,11,12
 515 82 515 82 521 0 c 1,13,14
 500 -7 500 -7 464 -7 c 0,15,16
 428 -7 428 -7 406 -1 c 1,17,-1
 397 41 l 1,18,19
 329 -14 329 -14 238.5 -14 c 0,20,21
 148 -14 148 -14 97 40.5 c 128,-1,22
 46 95 46 95 46 171 c 0,23,24
 46 247 46 247 84 297.5 c 128,-1,25
 122 348 122 348 177 365 c 1,26,27
 131 381 131 381 103 422.5 c 128,-1,28
 75 464 75 464 75 517 c 0,29,30
 75 596 75 596 132.5 646.5 c 128,-1,31
 190 697 190 697 291.5 697 c 0,32,33
 393 697 393 697 482 666 c 1,34,35
 482.111111111 662.833333333 482.111111111 662.833333333 482.111111111 659.722222222 c 0,36,37
 482.111111111 606.833333333 482.111111111 606.833333333 450 570 c 1,38,39
 363 597 363 597 310 597 c 0,40,41
 257 597 257 597 231.5 572 c 128,-1,42
 206 547 206 547 206 507 c 0,43,44
 206 413 206 413 320 413 c 2,0,-1
392 245 m 2,45,46
 392 285 392 285 393 308 c 1,47,-1
 309 308 l 2,48,49
 243 308 243 308 210 274.5 c 128,-1,50
 177 241 177 241 177 190 c 0,51,52
 177 139 177 139 202.5 112 c 128,-1,53
 228 85 228 85 271 85 c 0,54,55
 341 85 341 85 392 128 c 1,56,-1
 392 245 l 2,45,46
EndSplineSet
EndChar

StartChar: zero
Encoding: 48 48 58
Width: 530
Flags: HMW
HStem: -14 96<251 279.5 251 302> 566 96<251 279.5>
VStem: 40 128<270.5 377.5 270.5 383.5> 362 128<270.5 377.5>
LayerCount: 2
Fore
SplineSet
54.5 159 m 128,-1,1
 40 224 40 224 40 324.5 c 128,-1,2
 40 425 40 425 54.5 489.5 c 128,-1,3
 69 554 69 554 112 601 c 1,4,5
 173 662 173 662 265 662 c 128,-1,6
 357 662 357 662 418 601 c 1,7,8
 461 554 461 554 475.5 489 c 128,-1,9
 490 424 490 424 490 324 c 128,-1,10
 490 224 490 224 475.5 159 c 128,-1,11
 461 94 461 94 418 47 c 1,12,13
 357 -14 357 -14 265 -14 c 128,-1,14
 173 -14 173 -14 112 47 c 1,15,0
 69 94 69 94 54.5 159 c 128,-1,1
168 324 m 128,-1,17
 168 167 168 167 199 119 c 1,18,19
 220 82 220 82 265 82 c 128,-1,20
 310 82 310 82 331 119 c 1,21,22
 362 167 362 167 362 324 c 128,-1,23
 362 481 362 481 331 529 c 1,24,25
 310 566 310 566 265 566 c 128,-1,26
 220 566 220 566 199 529 c 1,27,16
 168 481 168 481 168 324 c 128,-1,17
EndSplineSet
EndChar

StartChar: one
Encoding: 49 49 59
Width: 530
Flags: HMW
HStem: 0 103<87 174 174 181 416 479 87 174> 628 20G<355 355>
VStem: 233 122<172 362 362 375>
LayerCount: 2
Fore
SplineSet
234 102 m 1,0,-1
 233 172 l 1,1,-1
 233 362 l 2,2,3
 233 390 233 390 239 480 c 1,4,5
 186 417 186 417 99 379 c 1,6,7
 80 389 80 389 65.5 409 c 128,-1,8
 51 429 51 429 47 452 c 1,9,10
 189 540 189 540 237 648 c 1,11,12
 265 653 265 653 296.5 653 c 128,-1,13
 328 653 328 653 355 648 c 1,14,-1
 355 172 l 1,15,-1
 354 102 l 1,16,-1
 416 103 l 1,17,-1
 479 103 l 1,18,19
 485 79 485 79 485 51.5 c 128,-1,20
 485 24 485 24 479 0 c 1,21,-1
 87 0 l 1,22,23
 81 25.5 81 25.5 81 52.25 c 128,-1,24
 81 79 81 79 87 103 c 1,25,-1
 174 103 l 1,26,-1
 234 102 l 1,0,-1
EndSplineSet
EndChar

StartChar: two
Encoding: 50 50 60
Width: 530
Flags: HMW
HStem: -1 108<314 399> 487 20G 560 102<224 276>
VStem: 337 127<447.5 498>
LayerCount: 2
Fore
SplineSet
480 107 m 1,0,1
 480 81 480 81 477 60 c 0,2,3
 468 -1 468 -1 399 -1 c 2,4,-1
 93 -1 l 1,5,6
 47 45 47 45 47 76 c 0,7,8
 47 154 47 154 168 262 c 2,9,-1
 270 352 l 2,10,11
 337 411 337 411 337 472 c 0,12,13
 337 511 337 511 313 535.5 c 128,-1,14
 289 560 289 560 251 560 c 0,15,16
 213 560 213 560 185.5 534 c 128,-1,17
 158 508 158 508 143 468 c 1,18,19
 118 468 118 468 92 478.5 c 128,-1,20
 66 489 66 489 55 507 c 1,21,22
 76 574 76 574 131 618 c 128,-1,23
 186 662 186 662 270 662 c 0,24,25
 354 662 354 662 409 609 c 128,-1,26
 464 556 464 556 464 469 c 0,27,28
 464 405 464 405 432.5 360 c 128,-1,29
 401 315 401 315 341 264 c 2,30,-1
 266 200 l 2,31,32
 188 134 188 134 174 98 c 1,33,34
 250 107 250 107 314 107 c 2,35,-1
 480 107 l 1,0,1
EndSplineSet
EndChar

StartChar: three
Encoding: 51 51 61
Width: 530
Flags: HMW
HStem: -14 101<206.5 268 206.5 308.5> 312 79 527 20G<320 320> 542 106<77 208 74 431>
VStem: 353 128<168.5 240.5>
LayerCount: 2
Fore
SplineSet
432 519 m 2,0,-1
 338 420 l 2,1,2
 324 406 324 406 304 391 c 1,3,4
 382 385 382 385 431.5 336.5 c 128,-1,5
 481 288 481 288 481 194.5 c 0,6,7
 481 101 481 101 412.5 43.5 c 128,-1,8
 344 -14 344 -14 249 -14 c 0,9,10
 124 -14 124 -14 44 55 c 1,11,12
 54 102 54 102 97 137 c 1,13,14
 161 87 161 87 233 87 c 0,15,16
 287 87 287 87 320 118.5 c 128,-1,17
 353 150 353 150 353 203 c 0,18,19
 353 256 353 256 325 284 c 128,-1,20
 297 312 297 312 258 312 c 0,21,22
 219 312 219 312 187 297 c 1,23,24
 154 313 154 313 139 363 c 1,25,-1
 252 483 l 2,26,27
 292 526 292 526 320 547 c 1,28,-1
 316 553 l 1,29,30
 274 542 274 542 208 542 c 2,31,-1
 74 542 l 1,32,33
 66 564 66 564 66 593 c 0,34,35
 66 622 66 622 77 648 c 1,36,-1
 431 648 l 1,37,38
 456 600 456 600 456 572 c 128,-1,39
 456 544 456 544 432 519 c 2,0,-1
EndSplineSet
EndChar

StartChar: four
Encoding: 52 52 62
Width: 530
Flags: HMW
HStem: 128 103<59 284> 635 20G<217 217>
VStem: 284 120<0 69 0 79 282 292 292 319 319 349>
LayerCount: 2
Fore
SplineSet
403 129 m 1,0,-1
 404 69 l 1,1,-1
 404 0 l 1,2,3
 378 -5 378 -5 343.5 -5 c 128,-1,4
 309 -5 309 -5 284 0 c 1,5,-1
 284 69 l 1,6,-1
 285 129 l 1,7,-1
 223 128 l 1,8,-1
 59 128 l 1,9,10
 32 171 32 171 32 198 c 128,-1,11
 32 225 32 225 51 267 c 2,12,-1
 217 655 l 1,13,14
 227.8 657 227.8 657 243.1 657 c 128,-1,15
 258.4 657 258.4 657 287.2 651 c 128,-1,16
 316 645 316 645 331 630 c 1,17,-1
 235 405 l 2,18,19
 183 282 183 282 150 230 c 1,20,-1
 152 226 l 1,21,22
 202 231 202 231 274 231 c 2,23,-1
 284 231 l 1,24,-1
 284 319 l 2,25,26
 284 364 284 364 306 390 c 128,-1,27
 328 416 328 416 368 416 c 2,28,-1
 399 416 l 1,29,-1
 404 411 l 1,30,-1
 404 292 l 1,31,-1
 403 231 l 1,32,-1
 454 232 l 1,33,-1
 496 232 l 1,34,35
 500 212 500 212 500 185.5 c 128,-1,36
 500 159 500 159 492 129 c 1,37,-1
 403 129 l 1,0,-1
EndSplineSet
EndChar

StartChar: five
Encoding: 53 53 63
Width: 530
Flags: HMW
HStem: -14 101<206.5 263 206.5 300> 335 97<256.5 264> 543 105<202 229 202 202 229 398>
VStem: 80 122 350 128<172.5 260.5>
LayerCount: 2
Fore
SplineSet
444 648 m 1,0,1
 452 626 452 626 452 597 c 0,2,3
 452 543 452 543 398 543 c 2,4,-1
 202 543 l 1,5,-1
 202 503 l 1,6,-1
 198 441 l 1,7,-1
 195 419 l 1,8,9
 232 432 232 432 270 432 c 0,10,11
 366 432 366 432 422 375 c 128,-1,12
 478 318 478 318 478 222 c 0,13,14
 478 108 478 108 408 47 c 128,-1,15
 338 -14 338 -14 231 -14 c 128,-1,16
 124 -14 124 -14 48 52 c 1,17,18
 52 72 52 72 67 96.5 c 128,-1,19
 82 121 82 121 100 134 c 1,20,21
 167 87 167 87 224.5 87 c 128,-1,22
 282 87 282 87 316 120.5 c 128,-1,23
 350 154 350 154 350 216 c 128,-1,24
 350 278 350 278 317 306.5 c 128,-1,25
 284 335 284 335 232 335 c 128,-1,26
 180 335 180 335 134 297 c 1,27,28
 117 300 117 300 99 312.5 c 128,-1,29
 81 325 81 325 72 339 c 1,30,-1
 88 641 l 1,31,-1
 95 648 l 1,32,-1
 444 648 l 1,0,1
EndSplineSet
EndChar

StartChar: six
Encoding: 54 54 64
Width: 530
Flags: HMW
HStem: -14 94<258 304 258 333> 332 102<281 302.5> 563 99<266.5 336.5>
VStem: 43 129<241.5 272 272 286 241.5 428> 366 124<170.5 254>
LayerCount: 2
Fore
SplineSet
428 49 m 128,-1,1
 366 -14 366 -14 267 -14 c 0,2,3
 148.227272727 -14 148.227272727 -14 91.5 82 c 0,4,5
 60.0089552239 135.292537313 60.0089552239 135.292537313 51.5044776119 196.646268657 c 128,-1,6
 43 258 43 258 43 324 c 0,7,8
 43 482 43 482 111.5 572 c 128,-1,9
 180 662 180 662 307 662 c 0,10,11
 396 662 396 662 459 629 c 1,12,13
 454 571 454 571 416 542 c 1,14,15
 368 563 368 563 316 563 c 0,16,17
 245 563 245 563 210 514.5 c 128,-1,18
 175 466 175 466 172 383 c 1,19,20
 233 434 233 434 313 434 c 128,-1,21
 393 434 393 434 441.5 380 c 128,-1,22
 490 326 490 326 490 219 c 128,-1,0
 490 112 490 112 428 49 c 128,-1,1
276 332 m 0,23,24
 220 332 220 332 172 286 c 1,25,-1
 172 272 l 2,26,27
 172 160 172 160 208 113 c 0,28,29
 234 80 234 80 276 80 c 128,-1,30
 318 80 318 80 342 115 c 128,-1,31
 366 150 366 150 366 208 c 0,32,33
 366 332 366 332 276 332 c 0,23,24
EndSplineSet
EndChar

StartChar: seven
Encoding: 55 55 65
Width: 530
Flags: HMW
HStem: 542 106<65 221 60 467> 553 95<368 368>
VStem: 146 126
LayerCount: 2
Fore
SplineSet
65 648 m 1,0,-1
 467 648 l 1,1,2
 489 602 489 602 489 575 c 0,3,4
 489 548 489 548 471 522 c 2,5,-1
 435 472 l 1,6,7
 364 369 364 369 325 267.5 c 128,-1,8
 286 166 286 166 274 40 c 1,9,-1
 271 0 l 1,10,11
 250 -5 250 -5 209 -5 c 0,12,13
 168 -5 168 -5 144 0 c 1,14,-1
 148 44 l 2,15,16
 169 276 169 276 302 461 c 1,17,-1
 313 478 l 1,18,19
 343 520 343 520 373 548 c 1,20,-1
 368 553 l 1,21,22
 321 542 321 542 221 542 c 2,23,-1
 60 542 l 1,24,25
 54 562 54 562 54 591 c 0,26,27
 54 620 54 620 65 648 c 1,0,-1
EndSplineSet
EndChar

StartChar: eight
Encoding: 56 56 66
Width: 530
Flags: HMW
HStem: -14 88<234.5 294 234.5 323> 572 90<239 290>
VStem: 37 125<142 195 142 202> 54 122<464.5 513.5 464.5 538.5> 354 121<466.5 512.5> 366 127<171 201>
LayerCount: 2
Fore
SplineSet
37 164 m 0,0,1
 37 218 37 218 68.5 262.5 c 128,-1,2
 100 307 100 307 150 335 c 1,3,4
 54 391 54 391 54 489 c 0,5,6
 54 563 54 563 114 612.5 c 128,-1,7
 174 662 174 662 266.5 662 c 0,8,9
 359 662 359 662 417 614.5 c 128,-1,10
 475 567 475 567 475 492 c 0,11,12
 475 446 475 446 448.5 408.5 c 128,-1,13
 422 371 422 371 379 349 c 1,14,15
 493 285 493 285 493 171 c 1,16,17
 492 86 492 86 425 36 c 128,-1,18
 358 -14 358 -14 258 -14 c 0,19,20
 158 -14 158 -14 97.5 33.5 c 128,-1,21
 37 81 37 81 37 164 c 0,0,1
236 297 m 1,22,-1
 235 297 l 1,23,24
 162 249 162 249 162 172 c 0,25,26
 162 128 162 128 190.5 101 c 128,-1,27
 219 74 219 74 264 74 c 128,-1,28
 309 74 309 74 337.5 101.5 c 128,-1,29
 366 129 366 129 366 171.5 c 0,30,31
 366 214 366 214 336 243.5 c 128,-1,32
 306 273 306 273 257 289 c 1,33,-1
 236 297 l 1,22,-1
176 489 m 0,34,35
 176 422 176 422 280 390 c 1,36,-1
 292 385 l 1,37,38
 354 424 354 424 354 487 c 0,39,40
 354 525 354 525 328.5 548.5 c 128,-1,41
 303 572 303 572 264.5 572 c 0,42,43
 226 572 226 572 201 548.5 c 128,-1,44
 176 525 176 525 176 489 c 0,34,35
EndSplineSet
EndChar

StartChar: nine
Encoding: 57 57 67
Width: 530
Flags: HMW
HStem: -14 99<193.5 263 193.5 308.5> 214 102<227.5 248.5> 568 94<226 272>
VStem: 40 124<394 477.5 394 503> 358 129<361 376 376 406.5>
LayerCount: 2
Fore
SplineSet
102 599 m 128,-1,1
 164 662 164 662 263 662 c 0,2,3
 381.772727273 662 381.772727273 662 438.5 566 c 0,4,5
 469.991044776 512.707462687 469.991044776 512.707462687 478.495522388 451.353731343 c 128,-1,6
 487 390 487 390 487 324 c 0,7,8
 487 166 487 166 418.5 76 c 128,-1,9
 350 -14 350 -14 223 -14 c 0,10,11
 134 -14 134 -14 71 19 c 1,12,13
 76 77 76 77 114 106 c 1,14,15
 162 85 162 85 214 85 c 0,16,17
 350 85 350 85 357 265 c 1,18,19
 298 214 298 214 217.5 214 c 128,-1,20
 137 214 137 214 88.5 268 c 128,-1,21
 40 322 40 322 40 429 c 128,-1,0
 40 536 40 536 102 599 c 128,-1,1
254 316 m 0,22,23
 310 316 310 316 358 361 c 1,24,-1
 358 376 l 2,25,26
 358 488 358 488 322 535 c 0,27,28
 296 568 296 568 254 568 c 128,-1,29
 212 568 212 568 188 533 c 128,-1,30
 164 498 164 498 164 440 c 0,31,32
 164 316 164 316 254 316 c 0,22,23
EndSplineSet
EndChar

StartChar: period
Encoding: 46 46 68
Width: 272
Flags: HMW
HStem: 6 108<68 68 204 204>
VStem: 58 146
LayerCount: 2
Fore
SplineSet
68 6 m 1,0,1
 58 26 58 26 58 59.5 c 128,-1,2
 58 93 58 93 68 114 c 1,3,4
 95 129 95 129 137 129 c 128,-1,5
 179 129 179 129 204 114 c 1,6,7
 214 93 214 93 214 59.5 c 128,-1,8
 214 26 214 26 204 6 c 1,9,10
 182 -9 182 -9 137 -9 c 128,-1,11
 92 -9 92 -9 68 6 c 1,0,1
EndSplineSet
EndChar

StartChar: periodcentered
Encoding: 183 183 69
Width: 314
Flags: HMW
HStem: 231 108<93 93 221 221>
VStem: 84 137
LayerCount: 2
Fore
SplineSet
93 231 m 1,0,1
 84 249 84 249 84 284.5 c 128,-1,2
 84 320 84 320 93 339 c 1,3,4
 118 354 118 354 158 354 c 128,-1,5
 198 354 198 354 221 339 c 1,6,7
 230 317 230 317 230 284.5 c 128,-1,8
 230 252 230 252 221 231 c 1,9,10
 200 216 200 216 158 216 c 128,-1,11
 116 216 116 216 93 231 c 1,0,1
EndSplineSet
EndChar

StartChar: bullet
Encoding: 8226 8226 70
Width: 453
Flags: HMW
HStem: 179 183<120 120 335 335>
VStem: 104 231
LayerCount: 2
Fore
SplineSet
120 179 m 1,0,1
 104 214 104 214 104 269 c 128,-1,2
 104 324 104 324 120 362 c 1,3,4
 162 387 162 387 228.5 387 c 128,-1,5
 295 387 295 387 335 362 c 1,6,7
 351 324 351 324 351 269 c 128,-1,8
 351 214 351 214 335 179 c 1,9,10
 300 154 300 154 228.5 154 c 128,-1,11
 157 154 157 154 120 179 c 1,0,1
EndSplineSet
EndChar

StartChar: comma
Encoding: 44 44 71
Width: 279
Flags: HMW
HStem: -8 121
VStem: 74 146
LayerCount: 2
Fore
SplineSet
208 113 m 1,0,1
 220 81 220 81 220 42 c 0,2,3
 220 -27 220 -27 178.5 -85.5 c 128,-1,4
 137 -144 137 -144 60 -169 c 1,5,6
 44 -161 44 -161 36.3095238095 -145.619047619 c 0,7,8
 28.619047619 -130.238095238 28.619047619 -130.238095238 28.619047619 -121.333333333 c 0,9,10
 28.619047619 -112.428571429 28.619047619 -112.428571429 29 -109 c 1,11,12
 65 -94 65 -94 88.5 -67.5 c 128,-1,13
 112 -41 112 -41 116 -8 c 1,14,15
 89 -4 89 -4 74 6 c 1,16,17
 64 28 64 28 64 62 c 0,18,19
 64 96 64 96 74 113 c 1,20,21
 102 128 102 128 143.5 128 c 0,22,23
 185 128 185 128 208 113 c 1,0,1
EndSplineSet
EndChar

StartChar: colon
Encoding: 58 58 72
Width: 279
Flags: HMW
HStem: 6 108<71 71 207 207> 327 108<71 71 207 207>
VStem: 61 146
LayerCount: 2
Fore
SplineSet
71 6 m 1,0,1
 61 26 61 26 61 59.5 c 128,-1,2
 61 93 61 93 71 114 c 1,3,4
 98 129 98 129 140 129 c 128,-1,5
 182 129 182 129 207 114 c 1,6,7
 217 93 217 93 217 59.5 c 128,-1,8
 217 26 217 26 207 6 c 1,9,10
 184 -9 184 -9 139.5 -9 c 128,-1,11
 95 -9 95 -9 71 6 c 1,0,1
71 327 m 1,12,13
 61 347 61 347 61 380.5 c 128,-1,14
 61 414 61 414 71 435 c 1,15,16
 98 450 98 450 140 450 c 128,-1,17
 182 450 182 450 207 435 c 1,18,19
 217 414 217 414 217 380.5 c 128,-1,20
 217 347 217 347 207 327 c 1,21,22
 184 312 184 312 139.5 312 c 128,-1,23
 95 312 95 312 71 327 c 1,12,13
EndSplineSet
EndChar

StartChar: semicolon
Encoding: 59 59 73
Width: 283
Flags: HMW
HStem: -8 121 327 108<73 73 209 209>
VStem: 63 146 73 146
LayerCount: 2
Fore
SplineSet
207 113 m 1,0,1
 219 81 219 81 219 42 c 0,2,3
 219 -27 219 -27 177.5 -85.5 c 128,-1,4
 136 -144 136 -144 59 -169 c 1,5,6
 43 -161 43 -161 35.3095238095 -145.619047619 c 128,-1,7
 27.619047619 -130.238095238 27.619047619 -130.238095238 27.619047619 -121.333333333 c 128,-1,8
 27.619047619 -112.428571429 27.619047619 -112.428571429 28 -109 c 1,9,10
 64 -94 64 -94 87.5 -67.5 c 128,-1,11
 111 -41 111 -41 115 -8 c 1,12,13
 88 -4 88 -4 73 6 c 1,14,15
 63 28 63 28 63 62 c 128,-1,16
 63 96 63 96 73 113 c 1,17,18
 101 128 101 128 142.5 128 c 128,-1,19
 184 128 184 128 207 113 c 1,0,1
73 327 m 1,20,21
 63 347 63 347 63 380.5 c 128,-1,22
 63 414 63 414 73 435 c 1,23,24
 100 450 100 450 142 450 c 128,-1,25
 184 450 184 450 209 435 c 1,26,27
 219 414 219 414 219 380.5 c 128,-1,28
 219 347 219 347 209 327 c 1,29,30
 186 312 186 312 141.5 312 c 128,-1,31
 97 312 97 312 73 327 c 1,20,21
EndSplineSet
EndChar

StartChar: exclam
Encoding: 33 33 74
Width: 296
Flags: HMW
HStem: 4 117 682 9<186.5 221>
VStem: 82 126<4 4 107 107>
LayerCount: 2
Fore
SplineSet
97 200 m 1,0,-1
 82 656 l 1,1,2
 131 691 131 691 214 691 c 1,3,-1
 221 682 l 1,4,-1
 193 200 l 1,5,6
 174 194 174 194 145 194 c 0,7,8
 116 194 116 194 97 200 c 1,0,-1
145 121 m 128,-1,10
 185 121 185 121 208 107 c 1,11,12
 218 93 218 93 218 56.5 c 0,13,14
 218 20 218 20 208 4 c 1,15,16
 185 -10 185 -10 145 -10 c 128,-1,17
 105 -10 105 -10 82 4 c 1,18,19
 72 22 72 22 72 56 c 0,20,21
 72 90 72 90 82 107 c 1,22,9
 105 121 105 121 145 121 c 128,-1,10
EndSplineSet
EndChar

StartChar: exclamdown
Encoding: 161 161 75
Width: 296
Flags: HMW
HStem: -196 10<75 109.5> 374 117
VStem: 87 127<388 388 491 491>
LayerCount: 2
Fore
SplineSet
198 295 m 1,0,-1
 214 -161 l 1,1,2
 165 -196 165 -196 82 -196 c 1,3,-1
 75 -186 l 1,4,-1
 103 295 l 1,5,6
 122 301 122 301 151 301 c 128,-1,7
 180 301 180 301 198 295 c 1,0,-1
214 388 m 1,8,9
 189 374 189 374 150.5 374 c 128,-1,10
 112 374 112 374 87 388 c 1,11,12
 77 406 77 406 77 440 c 128,-1,13
 77 474 77 474 87 491 c 1,14,15
 112 505 112 505 150.5 505 c 128,-1,16
 189 505 189 505 214 491 c 1,17,18
 223 476 223 476 223 440 c 128,-1,19
 223 404 223 404 214 388 c 1,8,9
EndSplineSet
EndChar

StartChar: question
Encoding: 63 63 76
Width: 405
Flags: HMW
HStem: 2 117 589 108<167.5 205>
VStem: 87 127<2 2 105 105> 99 102 267 131<482.5 533>
LayerCount: 2
Fore
SplineSet
7 643 m 1,0,1
 103 697 103 697 198.5 697 c 128,-1,2
 294 697 294 697 346 649 c 128,-1,3
 398 601 398 601 398 522 c 0,4,5
 398 397 398 397 267 326 c 1,6,-1
 205 293 l 1,7,-1
 197 201 l 1,8,9
 176 194 176 194 149.5 194 c 128,-1,10
 123 194 123 194 102 201 c 1,11,-1
 96 350 l 1,12,-1
 106 363 l 1,13,-1
 157 387 l 1,14,15
 267 442 267 442 267 509 c 0,16,17
 267 546 267 546 243 567.5 c 128,-1,18
 219 589 219 589 169.5 589 c 128,-1,19
 120 589 120 589 52 553 c 1,20,21
 35 567 35 567 21.5 593 c 128,-1,22
 8 619 8 619 7 643 c 1,0,1
87 105 m 1,23,24
 112 119 112 119 151.5 119 c 128,-1,25
 191 119 191 119 214 105 c 1,26,27
 224 88 224 88 224 54 c 128,-1,28
 224 20 224 20 214 2 c 1,29,30
 188 -12 188 -12 151.5 -12 c 128,-1,31
 115 -12 115 -12 87 2 c 1,32,33
 78 19 78 19 78 54.5 c 128,-1,34
 78 90 78 90 87 105 c 1,23,24
EndSplineSet
EndChar

StartChar: questiondown
Encoding: 191 191 77
Width: 405
Flags: HMW
HStem: -203 107<205 242.5> 374 117
VStem: 12 131<-39 11.5 -39 19.5> 196 127<388 388 491 491> 209 102
LayerCount: 2
Fore
SplineSet
403 -150 m 1,0,1
 309 -203 309 -203 212.5 -203 c 128,-1,2
 116 -203 116 -203 64 -155 c 128,-1,3
 12 -107 12 -107 12 -28 c 0,4,5
 12 96 12 96 143 167 c 2,6,-1
 205 201 l 1,7,-1
 213 293 l 1,8,9
 231 299 231 299 260.5 299 c 128,-1,10
 290 299 290 299 308 293 c 1,11,-1
 314 144 l 1,12,-1
 304 131 l 1,13,-1
 253 106 l 2,14,15
 143 51 143 51 143 -15 c 0,16,17
 143 -52 143 -52 167 -74 c 128,-1,18
 191 -96 191 -96 239.5 -96 c 128,-1,19
 288 -96 288 -96 358 -59 c 1,20,21
 375 -73 375 -73 388.5 -99.5 c 128,-1,22
 402 -126 402 -126 403 -150 c 1,0,1
323 388 m 1,23,24
 298 374 298 374 258.5 374 c 128,-1,25
 219 374 219 374 196 388 c 1,26,27
 186 406 186 406 186 440 c 128,-1,28
 186 474 186 474 196 491 c 1,29,30
 219 505 219 505 258.5 505 c 128,-1,31
 298 505 298 505 323 491 c 1,32,33
 332 476 332 476 332 440 c 128,-1,34
 332 404 332 404 323 388 c 1,23,24
EndSplineSet
EndChar

StartChar: quoteleft
Encoding: 8216 8216 78
Width: 244
Flags: HMW
HStem: 513 119
VStem: 41 145
LayerCount: 2
Fore
SplineSet
53 513 m 1,0,1
 41 541 41 541 41 584 c 0,2,3
 41 650 41 650 79 701.5 c 128,-1,4
 117 753 117 753 189 776 c 1,5,6
 204 769 204 769 211.69047619 753.619047619 c 0,7,8
 219.380952381 738.238095238 219.380952381 738.238095238 219.380952381 729.333333333 c 0,9,10
 219.380952381 720.428571429 219.380952381 720.428571429 219 717 c 1,11,12
 190 705 190 705 167 683 c 128,-1,13
 144 661 144 661 143 632 c 1,14,15
 177 627 177 627 186 620 c 1,16,17
 196 602 196 602 196 566 c 0,18,19
 196 530 196 530 186 513 c 1,20,21
 158 497 158 497 117 497 c 0,22,23
 76 497 76 497 53 513 c 1,0,1
EndSplineSet
EndChar

StartChar: quoteright
Encoding: 8217 8217 79
Width: 244
Flags: HMW
HStem: 535 20G 640 120
VStem: 57 146
LayerCount: 2
Fore
SplineSet
191 760 m 1,0,1
 203 728 203 728 203 689 c 0,2,3
 203 623 203 623 165 571.5 c 128,-1,4
 127 520 127 520 55 497 c 1,5,6
 39 504 39 504 31.8 518.85 c 0,7,8
 24.6 533.7 24.6 533.7 24.6 542.55 c 0,9,10
 24.6 551.4 24.6 551.4 25 555 c 1,11,12
 98 586 98 586 101 640 c 1,13,14
 65 647 65 647 57 653 c 1,15,16
 47 675 47 675 47 709 c 0,17,18
 47 743 47 743 57 760 c 1,19,20
 85 775 85 775 126.5 775 c 0,21,22
 168 775 168 775 191 760 c 1,0,1
EndSplineSet
EndChar

StartChar: quotedblleft
Encoding: 8220 8220 80
Width: 454
Flags: HMW
HStem: 513 119
VStem: 39 145 249 145
LayerCount: 2
Fore
SplineSet
51 513 m 1,0,1
 39 541 39 541 39 584 c 0,2,3
 39 650 39 650 77 701.5 c 128,-1,4
 115 753 115 753 187 776 c 1,5,6
 202 769 202 769 209.69047619 753.619047619 c 0,7,8
 217.380952381 738.238095238 217.380952381 738.238095238 217.380952381 729.333333333 c 0,9,10
 217.380952381 720.428571429 217.380952381 720.428571429 217 717 c 1,11,12
 188 705 188 705 165 683 c 128,-1,13
 142 661 142 661 141 632 c 1,14,15
 175 627 175 627 184 620 c 1,16,17
 194 602 194 602 194 566 c 0,18,19
 194 530 194 530 184 513 c 1,20,21
 156 497 156 497 115 497 c 0,22,23
 74 497 74 497 51 513 c 1,0,1
261 513 m 1,24,25
 249 541 249 541 249 584 c 0,26,27
 249 650 249 650 287 701.5 c 128,-1,28
 325 753 325 753 397 776 c 1,29,30
 412 769 412 769 419.69047619 753.619047619 c 0,31,32
 427.380952381 738.238095238 427.380952381 738.238095238 427.380952381 729.333333333 c 0,33,34
 427.380952381 720.428571429 427.380952381 720.428571429 427 717 c 1,35,36
 398 705 398 705 375 683 c 128,-1,37
 352 661 352 661 351 632 c 1,38,39
 385 627 385 627 394 620 c 1,40,41
 404 602 404 602 404 566 c 0,42,43
 404 530 404 530 394 513 c 1,44,45
 366 497 366 497 325 497 c 0,46,47
 284 497 284 497 261 513 c 1,24,25
EndSplineSet
EndChar

StartChar: quotedblright
Encoding: 8221 8221 81
Width: 454
Flags: HMW
HStem: 535 20G 640 120
VStem: 60 146 270 146
LayerCount: 2
Fore
SplineSet
194 760 m 1,0,1
 206 728 206 728 206 689 c 0,2,3
 206 623 206 623 168 571.5 c 128,-1,4
 130 520 130 520 58 497 c 1,5,6
 42 504 42 504 34.8 518.85 c 0,7,8
 27.6 533.7 27.6 533.7 27.6 542.55 c 0,9,10
 27.6 551.4 27.6 551.4 28 555 c 1,11,12
 101 586 101 586 104 640 c 1,13,14
 68 647 68 647 60 653 c 1,15,16
 50 675 50 675 50 709 c 0,17,18
 50 743 50 743 60 760 c 1,19,20
 88 775 88 775 129.5 775 c 0,21,22
 171 775 171 775 194 760 c 1,0,1
404 760 m 1,23,24
 416 728 416 728 416 689 c 0,25,26
 416 623 416 623 378 571.5 c 128,-1,27
 340 520 340 520 268 497 c 1,28,29
 252 504 252 504 244.8 518.85 c 0,30,31
 237.6 533.7 237.6 533.7 237.6 542.55 c 0,32,33
 237.6 551.4 237.6 551.4 238 555 c 1,34,35
 311 586 311 586 314 640 c 1,36,37
 278 647 278 647 270 653 c 1,38,39
 260 675 260 675 260 709 c 0,40,41
 260 743 260 743 270 760 c 1,42,43
 298 775 298 775 339.5 775 c 0,44,45
 381 775 381 775 404 760 c 1,23,24
EndSplineSet
EndChar

StartChar: quotesingle
Encoding: 39 39 82
Width: 223
Flags: HMW
HStem: 495 267 495 281
VStem: 42 130<699.5 718>
LayerCount: 2
Fore
SplineSet
42 717 m 128,-1,1
 42 732 42 732 49 762 c 1,2,3
 74 776 74 776 108 776 c 128,-1,4
 142 776 142 776 165 762 c 1,5,6
 172 732 172 732 172 716.5 c 128,-1,7
 172 701 172 701 166.5 671 c 0,8,9
 145.920529801 558.748344371 145.920529801 558.748344371 139 502 c 1,10,11
 128 495 128 495 107.5 495 c 128,-1,12
 87 495 87 495 75 502 c 1,13,14
 65.2763819095 583.67839196 65.2763819095 583.67839196 53.6381909548 642.83919598 c 128,-1,0
 42 702 42 702 42 717 c 128,-1,1
EndSplineSet
EndChar

StartChar: quotesinglbase
Encoding: 8218 8218 83
Width: 244
Flags: HMW
HStem: -9 120
VStem: 59 145
LayerCount: 2
Fore
SplineSet
193 111 m 1,0,1
 204 82 204 82 204 40 c 0,2,3
 204 -27 204 -27 166.5 -78.5 c 128,-1,4
 129 -130 129 -130 56 -153 c 1,5,6
 41 -145 41 -145 33.3095238095 -130.071428571 c 0,7,8
 25.619047619 -115.142857143 25.619047619 -115.142857143 25.619047619 -106.285714286 c 0,9,10
 25.619047619 -97.4285714286 25.619047619 -97.4285714286 26 -94 c 1,11,12
 55 -82 55 -82 78.5 -60 c 128,-1,13
 102 -38 102 -38 103 -9 c 1,14,15
 70 -5 70 -5 59 4 c 1,16,17
 49 21 49 21 49 57 c 0,18,19
 49 93 49 93 59 111 c 1,20,21
 85 126 85 126 127.5 126 c 0,22,23
 170 126 170 126 193 111 c 1,0,1
EndSplineSet
EndChar

StartChar: quotedbl
Encoding: 34 34 84
Width: 413
Flags: HMW
HStem: 495 267 495 281
VStem: 44 130<699.5 718> 239 130<699.5 718>
LayerCount: 2
Fore
SplineSet
239 717 m 128,-1,1
 239 732 239 732 246 762 c 1,2,3
 271 776 271 776 305 776 c 128,-1,4
 339 776 339 776 362 762 c 1,5,6
 369 732 369 732 369 716.5 c 128,-1,7
 369 701 369 701 363.5 671 c 0,8,9
 342.920529801 558.748344371 342.920529801 558.748344371 336 502 c 1,10,11
 325 495 325 495 304.5 495 c 128,-1,12
 284 495 284 495 272 502 c 1,13,14
 262.27638191 583.67839196 262.27638191 583.67839196 250.638190955 642.83919598 c 128,-1,0
 239 702 239 702 239 717 c 128,-1,1
44 717 m 128,-1,16
 44 732 44 732 51 762 c 1,17,18
 76 776 76 776 110 776 c 128,-1,19
 144 776 144 776 167 762 c 1,20,21
 174 732 174 732 174 716.5 c 128,-1,22
 174 701 174 701 168.5 671 c 0,23,24
 147.920529801 558.748344371 147.920529801 558.748344371 141 502 c 1,25,26
 130 495 130 495 109.5 495 c 128,-1,27
 89 495 89 495 77 502 c 1,28,29
 67.2763819095 583.67839196 67.2763819095 583.67839196 55.6381909548 642.83919598 c 128,-1,15
 44 702 44 702 44 717 c 128,-1,16
EndSplineSet
EndChar

StartChar: quotedblbase
Encoding: 8222 8222 85
Width: 454
Flags: HMW
HStem: -9 120
VStem: 59 145 269 145
LayerCount: 2
Fore
SplineSet
193 111 m 1,0,1
 204 82 204 82 204 40 c 0,2,3
 204 -27 204 -27 166.5 -78.5 c 128,-1,4
 129 -130 129 -130 56 -153 c 1,5,6
 41 -145 41 -145 33.3095238095 -130.071428571 c 0,7,8
 25.619047619 -115.142857143 25.619047619 -115.142857143 25.619047619 -106.285714286 c 0,9,10
 25.619047619 -97.4285714286 25.619047619 -97.4285714286 26 -94 c 1,11,12
 55 -82 55 -82 78.5 -60 c 128,-1,13
 102 -38 102 -38 103 -9 c 1,14,15
 70 -5 70 -5 59 4 c 1,16,17
 49 21 49 21 49 57 c 0,18,19
 49 93 49 93 59 111 c 1,20,21
 85 126 85 126 127.5 126 c 0,22,23
 170 126 170 126 193 111 c 1,0,1
403 111 m 1,24,25
 414 82 414 82 414 40 c 0,26,27
 414 -27 414 -27 376.5 -78.5 c 128,-1,28
 339 -130 339 -130 266 -153 c 1,29,30
 251 -145 251 -145 243.30952381 -130.071428571 c 0,31,32
 235.619047619 -115.142857143 235.619047619 -115.142857143 235.619047619 -106.285714286 c 0,33,34
 235.619047619 -97.4285714286 235.619047619 -97.4285714286 236 -94 c 1,35,36
 265 -82 265 -82 288.5 -60 c 128,-1,37
 312 -38 312 -38 313 -9 c 1,38,39
 280 -5 280 -5 269 4 c 1,40,41
 259 21 259 21 259 57 c 0,42,43
 259 93 259 93 269 111 c 1,44,45
 295 126 295 126 337.5 126 c 0,46,47
 380 126 380 126 403 111 c 1,24,25
EndSplineSet
EndChar

StartChar: guilsinglleft
Encoding: 8249 8249 86
Width: 338
Flags: HMW
HStem: 32 447<232 235>
VStem: 29 275
LayerCount: 2
Fore
SplineSet
299 414 m 1,0,-1
 167 257 l 1,1,-1
 304 96 l 1,2,3
 298 77 298 77 277 57.5 c 128,-1,4
 256 38 256 38 235 32 c 1,5,-1
 35 218 l 1,6,7
 29 233 29 233 29 255 c 128,-1,8
 29 277 29 277 35 292 c 1,9,-1
 232 479 l 1,10,11
 253 473 253 473 273 453.5 c 128,-1,12
 293 434 293 434 299 414 c 1,0,-1
EndSplineSet
EndChar

StartChar: guilsinglright
Encoding: 8250 8250 87
Width: 338
Flags: HMW
HStem: 32 447<104 107>
VStem: 34 276
LayerCount: 2
Fore
SplineSet
39 97 m 1,0,-1
 171 254 l 1,1,-1
 34 415 l 1,2,3
 41 434 41 434 62 453.5 c 128,-1,4
 83 473 83 473 104 479 c 1,5,-1
 303 293 l 1,6,7
 310 278 310 278 310 256 c 128,-1,8
 310 234 310 234 303 219 c 1,9,-1
 107 32 l 1,10,11
 86 38 86 38 66 57.5 c 128,-1,12
 46 77 46 77 39 97 c 1,0,-1
EndSplineSet
EndChar

StartChar: guillemotleft
Encoding: 171 171 88
Width: 581
Flags: HMW
HStem: 32 447<232 235 232 478>
VStem: 29 275 272 275
LayerCount: 2
Fore
SplineSet
542 414 m 1,0,-1
 410 257 l 1,1,-1
 547 96 l 1,2,3
 541 77 541 77 520 57.5 c 128,-1,4
 499 38 499 38 478 32 c 1,5,-1
 278 218 l 1,6,7
 272 233 272 233 272 255 c 128,-1,8
 272 277 272 277 278 292 c 1,9,-1
 475 479 l 1,10,11
 496 473 496 473 516 453.5 c 128,-1,12
 536 434 536 434 542 414 c 1,0,-1
299 414 m 1,13,-1
 167 257 l 1,14,-1
 304 96 l 1,15,16
 298 77 298 77 277 57.5 c 128,-1,17
 256 38 256 38 235 32 c 1,18,-1
 35 218 l 1,19,20
 29 233 29 233 29 255 c 128,-1,21
 29 277 29 277 35 292 c 1,22,-1
 232 479 l 1,23,24
 253 473 253 473 273 453.5 c 128,-1,25
 293 434 293 434 299 414 c 1,13,-1
EndSplineSet
EndChar

StartChar: guillemotright
Encoding: 187 187 89
Width: 581
Flags: HMW
HStem: 32 447<104 107 104 350>
VStem: 34 276 277 276
LayerCount: 2
Fore
SplineSet
39 97 m 1,0,-1
 171 254 l 1,1,-1
 34 415 l 1,2,3
 41 434 41 434 62 453.5 c 128,-1,4
 83 473 83 473 104 479 c 1,5,-1
 303 293 l 1,6,7
 310 278 310 278 310 256 c 128,-1,8
 310 234 310 234 303 219 c 1,9,-1
 107 32 l 1,10,11
 86 38 86 38 66 57.5 c 128,-1,12
 46 77 46 77 39 97 c 1,0,-1
282 97 m 1,13,-1
 414 254 l 1,14,-1
 277 415 l 1,15,16
 284 434 284 434 305 453.5 c 128,-1,17
 326 473 326 473 347 479 c 1,18,-1
 546 293 l 1,19,20
 553 278 553 278 553 256 c 128,-1,21
 553 234 553 234 546 219 c 1,22,-1
 350 32 l 1,23,24
 329 38 329 38 309 57.5 c 128,-1,25
 289 77 289 77 282 97 c 1,13,-1
EndSplineSet
EndChar

StartChar: onesuperior
Encoding: 185 185 90
Width: 420
Flags: HMW
HStem: 332 90<80 180 282 364 80 180>
VStem: 180 102<422 552 552 560>
LayerCount: 2
Fore
SplineSet
49 625 m 1,0,1
 102 657 102 657 132.5 689 c 128,-1,2
 163 721 163 721 185 766 c 1,3,4
 210 772 210 772 231 772 c 0,5,6
 252 772 252 772 282 766 c 1,7,-1
 282 422 l 1,8,-1
 364 422 l 1,9,10
 370 401 370 401 370 377 c 128,-1,11
 370 353 370 353 364 332 c 1,12,-1
 80 332 l 1,13,14
 75 357 75 357 75 378 c 0,15,16
 75 399 75 399 80 422 c 1,17,-1
 180 422 l 1,18,-1
 180 552 l 2,19,20
 180 570 180 570 184 624 c 1,21,22
 156 588 156 588 96 560 c 1,23,24
 59 579 59 579 49 625 c 1,0,1
EndSplineSet
EndChar

StartChar: twosuperior
Encoding: 178 178 91
Width: 420
Flags: HMW
HStem: 330 93<253 298> 682 93<177 205>
VStem: 238 110<622.5 648>
LayerCount: 2
Fore
SplineSet
360 423 m 1,0,1
 360 403 360 403 358 379 c 1,2,3
 349 330 349 330 298 330 c 2,4,-1
 82 330 l 1,5,6
 49 373 49 373 49 393 c 0,7,8
 49 446 49 446 120 505 c 2,9,-1
 200 571 l 2,10,11
 238 602 238 602 238 635 c 0,12,13
 238 655 238 655 225 668.5 c 128,-1,14
 212 682 212 682 191.5 682 c 0,15,16
 171 682 171 682 155.5 667 c 128,-1,17
 140 652 140 652 133 629 c 1,18,19
 113 630 113 630 88 640.5 c 128,-1,20
 63 651 63 651 54 664 c 1,21,22
 66 711 66 711 105.5 743 c 128,-1,23
 145 775 145 775 206 775 c 0,24,25
 267 775 267 775 307.5 737 c 128,-1,26
 348 699 348 699 348 648 c 0,27,28
 348 597 348 597 327.5 564 c 128,-1,29
 307 531 307 531 266 500 c 2,30,-1
 210 457 l 2,31,32
 167 424 167 424 158 414 c 1,33,34
 211 423 211 423 253 423 c 2,35,-1
 360 423 l 1,0,1
EndSplineSet
EndChar

StartChar: threesuperior
Encoding: 179 179 92
Width: 420
Flags: HMW
HStem: 326 84<161 197 159 233.5> 533 63 681 87<70 142 68 318>
VStem: 247 108<452 489>
LayerCount: 2
Fore
SplineSet
317 664 m 2,0,-1
 264 615 l 2,1,2
 255 606 255 606 237 596 c 1,3,4
 288 594 288 594 321.5 558.5 c 128,-1,5
 355 523 355 523 355 462.5 c 0,6,7
 355 402 355 402 307 364 c 128,-1,8
 259 326 259 326 192 326 c 0,9,10
 102 326 102 326 46 372 c 1,11,12
 54 412 54 412 87 442 c 1,13,14
 135 410 135 410 171.5 410 c 0,15,16
 208 410 208 410 227.5 426.5 c 128,-1,17
 247 443 247 443 247 471 c 0,18,19
 247 499 247 499 231 516 c 128,-1,20
 215 533 215 533 191.5 533 c 0,21,22
 168 533 168 533 150 525 c 1,23,24
 137 530 137 530 124.5 547 c 128,-1,25
 112 564 112 564 109 580 c 1,26,-1
 182 650 l 2,27,28
 201 669 201 669 224 683 c 1,29,-1
 221 686 l 1,30,31
 191 681 191 681 142 681 c 2,32,-1
 68 681 l 1,33,34
 62 698 62 698 62 724 c 0,35,36
 62 750 62 750 70 768 c 1,37,-1
 318 768 l 1,38,39
 339 731 339 731 339 707.5 c 0,40,41
 339 684 339 684 317 664 c 2,0,-1
EndSplineSet
EndChar

StartChar: onequarter
Encoding: 188 188 93
Width: 988
Flags: HMW
HStem: -20 20G<280 280 280 400 834 849> 79 87<782.5 790 782.5 790 890 943> 249 90<62 162 264 346 62 162>
VStem: 162 102<339 469 469 477> 280 497 790 100<5 79 5 79 166 212 212 235>
LayerCount: 2
Fore
SplineSet
31 542 m 1,0,1
 84 574 84 574 114.5 606 c 128,-1,2
 145 638 145 638 167 683 c 1,3,4
 192 689 192 689 213 689 c 128,-1,5
 234 689 234 689 264 683 c 1,6,-1
 264 339 l 1,7,-1
 346 339 l 1,8,9
 352 318 352 318 352 294 c 128,-1,10
 352 270 352 270 346 249 c 1,11,-1
 62 249 l 1,12,13
 57 274 57 274 57 295 c 128,-1,14
 57 316 57 316 62 339 c 1,15,-1
 162 339 l 1,16,-1
 162 469 l 2,17,18
 162 487 162 487 166 541 c 1,19,20
 138 505 138 505 78 477 c 1,21,22
 41 496 41 496 31 542 c 1,0,1
280 0 m 1,23,-1
 657 683 l 1,24,25
 682 689 682 689 721 689 c 128,-1,26
 760 689 760 689 777 683 c 1,27,-1
 400 0 l 1,28,29
 375 -6 375 -6 336 -6 c 128,-1,30
 297 -6 297 -6 280 0 c 1,23,-1
790 79 m 1,31,-1
 744 78 l 1,32,-1
 630 78 l 1,33,34
 608 115 608 115 608 136 c 128,-1,35
 608 157 608 157 622 188 c 2,36,-1
 738 443 l 1,37,38
 743.882352941 443.470588235 743.882352941 443.470588235 756.911764706 443.470588235 c 128,-1,39
 769.941176471 443.470588235 769.941176471 443.470588235 795.970588235 437.735294118 c 128,-1,40
 822 432 822 432 837 420 c 1,41,-1
 771 276 l 1,42,43
 737 199 737 199 710 164 c 1,44,-1
 712 162 l 1,45,46
 747 166 747 166 790 166 c 1,47,-1
 790 212 l 2,48,49
 790 247 790 247 809 267 c 128,-1,50
 828 287 828 287 860 287 c 2,51,-1
 887 287 l 1,52,-1
 890 283 l 1,53,-1
 890 166 l 1,54,-1
 947 166 l 1,55,56
 951 151 951 151 951 128 c 128,-1,57
 951 105 951 105 943 79 c 1,58,-1
 890 79 l 1,59,-1
 890 5 l 1,60,61
 871 0 871 0 841 0 c 128,-1,62
 811 0 811 0 790 5 c 1,63,-1
 790 79 l 1,31,-1
EndSplineSet
EndChar

StartChar: onehalf
Encoding: 189 189 94
Width: 988
Flags: HMW
HStem: -20 20G<267 267 267 387> 3 93<835 880> 249 90<62 162 264 346 62 162> 355 93<759 787>
VStem: 162 102<339 469 469 477> 267 497 820 110<295.5 321>
LayerCount: 2
Fore
SplineSet
267 0 m 1,0,-1
 644 683 l 1,1,2
 669 689 669 689 708 689 c 128,-1,3
 747 689 747 689 764 683 c 1,4,-1
 387 0 l 1,5,6
 362 -6 362 -6 323 -6 c 128,-1,7
 284 -6 284 -6 267 0 c 1,0,-1
31 542 m 1,8,9
 84 574 84 574 114.5 606 c 128,-1,10
 145 638 145 638 167 683 c 1,11,12
 192 689 192 689 213 689 c 0,13,14
 234 689 234 689 264 683 c 1,15,-1
 264 339 l 1,16,-1
 346 339 l 1,17,18
 352 318 352 318 352 294 c 128,-1,19
 352 270 352 270 346 249 c 1,20,-1
 62 249 l 1,21,22
 57 274 57 274 57 295 c 0,23,24
 57 316 57 316 62 339 c 1,25,-1
 162 339 l 1,26,-1
 162 469 l 2,27,28
 162 487 162 487 166 541 c 1,29,30
 138 505 138 505 78 477 c 1,31,32
 41 496 41 496 31 542 c 1,8,9
942 96 m 1,33,34
 942 76 942 76 940 52 c 1,35,36
 931 3 931 3 880 3 c 2,37,-1
 664 3 l 1,38,39
 631 46 631 46 631 66 c 0,40,41
 631 119 631 119 702 178 c 2,42,-1
 782 244 l 2,43,44
 820 275 820 275 820 308 c 0,45,46
 820 328 820 328 807 341.5 c 128,-1,47
 794 355 794 355 773.5 355 c 0,48,49
 753 355 753 355 737.5 340 c 128,-1,50
 722 325 722 325 715 302 c 1,51,52
 695 303 695 303 670 313.5 c 128,-1,53
 645 324 645 324 636 337 c 1,54,55
 648 384 648 384 687.5 416 c 128,-1,56
 727 448 727 448 788 448 c 0,57,58
 849 448 849 448 889.5 410 c 128,-1,59
 930 372 930 372 930 321 c 0,60,61
 930 270 930 270 909.5 237 c 128,-1,62
 889 204 889 204 848 173 c 2,63,-1
 792 130 l 2,64,65
 749 97 749 97 740 87 c 1,66,67
 792 96 792 96 835 96 c 2,68,-1
 942 96 l 1,33,34
EndSplineSet
EndChar

StartChar: threequarters
Encoding: 190 190 95
Width: 988
Flags: HMW
HStem: -20 20G<260 260 260 380 824 839> 79 87<772.5 780 772.5 780 880 933> 243 84<162 198 160 234.5> 450 63 598 87<71 143 69 319>
VStem: 248 108<369 406> 260 497 780 100<5 79 5 79 166 212 212 235>
LayerCount: 2
Fore
SplineSet
260 0 m 1,0,-1
 637 683 l 1,1,2
 662 689 662 689 701 689 c 128,-1,3
 740 689 740 689 757 683 c 1,4,-1
 380 0 l 1,5,6
 355 -6 355 -6 316 -6 c 128,-1,7
 277 -6 277 -6 260 0 c 1,0,-1
318 581 m 2,8,-1
 265 532 l 2,9,10
 256 523 256 523 238 513 c 1,11,12
 289 511 289 511 322.5 475.5 c 128,-1,13
 356 440 356 440 356 379.5 c 128,-1,14
 356 319 356 319 308 281 c 128,-1,15
 260 243 260 243 193 243 c 0,16,17
 103 243 103 243 47 289 c 1,18,19
 55 329 55 329 88 359 c 1,20,21
 136 327 136 327 172.5 327 c 128,-1,22
 209 327 209 327 228.5 343.5 c 128,-1,23
 248 360 248 360 248 388 c 128,-1,24
 248 416 248 416 232 433 c 128,-1,25
 216 450 216 450 192.5 450 c 128,-1,26
 169 450 169 450 151 442 c 1,27,28
 138 447 138 447 125.5 464 c 128,-1,29
 113 481 113 481 110 497 c 1,30,-1
 183 567 l 2,31,32
 202 586 202 586 225 600 c 1,33,-1
 222 603 l 1,34,35
 192 598 192 598 143 598 c 2,36,-1
 69 598 l 1,37,38
 63 615 63 615 63 641 c 128,-1,39
 63 667 63 667 71 685 c 1,40,-1
 319 685 l 1,41,42
 340 648 340 648 340 624.5 c 128,-1,43
 340 601 340 601 318 581 c 2,8,-1
780 79 m 1,44,-1
 734 78 l 1,45,-1
 620 78 l 1,46,47
 598 115 598 115 598 136 c 128,-1,48
 598 157 598 157 612 188 c 2,49,-1
 728 443 l 1,50,51
 733.882352941 443.470588235 733.882352941 443.470588235 746.911764706 443.470588235 c 128,-1,52
 759.941176471 443.470588235 759.941176471 443.470588235 785.970588235 437.735294118 c 128,-1,53
 812 432 812 432 827 420 c 1,54,-1
 761 276 l 1,55,56
 727 199 727 199 700 164 c 1,57,-1
 702 162 l 1,58,59
 737 166 737 166 780 166 c 1,60,-1
 780 212 l 2,61,62
 780 247 780 247 799 267 c 128,-1,63
 818 287 818 287 850 287 c 2,64,-1
 877 287 l 1,65,-1
 880 283 l 1,66,-1
 880 166 l 1,67,-1
 937 166 l 1,68,69
 941 151 941 151 941 128 c 128,-1,70
 941 105 941 105 933 79 c 1,71,-1
 880 79 l 1,72,-1
 880 5 l 1,73,74
 861 0 861 0 831 0 c 128,-1,75
 801 0 801 0 780 5 c 1,76,-1
 780 79 l 1,44,-1
EndSplineSet
EndChar

StartChar: ordfeminine
Encoding: 170 170 96
Width: 437
Flags: HMW
HStem: 284 78<174.5 186> 467 69<183 204.5 151 211> 615 82<203.5 222>
VStem: 39 103<397 427.5 397 449> 262 107<395 404 404 406 406 464 464 464 533 559 559 562>
LayerCount: 2
Fore
SplineSet
395 343 m 1,0,1
 393 328 393 328 381 311.5 c 128,-1,2
 369 295 369 295 354 288 c 1,3,4
 304 292 304 292 279 332 c 1,5,6
 225 284 225 284 165 284 c 128,-1,7
 105 284 105 284 72 319 c 128,-1,8
 39 354 39 354 39 403 c 0,9,10
 39 469 39 469 82 502.5 c 128,-1,11
 125 536 125 536 195 536 c 0,12,13
 226 536 226 536 262 533 c 1,14,-1
 262 559 l 2,15,16
 262 587 262 587 246.5 601 c 128,-1,17
 231 615 231 615 207 615 c 0,18,19
 156 615 156 615 85 589 c 1,20,21
 59 617 59 617 57 660 c 1,22,23
 143 697 143 697 231 697 c 0,24,25
 292 697 292 697 330.5 663.5 c 128,-1,26
 369 630 369 630 369 562 c 2,27,-1
 369 406 l 2,28,29
 369 359 369 359 395 343 c 1,0,1
189 362 m 0,30,31
 224 362 224 362 262 395 c 1,32,-1
 262 464 l 1,33,34
 231 467 231 467 202.5 467 c 128,-1,35
 174 467 174 467 158 451.5 c 128,-1,36
 142 436 142 436 142 413 c 128,-1,37
 142 390 142 390 155 376 c 128,-1,38
 168 362 168 362 189 362 c 0,30,31
EndSplineSet
EndChar

StartChar: ordmasculine
Encoding: 186 186 97
Width: 429
Flags: HMW
HStem: 283 81<191 238.5> 616 81<191 238.5 191 242>
VStem: 38 105<459 522> 287 105<459 522 459 526>
LayerCount: 2
Fore
SplineSet
334 654 m 1,0,1
 392 593 392 593 392 489 c 128,-1,2
 392 385 392 385 334 327 c 1,3,4
 288 283 288 283 214 283 c 128,-1,5
 140 283 140 283 96 327 c 0,6,7
 38 385 38 385 38 489 c 128,-1,8
 38 593 38 593 96 654 c 1,9,10
 141 697 141 697 214.5 697 c 128,-1,11
 288 697 288 697 334 654 c 1,0,1
215 616 m 128,-1,13
 143 616 143 616 143 490 c 128,-1,14
 143 364 143 364 215 364 c 128,-1,15
 287 364 287 364 287 490 c 128,-1,12
 287 616 287 616 215 616 c 128,-1,13
EndSplineSet
EndChar

StartChar: degree
Encoding: 176 176 98
Width: 336
Flags: HMW
HStem: 368 81<149 186.5 149 212> 592 81<149 186.5>
VStem: 17 90<499 541.5 499 564.5> 229 91<499 541.5>
LayerCount: 2
Fore
SplineSet
60 411 m 128,-1,1
 17 454 17 454 17 520.5 c 128,-1,2
 17 587 17 587 60 630 c 128,-1,3
 103 673 103 673 168.5 673 c 128,-1,4
 234 673 234 673 277 630 c 128,-1,5
 320 587 320 587 320 520.5 c 128,-1,6
 320 454 320 454 277 411 c 128,-1,7
 234 368 234 368 168.5 368 c 128,-1,0
 103 368 103 368 60 411 c 128,-1,1
123.5 572.5 m 128,-1,9
 107 553 107 553 107 520.5 c 128,-1,10
 107 488 107 488 123.5 468.5 c 128,-1,11
 140 449 140 449 168 449 c 128,-1,12
 196 449 196 449 212.5 468.5 c 128,-1,13
 229 488 229 488 229 520 c 128,-1,14
 229 552 229 552 212.5 572 c 128,-1,15
 196 592 196 592 168 592 c 128,-1,8
 140 592 140 592 123.5 572.5 c 128,-1,9
EndSplineSet
EndChar

StartChar: less
Encoding: 60 60 99
Width: 530
Flags: HMW
HStem: 47 496<416 417>
VStem: 47 132
LayerCount: 2
Fore
SplineSet
53 343 m 1,0,-1
 417 543 l 1,1,2
 440 530 440 530 456 503 c 128,-1,3
 472 476 472 476 473 446 c 1,4,-1
 257 334 l 2,5,6
 215 313 215 313 179 299 c 1,7,-1
 179 292 l 1,8,9
 215 278 215 278 257 257 c 2,10,-1
 473 144 l 1,11,12
 471 114 471 114 454.5 86.5 c 128,-1,13
 438 59 438 59 416 47 c 1,14,-1
 53 247 l 1,15,16
 46 272 46 272 46 296 c 128,-1,17
 46 320 46 320 53 343 c 1,0,-1
EndSplineSet
EndChar

StartChar: greater
Encoding: 62 62 100
Width: 530
Flags: HMW
HStem: 48 496<113 114>
VStem: 351 132
LayerCount: 2
Fore
SplineSet
477 248 m 1,0,-1
 113 48 l 1,1,2
 90 62 90 62 74 88.5 c 128,-1,3
 58 115 58 115 57 145 c 1,4,-1
 273 257 l 2,5,6
 302 273 302 273 351 292 c 1,7,-1
 351 299 l 1,8,9
 315 313 315 313 273 334 c 2,10,-1
 57 447 l 1,11,12
 59 477 59 477 75.5 504.5 c 128,-1,13
 92 532 92 532 114 544 c 1,14,-1
 477 344 l 1,15,16
 484 319 484 319 484 295 c 128,-1,17
 484 271 484 271 477 248 c 1,0,-1
EndSplineSet
EndChar

StartChar: plus
Encoding: 43 43 101
Width: 530
Flags: HMW
HStem: 244 103<55 155 55 155 375 475> 491 20G<210 210 320 320>
VStem: 210 110<81 190 81 199 403 511>
LayerCount: 2
Fore
SplineSet
211 346 m 1,0,-1
 210 403 l 1,1,-1
 210 511 l 1,2,3
 233 516 233 516 265.5 516 c 128,-1,4
 298 516 298 516 320 511 c 1,5,-1
 320 403 l 1,6,7
 319 346 l 1,8,-1
 375 347 l 1,9,-1
 475 347 l 1,10,11
 480 324 480 324 480 294 c 128,-1,12
 480 264 480 264 475 244 c 1,13,-1
 375 244 l 1,14,-1
 319 245 l 1,15,-1
 320 190 l 1,16,-1
 320 81 l 1,17,18
 298 76 298 76 265 76 c 128,-1,19
 232 76 232 76 210 81 c 1,20,-1
 210 190 l 1,21,-1
 211 245 l 1,22,-1
 155 244 l 1,23,-1
 55 244 l 1,24,25
 50 264 50 264 50 295.5 c 128,-1,26
 50 327 50 327 55 347 c 1,27,-1
 155 347 l 1,28,-1
 211 346 l 1,0,-1
EndSplineSet
EndChar

StartChar: plusminus
Encoding: 177 177 102
Width: 530
Flags: HMW
HStem: 0 98<66 464 66 464> 305 95<66 157 66 157 373 464>
VStem: 212 107<162 249 162 258 458 543>
LayerCount: 2
Fore
SplineSet
213 399 m 1,0,-1
 212 458 l 1,1,-1
 212 543 l 1,2,3
 233 548 233 548 265.5 548 c 128,-1,4
 298 548 298 548 319 543 c 1,5,-1
 319 458 l 1,6,7
 318 399 l 1,8,-1
 373 400 l 1,9,-1
 464 400 l 1,10,11
 469 379 469 379 469 353.5 c 128,-1,12
 469 328 469 328 464 305 c 1,13,-1
 373 305 l 1,14,-1
 318 306 l 1,15,-1
 319 249 l 1,16,-1
 319 162 l 1,17,18
 296 158 296 158 265.5 158 c 128,-1,19
 235 158 235 158 212 162 c 1,20,-1
 212 249 l 1,21,-1
 213 306 l 1,22,-1
 157 305 l 1,23,-1
 66 305 l 1,24,25
 61 328 61 328 61 353.5 c 128,-1,26
 61 379 61 379 66 400 c 1,27,-1
 157 400 l 1,28,-1
 213 399 l 1,0,-1
464 0 m 1,29,-1
 66 0 l 1,30,31
 61 22 61 22 61 48 c 128,-1,32
 61 74 61 74 66 98 c 1,33,-1
 464 98 l 1,34,35
 469 74 469 74 469 48 c 128,-1,36
 469 22 469 22 464 0 c 1,29,-1
EndSplineSet
EndChar

StartChar: hyphen
Encoding: 45 45 103
Width: 360
Flags: HMW
HStem: 216 103<50 311 50 311>
VStem: 50 261<216 216 216 319>
LayerCount: 2
Fore
SplineSet
311 216 m 1,0,-1
 50 216 l 1,1,2
 44 236 44 236 44 267.5 c 0,3,4
 44 299 44 299 50 319 c 1,5,-1
 311 319 l 1,6,7
 316 298 316 298 316 267.5 c 0,8,9
 316 237 316 237 311 216 c 1,0,-1
EndSplineSet
EndChar

StartChar: equal
Encoding: 61 61 104
Width: 530
Flags: HMW
HStem: 142 103<55 475 55 475> 349 103<55 475 55 475>
VStem: 50 430<186.5 200 393 407>
LayerCount: 2
Fore
SplineSet
475 142 m 1,0,-1
 55 142 l 1,1,2
 50 163 50 163 50 193.5 c 0,3,4
 50 224 50 224 55 245 c 1,5,-1
 475 245 l 1,6,7
 480 224 480 224 480 193.5 c 0,8,9
 480 163 480 163 475 142 c 1,0,-1
475 349 m 1,10,-1
 55 349 l 1,11,12
 50 369 50 369 50 400 c 128,-1,13
 50 431 50 431 55 452 c 1,14,-1
 475 452 l 1,15,16
 480 431 480 431 480 400 c 128,-1,17
 480 369 480 369 475 349 c 1,10,-1
EndSplineSet
EndChar

StartChar: multiply
Encoding: 215 215 105
Width: 530
Flags: HMW
HStem: 474 20G<388 388> 475 20G<141 141>
VStem: 66 397<172 172 172 420>
LayerCount: 2
Fore
SplineSet
264 222 m 1,0,-1
 141 97 l 1,1,2
 116 109 116 109 95.5 129.5 c 128,-1,3
 75 150 75 150 66 172 c 1,4,-1
 191 295 l 1,5,-1
 156 331 l 1,6,-1
 66 420 l 1,7,8
 77 446 77 446 97 464 c 1,9,10
 116 485 116 485 141 495 c 1,11,-1
 230 405 l 1,12,-1
 264 369 l 1,13,14
 300 405 300 405 388 494 c 1,15,16
 413 483 413 483 433 463 c 128,-1,17
 453 443 453 443 463 420 c 1,18,-1
 374 330 l 1,19,-1
 338 296 l 1,20,-1
 463 172 l 1,21,22
 441.693181818 120.863636364 441.693181818 120.863636364 388 97 c 1,23,-1
 300 187 l 1,24,-1
 264 222 l 1,0,-1
EndSplineSet
EndChar

StartChar: divide
Encoding: 247 247 106
Width: 530
Flags: HMW
HStem: 70 93<207 207 322 322> 245 103<55 475 55 475> 428 92<207 207 322 322>
VStem: 198 124
LayerCount: 2
Fore
SplineSet
198 474 m 128,-1,1
 198 502 198 502 207 520 c 1,2,3
 230 533 230 533 266 533 c 128,-1,4
 302 533 302 533 322 520 c 1,5,6
 332 503 332 503 332 474 c 128,-1,7
 332 445 332 445 322 428 c 1,8,9
 304 415 304 415 265 415 c 128,-1,10
 226 415 226 415 207 428 c 1,11,0
 198 446 198 446 198 474 c 128,-1,1
207 70 m 1,12,13
 198 88 198 88 198 116.5 c 128,-1,14
 198 145 198 145 207 163 c 1,15,16
 230 176 230 176 266 176 c 128,-1,17
 302 176 302 176 322 163 c 1,18,19
 332 146 332 146 332 116.5 c 128,-1,20
 332 87 332 87 322 70 c 1,21,22
 302 57 302 57 265 57 c 128,-1,23
 228 57 228 57 207 70 c 1,12,13
475 245 m 1,24,-1
 55 245 l 1,25,26
 50 265 50 265 50 296 c 128,-1,27
 50 327 50 327 55 348 c 1,28,-1
 475 348 l 1,29,30
 480 327 480 327 480 296 c 128,-1,31
 480 265 480 265 475 245 c 1,24,-1
EndSplineSet
EndChar

StartChar: logicalnot
Encoding: 172 172 107
Width: 530
Flags: HMW
HStem: 250 103<50 310 50 469>
VStem: 366 109<119 198 198 206>
LayerCount: 2
Fore
SplineSet
367 251 m 1,0,-1
 310 250 l 1,1,-1
 50 250 l 1,2,3
 45 270 45 270 45 301 c 128,-1,4
 45 332 45 332 50 353 c 1,5,-1
 469 353 l 1,6,-1
 475 346 l 1,7,-1
 475 119 l 1,8,9
 455 114 455 114 423 114 c 128,-1,10
 391 114 391 114 366 119 c 1,11,-1
 366 198 l 1,12,-1
 367 251 l 1,0,-1
EndSplineSet
EndChar

StartChar: mu
Encoding: 956 956 108
Width: 553
Flags: HMW
HStem: -219 21G<111 151> -9 105<246 280.5> 476 20G<70 70 193 193 356 356 480 480>
VStem: 70 123<178 496 178 496 178 496> 356 124<146 496>
LayerCount: 2
Fore
SplineSet
480 496 m 1,0,-1
 480 141 l 2,1,2
 480 77 480 77 508 55 c 1,3,4
 497 15 497 15 465 -8 c 1,5,6
 400 1 400 1 373 55 c 1,7,8
 329 -9 329 -9 255 -9 c 0,9,10
 217 -9 217 -9 185 12 c 1,11,-1
 185 -135 l 2,12,13
 185 -177 185 -177 173 -198 c 128,-1,14
 161 -219 161 -219 121.5 -219 c 0,15,16
 82 -219 82 -219 51 -194 c 1,17,18
 70 -162 70 -162 70 -99 c 2,19,-1
 70 496 l 1,20,21
 98 501 98 501 130.5 501 c 0,22,23
 163 501 163 501 193 496 c 1,24,-1
 193 178 l 1,25,26
 195 140 195 140 215 118 c 128,-1,27
 235 96 235 96 269 96 c 0,28,29
 320 96 320 96 356 146 c 1,30,-1
 356 496 l 1,31,32
 384 501 384 501 417 501 c 128,-1,33
 450 501 450 501 480 496 c 1,0,-1
EndSplineSet
EndChar

StartChar: percent
Encoding: 37 37 109
Width: 939
Flags: HMW
HStem: -20 20G<221 221 221 341> -13 79<706.5 752> 276 79<187 233> 328 79<706.5 752 706.5 755.5> 617 79<187 233 187 235.5>
VStem: 47 103<455 517> 270 103<455 517 455 521> 566 104<166.5 228.5> 790 103<166.5 228.5 166.5 233>
LayerCount: 2
Fore
SplineSet
842 364 m 0,0,1
 893 313 893 313 893 197 c 128,-1,2
 893 81 893 81 842 30 c 0,3,4
 800 -13 800 -13 729.5 -13 c 128,-1,5
 659 -13 659 -13 612.5 34 c 128,-1,6
 566 81 566 81 566 197 c 128,-1,7
 566 313 566 313 612.5 360 c 128,-1,8
 659 407 659 407 729.5 407 c 128,-1,9
 800 407 800 407 842 364 c 0,0,1
674 264 m 128,-1,11
 670 238 670 238 670 197.5 c 128,-1,12
 670 157 670 157 674 131 c 128,-1,13
 678 105 678 105 691.5 85.5 c 128,-1,14
 705 66 705 66 730 66 c 0,15,16
 765 66 765 66 777.5 101 c 128,-1,17
 790 136 790 136 790 197.5 c 128,-1,18
 790 259 790 259 777.5 293.5 c 128,-1,19
 765 328 765 328 730 328 c 0,20,21
 705 328 705 328 691.5 309 c 128,-1,10
 678 290 678 290 674 264 c 128,-1,11
47 486 m 128,-1,23
 47 603 47 603 93 649.5 c 128,-1,24
 139 696 139 696 209.5 696 c 128,-1,25
 280 696 280 696 326.5 649 c 128,-1,26
 373 602 373 602 373 485.5 c 128,-1,27
 373 369 373 369 326.5 322.5 c 128,-1,28
 280 276 280 276 209.5 276 c 128,-1,29
 139 276 139 276 93 322.5 c 128,-1,22
 47 369 47 369 47 486 c 128,-1,23
150 486 m 128,-1,31
 150 425 150 425 162.5 390 c 128,-1,32
 175 355 175 355 210 355 c 128,-1,33
 245 355 245 355 257.5 390 c 128,-1,34
 270 425 270 425 270 486 c 128,-1,35
 270 547 270 547 257.5 582 c 128,-1,36
 245 617 245 617 210 617 c 128,-1,37
 175 617 175 617 162.5 582 c 128,-1,30
 150 547 150 547 150 486 c 128,-1,31
221 0 m 1,38,-1
 598 683 l 1,39,40
 623 689 623 689 662 689 c 128,-1,41
 701 689 701 689 718 683 c 1,42,-1
 341 0 l 1,43,44
 316 -6 316 -6 277 -6 c 128,-1,45
 238 -6 238 -6 221 0 c 1,38,-1
EndSplineSet
EndChar

StartChar: numbersign
Encoding: 35 35 110
Width: 673
Flags: HMW
HStem: 4 9 146 100<29 128 29 150 260 361 29 238 493 598> 411 100<78 187 78 210 320 420 78 297 552 648> 644 8
VStem: 22 634
LayerCount: 2
Fore
SplineSet
443 511 m 1,0,-1
 473 644 l 1,1,2
 493 652 493 652 528 652 c 128,-1,3
 563 652 563 652 582 644 c 1,4,-1
 552 511 l 1,5,-1
 648 511 l 1,6,7
 656 490 656 490 656 461 c 128,-1,8
 656 432 656 432 648 411 c 1,9,-1
 530 411 l 1,10,-1
 493 246 l 1,11,-1
 598 246 l 1,12,13
 606 225 606 225 606 196 c 128,-1,14
 606 167 606 167 598 146 c 1,15,-1
 470 146 l 1,16,-1
 441 13 l 1,17,18
 421 4 421 4 385.5 4 c 128,-1,19
 350 4 350 4 331 13 c 1,20,-1
 361 146 l 1,21,-1
 238 146 l 1,22,-1
 208 13 l 1,23,24
 188 4 188 4 152.5 4 c 128,-1,25
 117 4 117 4 98 13 c 1,26,-1
 128 146 l 1,27,-1
 29 146 l 1,28,29
 22 167 22 167 22 196 c 128,-1,30
 22 225 22 225 29 246 c 1,31,-1
 150 246 l 1,32,-1
 187 411 l 1,33,-1
 78 411 l 1,34,35
 70 432 70 432 70 461 c 128,-1,36
 70 490 70 490 78 511 c 1,37,-1
 210 511 l 1,38,-1
 240 644 l 1,39,40
 260 652 260 652 295.5 652 c 128,-1,41
 331 652 331 652 350 644 c 1,42,-1
 320 511 l 1,43,-1
 443 511 l 1,0,-1
297 411 m 1,44,-1
 260 246 l 1,45,-1
 383 246 l 1,46,-1
 420 411 l 1,47,-1
 297 411 l 1,44,-1
EndSplineSet
EndChar

StartChar: asterisk
Encoding: 42 42 111
Width: 511
Flags: HMW
HStem: 541 20G 542 20G 730 8
VStem: 204 102
LayerCount: 2
Fore
SplineSet
41 537 m 1,0,1
 40 557 40 557 50 588.5 c 128,-1,2
 60 620 60 620 74 636 c 1,3,-1
 129 616 l 2,4,5
 160 605 160 605 226 561 c 1,6,7
 206 633 206 633 205 671 c 2,8,-1
 203 730 l 1,9,10
 221 738 221 738 254.5 738 c 128,-1,11
 288 738 288 738 307 730 c 1,12,-1
 305 671 l 2,13,14
 304 634 304 634 284 562 c 1,15,16
 337 599 337 599 381 615 c 2,17,-1
 437 635 l 1,18,19
 449 620 449 620 459.5 588.5 c 128,-1,20
 470 557 470 557 469 537 c 1,21,-1
 412 520 l 2,22,23
 375 509 375 509 302 507 c 1,24,25
 358 462 358 462 383 431 c 1,26,-1
 418 384 l 1,27,28
 408 367 408 367 381.5 347.5 c 128,-1,29
 355 328 355 328 335 324 c 1,30,-1
 302 372 l 2,31,32
 278 407 278 407 255 472 c 1,33,34
 228 401 228 401 207 373 c 1,35,-1
 175 324 l 1,36,37
 155 329 155 329 128 348 c 128,-1,38
 101 367 101 367 91 385 c 1,39,-1
 127 431 l 2,40,41
 149 460 149 460 208 507 c 1,42,43
 139 509 139 509 98 521 c 2,44,-1
 41 537 l 1,0,1
EndSplineSet
EndChar

StartChar: endash
Encoding: 8211 8211 112
Width: 540
Flags: HMW
HStem: 216 98<64 477 64 477>
VStem: 59 423<258 272>
LayerCount: 2
Fore
SplineSet
477 216 m 1,0,-1
 64 216 l 1,1,2
 59 237 59 237 59 265 c 128,-1,3
 59 293 59 293 64 314 c 1,4,-1
 477 314 l 1,5,6
 482 293 482 293 482 265 c 128,-1,7
 482 237 482 237 477 216 c 1,0,-1
EndSplineSet
EndChar

StartChar: emdash
Encoding: 8212 8212 113
Width: 805
Flags: HMW
HStem: 216 98<77 728 77 728>
VStem: 72 661<258 272>
LayerCount: 2
Fore
SplineSet
728 216 m 1,0,-1
 77 216 l 1,1,2
 72 237 72 237 72 265 c 128,-1,3
 72 293 72 293 77 314 c 1,4,-1
 728 314 l 1,5,6
 733 293 733 293 733 265 c 128,-1,7
 733 237 733 237 728 216 c 1,0,-1
EndSplineSet
EndChar

StartChar: slash
Encoding: 47 47 114
Width: 433
Flags: HMW
HStem: -114 878<111 320>
VStem: 5 421
LayerCount: 2
Fore
SplineSet
5 -74 m 1,0,-1
 320 764 l 1,1,2
 383 757 383 757 426 724 c 1,3,-1
 111 -114 l 1,4,5
 48 -109 48 -109 5 -74 c 1,0,-1
EndSplineSet
EndChar

StartChar: backslash
Encoding: 92 92 115
Width: 433
Flags: HMW
HStem: -114 878<114 322>
VStem: 7 422
LayerCount: 2
Fore
SplineSet
322 -114 m 1,0,-1
 7 724 l 1,1,2
 52 757 52 757 114 764 c 1,3,-1
 429 -74 l 1,4,5
 386 -107 386 -107 322 -114 c 1,0,-1
EndSplineSet
EndChar

StartChar: bar
Encoding: 124 124 116
Width: 261
Flags: HMW
HStem: -146 925<124 139.5>
VStem: 73 115<-141 774 -141 774>
LayerCount: 2
Fore
SplineSet
73 -141 m 1,0,-1
 73 774 l 1,1,2
 94 779 94 779 130 779 c 0,3,4
 166 779 166 779 188 774 c 1,5,-1
 188 -141 l 1,6,7
 165 -146 165 -146 129.5 -146 c 0,8,9
 94 -146 94 -146 73 -141 c 1,0,-1
EndSplineSet
EndChar

StartChar: brokenbar
Encoding: 166 166 117
Width: 255
Flags: HMW
HStem: -146 925<121 136.5>
VStem: 70 115<-141 246 -141 246 387 774>
LayerCount: 2
Fore
SplineSet
70 -141 m 1,0,-1
 70 246 l 1,1,2
 92 251 92 251 126.5 251 c 0,3,4
 161 251 161 251 185 246 c 1,5,-1
 185 -141 l 1,6,7
 161 -146 161 -146 127 -146 c 0,8,9
 93 -146 93 -146 70 -141 c 1,0,-1
70 387 m 1,10,-1
 70 774 l 1,11,12
 92 779 92 779 126.5 779 c 0,13,14
 161 779 161 779 185 774 c 1,15,-1
 185 387 l 1,16,17
 161 382 161 382 127 382 c 0,18,19
 93 382 93 382 70 387 c 1,10,-1
EndSplineSet
EndChar

StartChar: paragraph
Encoding: 182 182 118
Width: 702
Flags: HMW
HStem: -157 95<174.5 204 173 232.5> 575 108<635 643 643 678>
VStem: 282 126<61 84 84 245 245 245> 471 126<-132 576 -132 676 -132 676>
LayerCount: 2
Fore
SplineSet
282 61 m 2,0,-1
 282 245 l 1,1,-1
 266 245 l 2,2,3
 164 245 164 245 100 302.5 c 128,-1,4
 36 360 36 360 36 469.5 c 128,-1,5
 36 579 36 579 100 633.5 c 128,-1,6
 164 688 164 688 272 688 c 0,7,8
 303 688 303 688 401 684 c 1,9,-1
 408 677 l 1,10,-1
 408 84 l 2,11,12
 408 18 408 18 398.5 -24.5 c 128,-1,13
 389 -67 389 -67 360 -99 c 0,14,15
 309 -157 309 -157 201 -157 c 0,16,17
 129 -157 129 -157 64 -133 c 1,18,19
 63 -113 63 -113 71 -85.5 c 128,-1,20
 79 -58 79 -58 92 -41 c 1,21,22
 151 -62 151 -62 194.5 -62 c 128,-1,23
 238 -62 238 -62 260 -35.5 c 128,-1,24
 282 -9 282 -9 282 61 c 2,0,-1
643 575 m 1,25,-1
 597 576 l 1,26,-1
 597 -132 l 1,27,28
 572 -137 572 -137 533.5 -137 c 128,-1,29
 495 -137 495 -137 471 -132 c 1,30,-1
 471 676 l 1,31,-1
 478 683 l 1,32,-1
 678 683 l 1,33,34
 684 665 684 665 684 629 c 128,-1,35
 684 593 684 593 678 575 c 1,36,-1
 643 575 l 1,25,-1
EndSplineSet
EndChar

StartChar: braceleft
Encoding: 123 123 119
Width: 367
Flags: HMW
HStem: -173 998<333 333>
VStem: 37 129 126 125<5 6 6 170 481 483 483 646>
LayerCount: 2
Fore
SplineSet
43 366 m 1,0,1
 80 376 80 376 103 407.5 c 128,-1,2
 126 439 126 439 126 481 c 2,3,-1
 126 647 l 2,4,5
 126 719 126 719 167 762 c 128,-1,6
 208 805 208 805 276 816 c 2,7,-1
 333 825 l 1,8,9
 346 812 346 812 351.727272727 790.318181818 c 0,10,11
 357.454545455 768.636363636 357.454545455 768.636363636 357.454545455 758.727272727 c 0,12,13
 357.454545455 748.818181818 357.454545455 748.818181818 356 743 c 1,14,-1
 302 725 l 2,15,16
 279 718 279 718 265 697.5 c 128,-1,17
 251 677 251 677 251 646 c 2,18,-1
 251 483 l 2,19,20
 251 433 251 433 227.5 390.5 c 128,-1,21
 204 348 204 348 166 330 c 1,22,-1
 166 322 l 1,23,24
 204 305 204 305 227.5 262.5 c 128,-1,25
 251 220 251 220 251 170 c 2,26,-1
 251 6 l 2,27,28
 251 -25 251 -25 265 -45.5 c 128,-1,29
 279 -66 279 -66 302 -73 c 2,30,-1
 356 -91 l 1,31,32
 357.454545455 -96.8181818182 357.454545455 -96.8181818182 357.454545455 -106.727272727 c 0,33,34
 357.454545455 -116.636363636 357.454545455 -116.636363636 351.727272727 -138.318181818 c 0,35,36
 346 -160 346 -160 333 -173 c 1,37,-1
 276 -164 l 2,38,39
 208 -153 208 -153 167 -110 c 128,-1,40
 126 -67 126 -67 126 5 c 2,41,-1
 126 172 l 2,42,43
 126 214 126 214 102.5 245.5 c 128,-1,44
 79 277 79 277 43 286 c 1,45,46
 37 301 37 301 37 326.5 c 128,-1,47
 37 352 37 352 43 366 c 1,0,1
EndSplineSet
EndChar

StartChar: braceright
Encoding: 125 125 120
Width: 367
Flags: HMW
HStem: -173 998<34 34>
VStem: 115 125<6 170 170 172 483 646 646 647>
LayerCount: 2
Fore
SplineSet
323 366 m 1,0,1
 329 352 329 352 329 326.5 c 128,-1,2
 329 301 329 301 323 286 c 1,3,4
 287 277 287 277 263.5 245 c 128,-1,5
 240 213 240 213 240 172 c 2,6,-1
 240 5 l 2,7,8
 240 -67 240 -67 199.5 -110 c 128,-1,9
 159 -153 159 -153 91 -164 c 2,10,-1
 34 -173 l 1,11,12
 21 -160 21 -160 15.2727272727 -138.318181818 c 0,13,14
 9.54545454545 -116.636363636 9.54545454545 -116.636363636 9.54545454545 -106.727272727 c 0,15,16
 9.54545454545 -96.8181818182 9.54545454545 -96.8181818182 11 -91 c 1,17,-1
 65 -73 l 1,18,19
 115 -58 115 -58 115 6 c 2,20,-1
 115 170 l 2,21,22
 115 219 115 219 139 262 c 128,-1,23
 163 305 163 305 201 322 c 1,24,-1
 201 330 l 1,25,26
 162 348 162 348 138.5 391 c 128,-1,27
 115 434 115 434 115 483 c 2,28,-1
 115 646 l 2,29,30
 115 710 115 710 65 725 c 1,31,-1
 11 743 l 1,32,33
 9.54545454545 748.818181818 9.54545454545 748.818181818 9.54545454545 758.727272727 c 0,34,35
 9.54545454545 768.636363636 9.54545454545 768.636363636 15.2727272727 790.318181818 c 0,36,37
 21 812 21 812 34 825 c 1,38,-1
 91 816 l 2,39,40
 159 805 159 805 199.5 762 c 128,-1,41
 240 719 240 719 240 647 c 2,42,-1
 240 481 l 2,43,44
 240 439 240 439 263.5 407.5 c 128,-1,45
 287 376 287 376 323 366 c 1,0,1
EndSplineSet
EndChar

StartChar: parenleft
Encoding: 40 40 121
Width: 348
Flags: HMW
HStem: -187 1021<259 259>
VStem: 61 131<248.5 399.5 248.5 412>
LayerCount: 2
Fore
SplineSet
192 324 m 128,-1,1
 192 205 192 205 227 88 c 128,-1,2
 262 -29 262 -29 331 -121 c 1,3,4
 310 -169 310 -169 259 -187 c 1,5,6
 165 -97 165 -97 113 44 c 128,-1,7
 61 185 61 185 61 323.5 c 0,8,9
 61 462 61 462 113 603 c 128,-1,10
 165 744 165 744 259 834 c 1,11,12
 309 818 309 818 331 768 c 1,13,14
 262 675 262 675 227 559 c 128,-1,0
 192 443 192 443 192 324 c 128,-1,1
EndSplineSet
EndChar

StartChar: parenright
Encoding: 41 41 122
Width: 348
Flags: HMW
HStem: -187 1021<90 90>
VStem: 156 131<248.5 399.5>
LayerCount: 2
Fore
SplineSet
156 324 m 128,-1,1
 156 443 156 443 121 559 c 128,-1,2
 86 675 86 675 17 768 c 1,3,4
 40 819 40 819 90 834 c 1,5,6
 184 744 184 744 235.5 603.5 c 128,-1,7
 287 463 287 463 287 324 c 128,-1,8
 287 185 287 185 235.5 44 c 128,-1,9
 184 -97 184 -97 90 -187 c 1,10,11
 39 -169 39 -169 17 -121 c 1,12,13
 86 -29 86 -29 121 88 c 128,-1,0
 156 205 156 205 156 324 c 128,-1,1
EndSplineSet
EndChar

StartChar: bracketleft
Encoding: 91 91 123
Width: 364
Flags: HMW
HStem: -151 92 723 92
VStem: 99 122<-57 722 -57 813 -57 813>
LayerCount: 2
Fore
SplineSet
327 -147 m 1,0,-1
 107 -155 l 1,1,-1
 99 -148 l 1,2,-1
 99 813 l 1,3,-1
 107 820 l 1,4,-1
 327 812 l 1,5,6
 332 801 332 801 332 776.5 c 0,7,8
 332 752 332 752 322 725 c 1,9,-1
 221 722 l 1,10,-1
 221 -57 l 1,11,-1
 322 -60 l 1,12,13
 332 -87 332 -87 332 -111.5 c 0,14,15
 332 -136 332 -136 327 -147 c 1,0,-1
EndSplineSet
EndChar

StartChar: bracketright
Encoding: 93 93 124
Width: 364
Flags: HMW
HStem: -151 92 723 92
VStem: 142 123<-57 722 722 722>
LayerCount: 2
Fore
SplineSet
257 -155 m 1,0,-1
 36 -147 l 1,1,2
 32 -135 32 -135 32 -110 c 0,3,4
 32 -85 32 -85 41 -60 c 1,5,-1
 142 -57 l 1,6,-1
 142 722 l 1,7,-1
 41 725 l 1,8,9
 32 750 32 750 32 775 c 0,10,11
 32 800 32 800 36 812 c 1,12,-1
 257 820 l 1,13,-1
 265 813 l 1,14,-1
 265 -148 l 1,15,-1
 257 -155 l 1,0,-1
EndSplineSet
EndChar

StartChar: currency
Encoding: 164 164 125
Width: 581
Flags: HMW
HStem: 117 92<268 311.5> 459 93<267.5 312 267.5 324>
VStem: 66 123<311.5 356.5> 391 123<311 356.5 311 368>
LayerCount: 2
Fore
SplineSet
99 215 m 1,0,1
 66 267 66 267 66 333.5 c 128,-1,2
 66 400 66 400 98 452 c 1,3,-1
 28 529 l 1,4,5
 48 566 48 566 93 595 c 1,6,-1
 172 523 l 1,7,8
 225 552 225 552 289.5 552 c 128,-1,9
 354 552 354 552 407 524 c 1,10,-1
 487 597 l 1,11,12
 527 573 527 573 553 532 c 1,13,-1
 481 452 l 1,14,15
 514 400 514 400 514 333.5 c 128,-1,16
 514 267 514 267 481 214 c 1,17,-1
 551 137 l 1,18,19
 530 99 530 99 486 72 c 1,20,-1
 406 144 l 1,21,22
 356 117 356 117 290 117 c 128,-1,23
 224 117 224 117 174 144 c 1,24,-1
 93 72 l 1,25,26
 54 96 54 96 28 137 c 1,27,-1
 99 215 l 1,0,1
215 423.5 m 128,-1,29
 189 388 189 388 189 334.5 c 128,-1,30
 189 281 189 281 215 245 c 128,-1,31
 241 209 241 209 290 209 c 128,-1,32
 339 209 339 209 365 244.5 c 128,-1,33
 391 280 391 280 391 334 c 128,-1,34
 391 388 391 388 365 423.5 c 128,-1,35
 339 459 339 459 290 459 c 128,-1,28
 241 459 241 459 215 423.5 c 128,-1,29
EndSplineSet
EndChar

StartChar: dollar
Encoding: 36 36 126
Width: 503
Flags: HMW
HStem: -40 175<199 279.5 222 293> 508 181<203 276>
VStem: 199 94<-40 36 -40 38 -40 38> 203 94<609 689 609 689 609 689> 340 130<173 206>
LayerCount: 2
Fore
SplineSet
28 97 m 1,0,1
 29 121 29 121 43.5 149.5 c 128,-1,2
 58 178 58 178 76 190 c 1,3,4
 180 135 180 135 256 135 c 0,5,6
 293 135 293 135 316.5 150 c 128,-1,7
 340 165 340 165 340 192 c 0,8,9
 340 235 340 235 277 259 c 1,10,-1
 180 294 l 1,11,12
 52 342 52 342 52 445 c 0,13,14
 52 508 52 508 93 552 c 128,-1,15
 134 596 134 596 203 608 c 1,16,-1
 203 689 l 1,17,18
 218 693 218 693 249 693 c 0,19,20
 280 693 280 693 297 689 c 1,21,-1
 297 609 l 1,22,23
 371 602 371 602 453 566 c 1,24,25
 453 507 453 507 410 469 c 1,26,27
 316 508 316 508 254 508 c 0,28,29
 220 508 220 508 200 493.5 c 128,-1,30
 180 479 180 479 180 456.5 c 0,31,32
 180 434 180 434 194.5 422.5 c 128,-1,33
 209 411 209 411 240 400 c 2,34,-1
 335 365 l 1,35,36
 470 314 470 314 470 200 c 0,37,38
 470 133 470 133 422 88.5 c 128,-1,39
 374 44 374 44 293 36 c 1,40,-1
 293 -40 l 1,41,42
 274 -43 274 -43 244.5 -43 c 0,43,44
 215 -43 215 -43 199 -40 c 1,45,-1
 199 38 l 1,46,47
 94 52 94 52 28 97 c 1,0,1
EndSplineSet
EndChar

StartChar: cent
Encoding: 162 162 127
Width: 466
Flags: HMW
HStem: -32 195<197 286.5 234 291> 494 187<200 277>
VStem: 36 127<267.5 380.5 266 403> 197 94<-32 67 -32 68 -32 68> 322 112
LayerCount: 2
Fore
SplineSet
197 -32 m 1,0,-1
 197 68 l 1,1,2
 112 85 112 85 74 156.5 c 128,-1,3
 36 228 36 228 36 332 c 0,4,5
 36 436 36 436 82 500.5 c 128,-1,6
 128 565 128 565 200 581 c 1,7,-1
 200 681 l 1,8,9
 216 685 216 685 247 685 c 128,-1,10
 278 685 278 685 294 681 c 1,11,-1
 294 583 l 1,12,13
 359 571 359 571 396.5 528.5 c 128,-1,14
 434 486 434 486 434 436 c 0,15,16
 434 366 434 366 368 366 c 0,17,18
 343 366 343 366 322 372 c 1,19,20
 322.049382716 375.012345679 322.049382716 375.012345679 322.049382716 377.950312452 c 0,21,22
 322.049382716 494 322.049382716 494 245 494 c 0,23,24
 163 494 163 494 163 328.5 c 0,25,26
 163 163 163 163 266 163 c 0,27,28
 319 163 319 163 380 211 c 1,29,30
 396 201 396 201 411 181 c 128,-1,31
 426 161 426 161 430 142 c 1,32,33
 377 83 377 83 291 67 c 1,34,-1
 291 -32 l 1,35,36
 273 -35 273 -35 244 -35 c 128,-1,37
 215 -35 215 -35 197 -32 c 1,0,-1
EndSplineSet
EndChar

StartChar: sterling
Encoding: 163 163 128
Width: 533
Flags: HMW
HStem: -1 104<339 414> 262 92<54 62.5 54 128 54 62.5 377.5 405> 559 103<262 309.5>
VStem: 72 123<457 500 451 522.5> 128 114<262 262>
LayerCount: 2
Fore
SplineSet
227 353 m 1,0,-1
 405 354 l 1,1,2
 412 331.5 412 331.5 412 308.5 c 128,-1,3
 412 285.5 412 285.5 405 262 c 1,4,5
 296 262 296 262 242 263 c 1,6,7
 238 177 238 177 181 100 c 1,8,-1
 184 97 l 1,9,10
 270 103 270 103 339 103 c 2,11,-1
 500 103 l 1,12,13
 500 76 500 76 497 60 c 0,14,15
 486 -1 486 -1 414 -1 c 2,16,-1
 67 -1 l 1,17,18
 52 59 52 59 52 82 c 128,-1,19
 52 105 52 105 68 126 c 1,20,-1
 82 149 l 1,21,22
 124 208 124 208 128 262 c 1,23,-1
 54 262 l 1,24,25
 46 284.5 46 284.5 46 307.5 c 128,-1,26
 46 330.5 46 330.5 54 354 c 1,27,28
 62 354 62 354 81 353.5 c 128,-1,29
 100 353 100 353 110 353 c 1,30,31
 108 359 108 359 100 376.5 c 128,-1,32
 92 394 92 394 89 402.5 c 128,-1,33
 86 411 86 411 81 426 c 0,34,35
 72 453 72 453 72 481 c 0,36,37
 72 551 72 551 126 606.5 c 128,-1,38
 180 662 180 662 279 662 c 0,39,40
 398 662 398 662 484 585 c 1,41,42
 480 560 480 560 461.5 537 c 128,-1,43
 443 514 443 514 419 507 c 1,44,45
 357 559 357 559 288 559 c 0,46,47
 248 559 248 559 221.5 536 c 128,-1,48
 195 513 195 513 195 472 c 0,49,50
 195 443 195 443 202 423 c 128,-1,51
 209 403 209 403 216.5 381.5 c 128,-1,52
 224 360 224 360 227 353 c 1,0,-1
EndSplineSet
EndChar

StartChar: Euro
Encoding: 8364 8364 129
Width: 564
Flags: HMW
HStem: -14 102<313.5 368.5> 206 80<20 92 20 100 20 92 226 414 226 226> 360 80<20 92 20 100 226 414> 560 102<313 368.5 257 370>
VStem: 92 124<286 323 286 360>
LayerCount: 2
Fore
SplineSet
494 503 m 1,0,1
 416 560 416 560 346 560 c 0,2,3
 250 560 250 560 226 440 c 1,4,-1
 414 440 l 1,5,6
 418 419 418 419 418 399.5 c 128,-1,7
 418 380 418 380 414 360 c 1,8,-1
 216 360 l 1,9,-1
 216 286 l 1,10,-1
 414 286 l 1,11,12
 418 265 418 265 418 245.5 c 128,-1,13
 418 226 418 226 414 206 c 1,14,-1
 226 206 l 1,15,16
 250 88 250 88 346 88 c 0,17,18
 416 88 416 88 494 145 c 1,19,20
 539 119 539 119 548 70 c 1,21,22
 448 -14 448 -14 329 -14 c 0,23,24
 140 -14 140 -14 100 206 c 1,25,-1
 20 206 l 1,26,27
 15 225 15 225 15 245.5 c 128,-1,28
 15 266 15 266 20 286 c 1,29,-1
 92 286 l 1,30,31
 91 298 91 298 91 322.5 c 128,-1,32
 91 347 91 347 92 360 c 1,33,-1
 20 360 l 1,34,35
 15 379 15 379 15 399.5 c 128,-1,36
 15 420 15 420 20 440 c 1,37,-1
 100 440 l 1,38,39
 138 662 138 662 329 662 c 0,40,41
 448 662 448 662 548 578 c 1,42,43
 544 557 544 557 528.5 535.5 c 128,-1,44
 513 514 513 514 494 503 c 1,0,1
EndSplineSet
EndChar

StartChar: yen
Encoding: 165 165 130
Width: 528
Flags: HMW
HStem: 162 81<53 197 53 202 53 197 329 472> 317 81<53 127 53 164 53 127 399 472> 635 20
VStem: 202 122<0 162 0 162>
LayerCount: 2
Fore
SplineSet
472 162 m 1,0,-1
 324 162 l 1,1,-1
 324 0 l 1,2,3
 298 -5 298 -5 262 -5 c 0,4,5
 226 -5 226 -5 202 0 c 1,6,-1
 202 162 l 1,7,-1
 53 162 l 1,8,9
 47 186 47 186 47 202.5 c 0,10,11
 47 219 47 219 53 243 c 1,12,-1
 197 243 l 1,13,-1
 164 317 l 1,14,-1
 53 317 l 1,15,16
 47 340 47 340 47 356 c 0,17,18
 47 372 47 372 53 398 c 1,19,-1
 127 398 l 1,20,-1
 21 635 l 1,21,22
 62 658 62 658 93 658 c 0,23,24
 124 658 124 658 136.5 647.5 c 128,-1,25
 149 637 149 637 159 614 c 2,26,-1
 222 461 l 2,27,28
 237 425 237 425 265 338 c 1,29,-1
 270 338 l 1,30,31
 294 415 294 415 316 463 c 1,32,-1
 395 649 l 1,33,34
 417 655 417 655 447.5 655 c 0,35,36
 478 655 478 655 505 648 c 1,37,-1
 510 641 l 1,38,-1
 399 398 l 1,39,-1
 472 398 l 1,40,41
 478 372 478 372 478 356 c 0,42,43
 478 340 478 340 472 317 c 1,44,-1
 362 317 l 1,45,-1
 329 243 l 1,46,-1
 472 243 l 1,47,48
 478 219 478 219 478 202.5 c 0,49,50
 478 186 478 186 472 162 c 1,0,-1
EndSplineSet
EndChar

StartChar: at
Encoding: 64 64 131
Width: 961
Flags: HMW
HStem: -194 95<373 492.5> 2 95<448.5 471.5> 6 92<700.5 736 700.5 764> 395 88<461.5 507.5> 589 92<398 589>
VStem: 46 124<117 329.5 117 356> 285 120<188.5 276 188.5 300> 559 116<146 149 149 160 137.5 370> 801 122<221.5 385.5>
LayerCount: 2
Fore
SplineSet
676 412 m 1,0,-1
 675 160 l 2,1,2
 675 127 675 127 684 112.5 c 128,-1,3
 693 98 693 98 714 98 c 0,4,5
 751 98 751 98 776 145 c 128,-1,6
 801 192 801 192 801 296 c 0,7,8
 801 430 801 430 718 509.5 c 128,-1,9
 635 589 635 589 492.5 589 c 128,-1,10
 350 589 350 589 260 486.5 c 128,-1,11
 170 384 170 384 170 225.5 c 128,-1,12
 170 67 170 67 248 -16 c 128,-1,13
 326 -99 326 -99 461 -99 c 0,14,15
 565 -99 565 -99 661 -62 c 1,16,17
 693 -96 693 -96 693 -147 c 1,18,19
 579 -194 579 -194 452 -194 c 0,20,21
 268 -194 268 -194 157 -87 c 128,-1,22
 46 20 46 20 46 221 c 128,-1,23
 46 422 46 422 173 551.5 c 128,-1,24
 300 681 300 681 492.5 681 c 128,-1,25
 685 681 685 681 804 575.5 c 128,-1,26
 923 470 923 470 923 292 c 0,27,28
 923 155 923 155 860 80.5 c 128,-1,29
 797 6 797 6 711.5 6 c 128,-1,30
 626 6 626 6 584 66 c 1,31,32
 520 2 520 2 445 2 c 128,-1,33
 370 2 370 2 327.5 63 c 128,-1,34
 285 124 285 124 285 232 c 128,-1,35
 285 340 285 340 340.5 411.5 c 128,-1,36
 396 483 396 483 494 483 c 0,37,38
 546 483 546 483 595.5 462.5 c 128,-1,39
 645 442 645 442 676 412 c 1,0,-1
474 97 m 0,40,41
 517 97 517 97 559 146 c 1,42,-1
 559 370 l 1,43,44
 532 395 532 395 490 395 c 128,-1,45
 448 395 448 395 426.5 349.5 c 128,-1,46
 405 304 405 304 405 231 c 0,47,48
 405 97 405 97 474 97 c 0,40,41
EndSplineSet
EndChar

StartChar: copyright
Encoding: 169 169 132
Width: 797
Flags: HMW
HStem: -20 85<321.5 475 321.5 500> 145 78<386.5 425> 465 74<374.5 422> 618 85<321.5 475>
VStem: 37 98<264.5 417.5 264.5 443> 226 101<303 382 303 412> 459 90 662 98<264.5 417.5>
LayerCount: 2
Fore
SplineSet
37 341 m 128,-1,1
 37 494 37 494 141 598.5 c 128,-1,2
 245 703 245 703 398 703 c 128,-1,3
 551 703 551 703 655.5 598.5 c 128,-1,4
 760 494 760 494 760 341 c 128,-1,5
 760 188 760 188 655.5 84 c 128,-1,6
 551 -20 551 -20 398 -20 c 128,-1,7
 245 -20 245 -20 141 84 c 128,-1,0
 37 188 37 188 37 341 c 128,-1,1
135 341 m 128,-1,9
 135 225 135 225 209.5 145 c 128,-1,10
 284 65 284 65 398 65 c 128,-1,11
 512 65 512 65 587 145 c 128,-1,12
 662 225 662 225 662 341 c 128,-1,13
 662 457 662 457 587 537.5 c 128,-1,14
 512 618 512 618 398.5 618 c 0,15,16
 285 618 285 618 210 537.5 c 128,-1,8
 135 457 135 457 135 341 c 128,-1,9
459 374 m 1,17,18
 459.060606061 376.757575758 459.060606061 376.757575758 459.060606061 379.431588613 c 0,19,20
 459.060606061 465 459.060606061 465 397 465 c 0,21,22
 327 465 327 465 327 342 c 0,23,24
 327 284 327 284 349.5 253.5 c 128,-1,25
 372 223 372 223 411.5 223 c 0,26,27
 451 223 451 223 506 260 c 1,28,29
 536 243 536 243 544 204 c 1,30,31
 520 178 520 178 479 161.5 c 128,-1,32
 438 145 438 145 399 145 c 0,33,34
 311 145 311 145 268.5 200.5 c 128,-1,35
 226 256 226 256 226 348 c 0,36,37
 226 440 226 440 278 489.5 c 128,-1,38
 330 539 330 539 398.5 539 c 0,39,40
 467 539 467 539 508 503 c 128,-1,41
 549 467 549 467 549 421 c 0,42,43
 549 368 549 368 496 368 c 0,44,45
 472 368 472 368 459 374 c 1,17,18
EndSplineSet
EndChar

StartChar: registered
Encoding: 174 174 133
Width: 596
Flags: HMW
HStem: 210 71<243.5 352 243.5 372.5> 445 53<265 308.5 265 308.5> 556 52<265 339 288.5 299> 673 71<243.5 352>
VStem: 31 77<422 530.5 422 551> 198 67<356 445 356 497 497 556> 332 71<519 535> 488 77<422 530.5>
LayerCount: 2
Fore
SplineSet
108.5 287 m 128,-1,1
 31 364 31 364 31 476.5 c 128,-1,2
 31 589 31 589 108.5 666.5 c 128,-1,3
 186 744 186 744 298 744 c 128,-1,4
 410 744 410 744 487.5 666 c 128,-1,5
 565 588 565 588 565 476 c 128,-1,6
 565 364 565 364 487.5 287 c 128,-1,7
 410 210 410 210 298 210 c 128,-1,0
 186 210 186 210 108.5 287 c 128,-1,1
108 476 m 128,-1,9
 108 394 108 394 162.5 337.5 c 128,-1,10
 217 281 217 281 298 281 c 128,-1,11
 379 281 379 281 433.5 338 c 128,-1,12
 488 395 488 395 488 476.5 c 128,-1,13
 488 558 488 558 433.5 615.5 c 128,-1,14
 379 673 379 673 298 673 c 128,-1,15
 217 673 217 673 162.5 615.5 c 128,-1,8
 108 558 108 558 108 476 c 128,-1,9
378.5 587.5 m 128,-1,17
 403 567 403 567 403 537 c 128,-1,18
 403 507 403 507 388 490 c 128,-1,19
 373 473 373 473 352 467 c 1,20,21
 370 458 370 458 385 429 c 2,22,-1
 398 404 l 2,23,24
 409 383 409 383 420 376 c 1,25,26
 405 351 405 351 376.5 351 c 128,-1,27
 348 351 348 351 333 381 c 2,28,-1
 310 426 l 2,29,30
 300 445 300 445 281 445 c 2,31,-1
 265 445 l 1,32,-1
 265 356 l 1,33,34
 248.5 350.5 248.5 350.5 231.75 350.5 c 128,-1,35
 215 350.5 215 350.5 198 356 c 1,36,-1
 198 603 l 1,37,-1
 201 605 l 1,38,39
 303 608 303 608 304 608 c 0,40,16
 354 608 354 608 378.5 587.5 c 128,-1,17
265 556 m 1,41,-1
 265 497 l 1,42,43
 277 498 277 498 295 498 c 0,44,45
 332 498 332 498 332 527 c 128,-1,46
 332 556 332 556 299 556 c 2,47,-1
 265 556 l 1,41,-1
EndSplineSet
EndChar

StartChar: asciicircum
Encoding: 94 94 134
Width: 530
Flags: HMW
HStem: 553 101
VStem: 38 454<306 306>
LayerCount: 2
Fore
SplineSet
492 306 m 1,0,1
 467.630769231 300.461538462 467.630769231 300.461538462 430.892307692 300.461538462 c 128,-1,2
 394.153846154 300.461538462 394.153846154 300.461538462 372 306 c 1,3,-1
 303 460 l 1,4,5
 292 487 292 487 269 553 c 1,6,-1
 261 553 l 1,7,8
 238 487 238 487 227 460 c 1,9,-1
 158 306 l 1,10,11
 135.846153846 300.461538462 135.846153846 300.461538462 117.846153846 300.461538462 c 0,12,13
 62.3692307692 300.461538462 62.3692307692 300.461538462 38 306 c 1,14,-1
 199 648 l 1,15,16
 223.369230769 653.538461538 223.369230769 653.538461538 266.569230769 653.538461538 c 128,-1,17
 309.769230769 653.538461538 309.769230769 653.538461538 331 648 c 1,18,-1
 492 306 l 1,0,1
EndSplineSet
EndChar

StartChar: underscore
Encoding: 95 95 135
Width: 543
Flags: HMW
HStem: -164 95<-1 544 -1 544>
VStem: -6 555<-122.5 -110.5>
LayerCount: 2
Fore
SplineSet
544 -164 m 1,0,-1
 -1 -164 l 1,1,2
 -6 -144 -6 -144 -6 -116.5 c 0,3,4
 -6 -89 -6 -89 -1 -69 c 1,5,-1
 544 -69 l 1,6,7
 549 -89 549 -89 549 -116.5 c 0,8,9
 549 -144 549 -144 544 -164 c 1,0,-1
EndSplineSet
EndChar

StartChar: section
Encoding: 167 167 136
Width: 491
Flags: HMW
HStem: -112 92<210.5 256.5 210.5 293> 605 92<235 275> 641 20G
VStem: 30 120<278.5 309.5> 65 124<542 570 542 588.5> 304 123<15 42.5> 342 121<276.5 307.5>
LayerCount: 2
Fore
SplineSet
463 307 m 0,0,1
 463 220 463 220 360 159 c 1,2,3
 427 112 427 112 427 43 c 0,4,5
 427 -26 427 -26 374 -69 c 128,-1,6
 321 -112 321 -112 228 -112 c 0,7,8
 135 -112 135 -112 64 -70 c 1,9,10
 63 -48 63 -48 74.5 -21.5 c 128,-1,11
 86 5 86 5 101 16 c 1,12,13
 180 -20 180 -20 236 -20 c 0,14,15
 267 -20 267 -20 285.5 -6.5 c 128,-1,16
 304 7 304 7 304 30 c 0,17,18
 304 64 304 64 250 86 c 2,19,-1
 192 109 l 1,20,21
 115 141 115 141 72.5 179 c 128,-1,22
 30 217 30 217 30 279 c 0,23,24
 30 367 30 367 132 426 c 1,25,26
 65 473 65 473 65 542 c 0,27,28
 65 611 65 611 117.5 654 c 128,-1,29
 170 697 170 697 252.5 697 c 0,30,31
 335 697 335 697 412 661 c 1,32,33
 413 639 413 639 402.5 613 c 128,-1,34
 392 587 392 587 377 574 c 1,35,36
 303 605 303 605 264 605 c 0,37,38
 225 605 225 605 207 591 c 128,-1,39
 189 577 189 577 189 555 c 0,40,41
 189 522 189 522 242 500 c 2,42,-1
 300 477 l 2,43,44
 378 445 378 445 420.5 406.5 c 128,-1,45
 463 368 463 368 463 307 c 0,0,1
242 376 m 1,46,-1
 215 386 l 1,47,48
 186 372 186 372 168 349 c 128,-1,49
 150 326 150 326 150 298 c 0,50,51
 150 270 150 270 175.5 250 c 128,-1,52
 201 230 201 230 250 210 c 2,53,-1
 277 199 l 1,54,55
 342 233 342 233 342 286 c 0,56,57
 342 316 342 316 316 336.5 c 128,-1,58
 290 357 290 357 242 376 c 1,46,-1
EndSplineSet
EndChar

StartChar: acute
Encoding: 180 180 137
Width: 398
Flags: HMW
HStem: 539 212<168 264>
VStem: 116 229<588 674>
LayerCount: 2
Fore
SplineSet
116 588 m 1,0,-1
 264 751 l 1,1,2
 290 742 290 742 313.5 720.5 c 128,-1,3
 337 699 337 699 345 674 c 1,4,-1
 168 539 l 1,5,6
 131 550 131 550 116 588 c 1,0,-1
EndSplineSet
EndChar

StartChar: grave
Encoding: 96 96 138
Width: 398
Flags: HMW
HStem: 539 212<140 236>
VStem: 59 230<588 674>
LayerCount: 2
Fore
SplineSet
140 751 m 1,0,-1
 289 588 l 1,1,2
 282 571 282 571 267 557.5 c 128,-1,3
 252 544 252 544 236 539 c 1,4,-1
 59 674 l 1,5,6
 68 699 68 699 91.5 721 c 128,-1,7
 115 743 115 743 140 751 c 1,0,-1
EndSplineSet
EndChar

StartChar: tilde
Encoding: 732 732 139
Width: 398
Flags: HMW
HStem: 555 98<269 280.5 269 288> 606 98<117.5 129.5>
VStem: 18 362<605 654>
LayerCount: 2
Fore
SplineSet
206 572 m 1,0,-1
 156 597 l 2,1,2
 140 606 140 606 123 606 c 0,3,4
 106 606 106 606 87 581 c 2,5,-1
 77 567 l 1,6,7
 59 568 59 568 41.5 578.5 c 128,-1,8
 24 589 24 589 18 605 c 1,9,-1
 26 625 l 1,10,11
 42 661 42 661 70 682.5 c 128,-1,12
 98 704 98 704 129 704 c 0,13,14
 160 704 160 704 192 688 c 2,15,-1
 242 662 l 2,16,17
 260 653 260 653 276 653 c 0,18,19
 292 653 292 653 311 678 c 2,20,-1
 321 692 l 1,21,22
 339 691 339 691 356 680.5 c 128,-1,23
 373 670 373 670 380 654 c 1,24,-1
 372 634 l 1,25,26
 356 597 356 597 327.5 576 c 128,-1,27
 299 555 299 555 267.5 555 c 0,28,29
 236 555 236 555 206 572 c 1,0,-1
EndSplineSet
EndChar

StartChar: asciitilde
Encoding: 126 126 140
Width: 604
Flags: HMW
HStem: 204 115<407.5 426 407.5 437> 273 115<178 196.5>
VStem: 36 532<267 325>
LayerCount: 2
Fore
SplineSet
286 367 m 2,0,-1
 366 331 l 2,1,2
 392 319 392 319 419 319 c 0,3,4
 446 319 446 319 473 349 c 2,5,-1
 494 373 l 1,6,7
 515 371 515 371 537.5 358 c 128,-1,8
 560 345 560 345 568 325 c 1,9,-1
 552 298 l 1,10,11
 498 204 498 204 405 204 c 0,12,13
 363 204 363 204 318 225 c 2,14,-1
 238 261 l 1,15,16
 207 273 207 273 189 273 c 0,17,18
 156 273 156 273 131 242 c 1,19,-1
 110 219 l 1,20,21
 89 221 89 221 66.5 234 c 128,-1,22
 44 247 44 247 36 267 c 1,23,-1
 52 294 l 2,24,25
 107 388 107 388 199 388 c 0,26,27
 238 388 238 388 286 367 c 2,0,-1
EndSplineSet
EndChar

StartChar: dieresis
Encoding: 168 168 141
Width: 398
Flags: HMW
HStem: 573 87<48 48 158 158 240 240 350 350>
VStem: 40 118 232 118
LayerCount: 2
Fore
SplineSet
240 573 m 1,0,1
 232 595 232 595 232 616.5 c 128,-1,2
 232 638 232 638 240 660 c 1,3,4
 264 674 264 674 295 674 c 128,-1,5
 326 674 326 674 350 660 c 1,6,7
 358 641 358 641 358 615.5 c 128,-1,8
 358 590 358 590 350 573 c 1,9,10
 327 560 327 560 295 560 c 128,-1,11
 263 560 263 560 240 573 c 1,0,1
48 573 m 1,12,13
 40 592 40 592 40 616.5 c 128,-1,14
 40 641 40 641 48 660 c 1,15,16
 73 674 73 674 103.5 674 c 128,-1,17
 134 674 134 674 158 660 c 1,18,19
 166 638 166 638 166 616 c 128,-1,20
 166 594 166 594 158 573 c 1,21,22
 135 560 135 560 103 560 c 128,-1,23
 71 560 71 560 48 573 c 1,12,13
EndSplineSet
EndChar

StartChar: cedilla
Encoding: 184 184 142
Width: 398
Flags: HMW
HStem: -227 21G<174.5 227.5> -227 66<174.5 194 171 227.5> -91 56 -91 91<179 195.5>
VStem: 221 97<-136 -116>
LayerCount: 2
Fore
SplineSet
141 -75 m 1,0,1
 150 -38 150 -38 167 0 c 1,2,-1
 238 0 l 1,3,4
 229 -17 229 -17 222 -35 c 1,5,6
 265 -37 265 -37 291.5 -61.5 c 128,-1,7
 318 -86 318 -86 318 -127.5 c 0,8,9
 318 -169 318 -169 282 -198 c 128,-1,10
 246 -227 246 -227 193 -227 c 0,11,12
 140 -227 140 -227 109 -205 c 1,13,14
 111 -170 111 -170 131 -147 c 1,15,16
 152 -161 152 -161 180 -161 c 0,17,18
 221 -161 221 -161 221 -126 c 0,19,20
 221 -110 221 -110 211 -100.5 c 128,-1,21
 201 -91 201 -91 187 -91 c 0,22,23
 173 -91 173 -91 161 -95 c 1,24,25
 147 -90 147 -90 141 -75 c 1,0,1
EndSplineSet
EndChar

StartChar: circumflex
Encoding: 710 710 143
Width: 398
Flags: HMW
HStem: 638 94
VStem: 47 304<592 601>
LayerCount: 2
Fore
SplineSet
295 548 m 1,0,-1
 202 638 l 1,1,-1
 103 542 l 1,2,3
 66 557 66 557 47 592 c 1,4,-1
 153 726 l 1,5,6
 176.275862069 733.75862069 176.275862069 733.75862069 202.137931034 733.75862069 c 0,7,8
 228 733.75862069 228 733.75862069 256 727 c 1,9,-1
 351 601 l 1,10,11
 336 564 336 564 295 548 c 1,0,-1
EndSplineSet
EndChar

StartChar: macron
Encoding: 175 175 144
Width: 398
Flags: HMW
HStem: 574 94<54 345 54 345>
VStem: 54 291<574 574 574 668>
LayerCount: 2
Fore
SplineSet
345 574 m 1,0,-1
 54 574 l 1,1,2
 48 593 48 593 48 620.5 c 0,3,4
 48 648 48 648 54 668 c 1,5,-1
 345 668 l 1,6,7
 350 647 350 647 350 620.5 c 0,8,9
 350 594 350 594 345 574 c 1,0,-1
EndSplineSet
EndChar

StartChar: ae
Encoding: 230 230 145
Width: 771
Flags: HMW
HStem: -14 95<200.5 225> -14 98<508.5 563> 208 88<443 614 442 721 443 443> 222 82<215 245 179 253> 409 98<233.5 268> 420 90<501.5 560>
VStem: 38 122<126.5 168 126.5 194> 319 123<296 331 296 358> 614 117<296 307 307 337.5>
LayerCount: 2
Fore
SplineSet
721 208 m 1,0,-1
 443 208 l 1,1,2
 446 149 446 149 469.5 116.5 c 128,-1,3
 493 84 493 84 549 84 c 0,4,5
 605 84 605 84 682 119 c 1,6,7
 711 90 711 90 717 43 c 1,8,9
 639 -14 639 -14 528 -14 c 128,-1,10
 417 -14 417 -14 363 64 c 1,11,12
 287 -14 287 -14 187 -14 c 0,13,14
 116 -14 116 -14 77 31 c 128,-1,15
 38 76 38 76 38 136 c 0,16,17
 38 219 38 219 92.5 261.5 c 128,-1,18
 147 304 147 304 232 304 c 0,19,20
 269 304 269 304 319 299 c 1,21,-1
 319 331 l 2,22,23
 319 409 319 409 244 409 c 0,24,25
 184 409 184 409 90 373 c 1,26,27
 61 404 61 404 57 462 c 1,28,29
 165 507 165 507 257.5 507 c 0,30,31
 350 507 350 507 393 452 c 1,32,33
 449 510 449 510 536.5 510 c 0,34,35
 624 510 624 510 677.5 450 c 128,-1,36
 731 390 731 390 731 297 c 0,37,38
 731 251 731 251 721 208 c 1,0,-1
219 81 m 0,39,40
 282 81 282 81 331 139 c 1,41,42
 320 175 320 175 319 218 c 1,43,44
 283 222 283 222 242.5 222 c 0,45,46
 202 222 202 222 181 201.5 c 128,-1,47
 160 181 160 181 160 149 c 0,48,49
 160 117 160 117 176 99 c 128,-1,50
 192 81 192 81 219 81 c 0,39,40
529 420 m 0,51,52
 450 420 450 420 442 296 c 1,53,-1
 614 296 l 1,54,-1
 614 307 l 2,55,56
 614 357 614 357 593.5 388.5 c 128,-1,57
 573 420 573 420 529 420 c 0,51,52
EndSplineSet
EndChar

StartChar: aacute
Encoding: 225 225 147
Width: 509
Flags: HMW
HStem: -14 95<200.5 219.5> 222 82<215 244 179 253> 409 98<239.5 267.5> 539 212<217 313>
VStem: 38 122<126 167.5 126 193.5> 165 229<588 674> 319 123<129 134 134 218 218 218 300 330 330 338>
LayerCount: 2
Fore
SplineSet
470 56 m 1,0,1
 465 39 465 39 452.5 20.5 c 128,-1,2
 440 2 440 2 427 -8 c 1,3,4
 365 -1 365 -1 336 50 c 1,5,6
 270 -14 270 -14 193 -14 c 0,7,8
 116 -14 116 -14 77 31 c 128,-1,9
 38 76 38 76 38 135 c 0,10,11
 38 219 38 219 92.5 261.5 c 128,-1,12
 147 304 147 304 232 304 c 0,13,14
 278 304 278 304 319 300 c 1,15,-1
 319 330 l 2,16,17
 319 409 319 409 243 409 c 0,18,19
 189 409 189 409 90 373 c 1,20,21
 61 404 61 404 57 462 c 1,22,23
 165 507 165 507 273 507 c 0,24,25
 348 507 348 507 395 465 c 128,-1,26
 442 423 442 423 442 338 c 2,27,-1
 442 134 l 2,28,29
 442 79 442 79 470 56 c 1,0,1
219 81 m 0,30,31
 271 81 271 81 319 129 c 1,32,-1
 319 218 l 1,33,34
 284 222 284 222 243 222 c 0,35,36
 202 222 202 222 181 201 c 128,-1,37
 160 180 160 180 160 148 c 0,38,39
 160 116 160 116 176 98.5 c 128,-1,40
 192 81 192 81 219 81 c 0,30,31
165 588 m 1,41,-1
 313 751 l 1,42,43
 339 742 339 742 362.5 720.5 c 128,-1,44
 386 699 386 699 394 674 c 1,45,-1
 217 539 l 1,46,47
 180 550 180 550 165 588 c 1,41,-1
EndSplineSet
EndChar

StartChar: adieresis
Encoding: 228 228 149
Width: 509
Flags: HMW
HStem: -14 95<200.5 219.5> 222 82<215 244 179 253> 409 98<239.5 267.5> 573 87<96 96 206 206 288 288 398 398>
VStem: 38 122<126 167.5 126 193.5> 88 118 280 118 319 123<129 134 134 218 218 218 300 330 330 338>
LayerCount: 2
Fore
SplineSet
470 56 m 1,0,1
 465 39 465 39 452.5 20.5 c 128,-1,2
 440 2 440 2 427 -8 c 1,3,4
 365 -1 365 -1 336 50 c 1,5,6
 270 -14 270 -14 193 -14 c 128,-1,7
 116 -14 116 -14 77 31 c 128,-1,8
 38 76 38 76 38 135 c 0,9,10
 38 219 38 219 92.5 261.5 c 128,-1,11
 147 304 147 304 232 304 c 0,12,13
 278 304 278 304 319 300 c 1,14,-1
 319 330 l 2,15,16
 319 409 319 409 243 409 c 0,17,18
 189 409 189 409 90 373 c 1,19,20
 61 404 61 404 57 462 c 1,21,22
 165 507 165 507 273 507 c 0,23,24
 348 507 348 507 395 465 c 128,-1,25
 442 423 442 423 442 338 c 2,26,-1
 442 134 l 2,27,28
 442 79 442 79 470 56 c 1,0,1
219 81 m 0,29,30
 271 81 271 81 319 129 c 1,31,-1
 319 218 l 1,32,33
 284 222 284 222 243 222 c 128,-1,34
 202 222 202 222 181 201 c 128,-1,35
 160 180 160 180 160 148 c 128,-1,36
 160 116 160 116 176 98.5 c 128,-1,37
 192 81 192 81 219 81 c 0,29,30
288 573 m 1,38,39
 280 595 280 595 280 616.5 c 128,-1,40
 280 638 280 638 288 660 c 1,41,42
 312 674 312 674 343 674 c 128,-1,43
 374 674 374 674 398 660 c 1,44,45
 406 641 406 641 406 615.5 c 128,-1,46
 406 590 406 590 398 573 c 1,47,48
 375 560 375 560 343 560 c 128,-1,49
 311 560 311 560 288 573 c 1,38,39
96 573 m 1,50,51
 88 592 88 592 88 616.5 c 128,-1,52
 88 641 88 641 96 660 c 1,53,54
 121 674 121 674 151.5 674 c 128,-1,55
 182 674 182 674 206 660 c 1,56,57
 214 638 214 638 214 616 c 128,-1,58
 214 594 214 594 206 573 c 1,59,60
 183 560 183 560 151 560 c 128,-1,61
 119 560 119 560 96 573 c 1,50,51
EndSplineSet
EndChar

StartChar: aring
Encoding: 229 229 151
Width: 509
Flags: HMW
HStem: -14 95<200.5 219.5> 222 82<215 244 179 253> 409 98<239.5 267.5> 540 67<232 262 232 285.5> 713 66<232 262>
VStem: 38 122<126 167.5 126 193.5> 118 79<645 675 645 692.5> 297 79<645 675> 319 123<129 134 134 218 218 218 300 330 330 338>
LayerCount: 2
Fore
SplineSet
470 56 m 1,0,1
 465 39 465 39 452.5 20.5 c 128,-1,2
 440 2 440 2 427 -8 c 1,3,4
 365 -1 365 -1 336 50 c 1,5,6
 270 -14 270 -14 193 -14 c 128,-1,7
 116 -14 116 -14 77 31 c 128,-1,8
 38 76 38 76 38 135 c 0,9,10
 38 219 38 219 92.5 261.5 c 128,-1,11
 147 304 147 304 232 304 c 0,12,13
 278 304 278 304 319 300 c 1,14,-1
 319 330 l 2,15,16
 319 409 319 409 243 409 c 0,17,18
 189 409 189 409 90 373 c 1,19,20
 61 404 61 404 57 462 c 1,21,22
 165 507 165 507 273 507 c 0,23,24
 348 507 348 507 395 465 c 128,-1,25
 442 423 442 423 442 338 c 2,26,-1
 442 134 l 2,27,28
 442 79 442 79 470 56 c 1,0,1
219 81 m 0,29,30
 271 81 271 81 319 129 c 1,31,-1
 319 218 l 1,32,33
 284 222 284 222 243 222 c 128,-1,34
 202 222 202 222 181 201 c 128,-1,35
 160 180 160 180 160 148 c 128,-1,36
 160 116 160 116 176 98.5 c 128,-1,37
 192 81 192 81 219 81 c 0,29,30
154 574.5 m 128,-1,39
 118 609 118 609 118 659.5 c 128,-1,40
 118 710 118 710 154 744.5 c 128,-1,41
 190 779 190 779 247 779 c 128,-1,42
 304 779 304 779 340 744.5 c 128,-1,43
 376 710 376 710 376 659.5 c 128,-1,44
 376 609 376 609 340 574.5 c 128,-1,45
 304 540 304 540 247 540 c 128,-1,38
 190 540 190 540 154 574.5 c 128,-1,39
197 660 m 128,-1,47
 197 637 197 637 211 622 c 128,-1,48
 225 607 225 607 247 607 c 128,-1,49
 269 607 269 607 283 622 c 128,-1,50
 297 637 297 637 297 660 c 128,-1,51
 297 683 297 683 283 698 c 128,-1,52
 269 713 269 713 247 713 c 128,-1,53
 225 713 225 713 211 698 c 128,-1,46
 197 683 197 683 197 660 c 128,-1,47
EndSplineSet
EndChar

StartChar: ccedilla
Encoding: 231 231 152
Width: 472
Flags: HMW
HStem: -227 21G<225 278> -227 66<225 244 221 278> -91 56 416 94<222.5 283.5>
VStem: 39 127<188.5 303.5 188.5 340> 272 96<-136 -116> 327 113
LayerCount: 2
Fore
SplineSet
191 -75 m 1,0,1
 201 -37 201 -37 212 -11 c 1,2,3
 127 2 127 2 83 71.5 c 128,-1,4
 39 141 39 141 39 246 c 0,5,6
 39 378 39 378 102 444 c 128,-1,7
 165 510 165 510 252 510 c 0,8,9
 339 510 339 510 389.5 463.5 c 128,-1,10
 440 417 440 417 440 352.5 c 0,11,12
 440 288 440 288 378 288 c 0,13,14
 355 288 355 288 327 293 c 1,15,16
 327.216216216 299.378378378 327.216216216 299.378378378 327.216216216 305.441197955 c 0,17,18
 327.216216216 355.459459459 327.216216216 355.459459459 311.608108108 385.72972973 c 0,19,20
 296 416 296 416 251 416 c 0,21,22
 166 416 166 416 166 250.5 c 0,23,24
 166 85 166 85 269 85 c 0,25,26
 321 85 321 85 386 133 c 1,27,28
 402 123 402 123 416 102 c 128,-1,29
 430 81 430 81 435 61 c 1,30,31
 374 0 374 0 282 -12 c 1,32,33
 275 -24 275 -24 272 -35 c 1,34,35
 315 -37 315 -37 341.5 -61.5 c 128,-1,36
 368 -86 368 -86 368 -127.5 c 0,37,38
 368 -169 368 -169 332.5 -198 c 128,-1,39
 297 -227 297 -227 243.5 -227 c 0,40,41
 190 -227 190 -227 159 -205 c 1,42,43
 161 -172 161 -172 182 -147 c 1,44,45
 203 -161 203 -161 230 -161 c 0,46,47
 272 -161 272 -161 272 -126 c 0,48,49
 272 -111 272 -111 261.5 -101 c 128,-1,50
 251 -91 251 -91 237 -91 c 0,51,52
 223 -91 223 -91 211 -95 c 1,53,54
 196 -90 196 -90 191 -75 c 1,0,1
EndSplineSet
EndChar

StartChar: eacute
Encoding: 233 233 154
Width: 499
Flags: HMW
HStem: -14 98<232 286> 208 88<166 339 165 446 166 166> 420 90<225 284> 539 212<225 321>
VStem: 39 127<208 208 208 321> 173 229<588 674> 339 117<296 308 308 338.5>
LayerCount: 2
Fore
SplineSet
446 208 m 1,0,-1
 166 208 l 1,1,2
 169 149 169 149 192.5 116.5 c 128,-1,3
 216 84 216 84 275 84 c 0,4,5
 334 84 334 84 406 119 c 1,6,7
 434 92 434 92 442 43 c 1,8,9
 362 -14 362 -14 249.5 -14 c 0,10,11
 137 -14 137 -14 88 59 c 128,-1,12
 39 132 39 132 39 248 c 0,13,14
 39 364 39 364 93 437 c 128,-1,15
 147 510 147 510 247.5 510 c 0,16,17
 348 510 348 510 402 449.5 c 128,-1,18
 456 389 456 389 456 297 c 0,19,20
 456 251 456 251 446 208 c 1,0,-1
253 420 m 0,21,22
 171 420 171 420 165 296 c 1,23,-1
 339 296 l 1,24,-1
 339 308 l 2,25,26
 339 358 339 358 318 389 c 128,-1,27
 297 420 297 420 253 420 c 0,21,22
173 588 m 1,28,-1
 321 751 l 1,29,30
 347 742 347 742 370.5 720.5 c 128,-1,31
 394 699 394 699 402 674 c 1,32,-1
 225 539 l 1,33,34
 188 550 188 550 173 588 c 1,28,-1
EndSplineSet
EndChar

StartChar: edieresis
Encoding: 235 235 156
Width: 499
Flags: HMW
HStem: -14 98<232 286> 208 88<166 339 165 446 166 166> 420 90<225 284> 573 87<104 104 214 214 296 296 406 406>
VStem: 39 127<208 208 208 321> 96 118 288 118 339 117<296 308 308 338.5>
LayerCount: 2
Fore
SplineSet
446 208 m 1,0,-1
 166 208 l 1,1,2
 169 149 169 149 192.5 116.5 c 128,-1,3
 216 84 216 84 275 84 c 128,-1,4
 334 84 334 84 406 119 c 1,5,6
 434 92 434 92 442 43 c 1,7,8
 362 -14 362 -14 249.5 -14 c 128,-1,9
 137 -14 137 -14 88 59 c 128,-1,10
 39 132 39 132 39 248 c 128,-1,11
 39 364 39 364 93 437 c 128,-1,12
 147 510 147 510 247.5 510 c 128,-1,13
 348 510 348 510 402 449.5 c 128,-1,14
 456 389 456 389 456 297 c 0,15,16
 456 251 456 251 446 208 c 1,0,-1
253 420 m 0,17,18
 171 420 171 420 165 296 c 1,19,-1
 339 296 l 1,20,-1
 339 308 l 2,21,22
 339 358 339 358 318 389 c 128,-1,23
 297 420 297 420 253 420 c 0,17,18
296 573 m 1,24,25
 288 595 288 595 288 616.5 c 128,-1,26
 288 638 288 638 296 660 c 1,27,28
 320 674 320 674 351 674 c 128,-1,29
 382 674 382 674 406 660 c 1,30,31
 414 641 414 641 414 615.5 c 128,-1,32
 414 590 414 590 406 573 c 1,33,34
 383 560 383 560 351 560 c 128,-1,35
 319 560 319 560 296 573 c 1,24,25
104 573 m 1,36,37
 96 592 96 592 96 616.5 c 128,-1,38
 96 641 96 641 104 660 c 1,39,40
 129 674 129 674 159.5 674 c 128,-1,41
 190 674 190 674 214 660 c 1,42,43
 222 638 222 638 222 616 c 128,-1,44
 222 594 222 594 214 573 c 1,45,46
 191 560 191 560 159 560 c 128,-1,47
 127 560 127 560 104 573 c 1,36,37
EndSplineSet
EndChar

StartChar: hbar
Encoding: 295 295 157
Width: 546
Flags: HMW
HStem: 393 111<315.5 322> 565 79<74 74>
VStem: 74 121<0 341 442 565 565 565 644 659> 355 124<95 113 113 308 308 335>
LayerCount: 2
Fore
SplineSet
195 659 m 2,0,-1
 195 643 l 1,1,-1
 348 646 l 1,2,3
 354 622 354 622 354 604 c 0,4,5
 354 586 354 586 348 564 c 1,6,-1
 195 566 l 1,7,-1
 195 442 l 1,8,9
 266 504 266 504 338 504 c 0,10,11
 410 504 410 504 444.5 457.5 c 128,-1,12
 479 411 479 411 479 335 c 2,13,-1
 479 113 l 2,14,15
 479 52 479 52 499 19 c 1,16,17
 468 -7 468 -7 426.5 -7 c 0,18,19
 385 -7 385 -7 370 12 c 128,-1,20
 355 31 355 31 355 71 c 2,21,-1
 355 308 l 2,22,23
 355 354 355 354 343.5 373.5 c 128,-1,24
 332 393 332 393 301 393 c 0,25,26
 244 393 244 393 195 341 c 1,27,-1
 195 0 l 1,28,29
 167 -5 167 -5 135.5 -5 c 0,30,31
 104 -5 104 -5 74 0 c 1,32,-1
 74 565 l 1,33,-1
 2 564 l 1,34,35
 -3 583 -3 583 -3 604.5 c 0,36,37
 -3 626 -3 626 2 646 c 1,38,-1
 74 644 l 1,39,-1
 74 729 l 1,40,-1
 81 736 l 1,41,-1
 128 736 l 2,42,43
 166 736 166 736 180.5 718.5 c 128,-1,44
 195 701 195 701 195 659 c 2,0,-1
EndSplineSet
EndChar

StartChar: dotlessi
Encoding: 305 305 158
Width: 282
Flags: HMW
HStem: 407 92<31 120 31 120>
VStem: 88 124<0 353 353 370>
LayerCount: 2
Fore
SplineSet
212 399 m 2,0,-1
 212 0 l 1,1,2
 184 -5 184 -5 151 -5 c 0,3,4
 118 -5 118 -5 88 0 c 1,5,-1
 88 353 l 2,6,7
 88 407 88 407 43 407 c 2,8,-1
 31 407 l 1,9,10
 26 424 26 424 26 450 c 128,-1,11
 26 476 26 476 31 495 c 1,12,13
 67 499 67 499 104 499 c 2,14,-1
 120 499 l 2,15,16
 163 499 163 499 187.5 472 c 128,-1,17
 212 445 212 445 212 399 c 2,0,-1
EndSplineSet
EndChar

StartChar: itilde
Encoding: 297 297 159
Width: 277
Flags: HMW
HStem: 407 92<27 116 27 116> 555 98<196 207.5 196 215>
VStem: -55 362<605 654> 84 124<0 353 353 370>
LayerCount: 2
Fore
SplineSet
208 399 m 2,0,-1
 208 0 l 1,1,2
 180 -5 180 -5 147 -5 c 0,3,4
 114 -5 114 -5 84 0 c 1,5,-1
 84 353 l 2,6,7
 84 407 84 407 39 407 c 2,8,-1
 27 407 l 1,9,10
 22 424 22 424 22 450 c 128,-1,11
 22 476 22 476 27 495 c 1,12,13
 63 499 63 499 100 499 c 2,14,-1
 116 499 l 2,15,16
 159 499 159 499 183.5 472 c 128,-1,17
 208 445 208 445 208 399 c 2,0,-1
133 572 m 1,18,-1
 83 597 l 2,19,20
 67 606 67 606 50 606 c 0,21,22
 33 606 33 606 14 581 c 2,23,-1
 4 567 l 1,24,25
 -14 568 -14 568 -31.5 578.5 c 128,-1,26
 -49 589 -49 589 -55 605 c 1,27,-1
 -47 625 l 1,28,29
 -31 661 -31 661 -3 682.5 c 128,-1,30
 25 704 25 704 56 704 c 0,31,32
 87 704 87 704 119 688 c 2,33,-1
 169 662 l 2,34,35
 187 653 187 653 203 653 c 0,36,37
 219 653 219 653 238 678 c 2,38,-1
 248 692 l 1,39,40
 266 691 266 691 283 680.5 c 128,-1,41
 300 670 300 670 307 654 c 1,42,-1
 299 634 l 1,43,44
 283 597 283 597 254.5 576 c 128,-1,45
 226 555 226 555 194.5 555 c 0,46,47
 163 555 163 555 133 572 c 1,18,-1
EndSplineSet
EndChar

StartChar: ij
Encoding: 307 307 160
Width: 564
Flags: HMW
HStem: -220 21G 407 92<31 120 31 120> 586 99<67 67 193 193 348 348 474 474>
VStem: 57 136 88 124<0 353 353 370> 372 123<-21 22 22 353 353 370>
LayerCount: 2
Fore
SplineSet
212 399 m 2,0,-1
 212 0 l 1,1,2
 184 -5 184 -5 151 -5 c 128,-1,3
 118 -5 118 -5 88 0 c 1,4,-1
 88 353 l 2,5,6
 88 407 88 407 43 407 c 2,7,-1
 31 407 l 1,8,9
 26 424 26 424 26 450 c 128,-1,10
 26 476 26 476 31 495 c 1,11,12
 67 499 67 499 104 499 c 2,13,-1
 120 499 l 2,14,15
 163 499 163 499 187.5 472 c 128,-1,16
 212 445 212 445 212 399 c 2,0,-1
67 586 m 1,17,18
 57 609 57 609 57 635.5 c 128,-1,19
 57 662 57 662 67 685 c 1,20,21
 93 699 93 699 131.5 699 c 128,-1,22
 170 699 170 699 193 685 c 1,23,24
 203 662 203 662 203 635.5 c 128,-1,25
 203 609 203 609 193 586 c 1,26,27
 170 572 170 572 128.5 572 c 128,-1,28
 87 572 87 572 67 586 c 1,17,18
495 399 m 2,29,-1
 495 22 l 2,30,31
 495 -64.6842105263 495 -64.6842105263 482.5 -102.842105263 c 128,-1,32
 470 -141 470 -141 452.5 -160 c 0,33,34
 415.019470405 -200.693146417 415.019470405 -200.693146417 332 -220 c 1,35,36
 302 -193 302 -193 297 -144 c 1,37,38
 340 -123 340 -123 356 -98 c 128,-1,39
 372 -73 372 -73 372 -21 c 2,40,-1
 372 353 l 2,41,42
 372 407 372 407 327 407 c 2,43,-1
 306 407 l 1,44,45
 301 424 301 424 301 450 c 128,-1,46
 301 476 301 476 306 495 c 1,47,48
 346 499 346 499 388 499 c 2,49,-1
 405 499 l 2,50,51
 447 499 447 499 471 472.5 c 128,-1,52
 495 446 495 446 495 399 c 2,29,-1
348 586 m 1,53,54
 338 609 338 609 338 635.5 c 128,-1,55
 338 662 338 662 348 685 c 1,56,57
 374 699 374 699 412.5 699 c 128,-1,58
 451 699 451 699 474 685 c 1,59,60
 484 662 484 662 484 635.5 c 128,-1,61
 484 609 484 609 474 586 c 1,62,63
 451 572 451 572 409.5 572 c 128,-1,64
 368 572 368 572 348 586 c 1,53,54
EndSplineSet
EndChar

StartChar: igrave
Encoding: 236 236 161
Width: 277
Flags: HMW
HStem: 407 92<27 116 27 116> 539 212<68 164>
VStem: -13 230<588 674> 84 124<0 353 353 370>
LayerCount: 2
Fore
SplineSet
208 399 m 2,0,-1
 208 0 l 1,1,2
 180 -5 180 -5 147 -5 c 0,3,4
 114 -5 114 -5 84 0 c 1,5,-1
 84 353 l 2,6,7
 84 407 84 407 39 407 c 2,8,-1
 27 407 l 1,9,10
 22 424 22 424 22 450 c 128,-1,11
 22 476 22 476 27 495 c 1,12,13
 63 499 63 499 100 499 c 2,14,-1
 116 499 l 2,15,16
 159 499 159 499 183.5 472 c 128,-1,17
 208 445 208 445 208 399 c 2,0,-1
68 751 m 1,18,-1
 217 588 l 1,19,20
 210 571 210 571 195 557.5 c 128,-1,21
 180 544 180 544 164 539 c 1,22,-1
 -13 674 l 1,23,24
 -4 699 -4 699 19.5 721 c 128,-1,25
 43 743 43 743 68 751 c 1,18,-1
EndSplineSet
EndChar

StartChar: iacute
Encoding: 237 237 162
Width: 277
Flags: HMW
HStem: 407 92<27 116 27 116> 539 212<96 192>
VStem: 44 229<588 674> 84 124<0 353 353 370>
LayerCount: 2
Fore
SplineSet
208 399 m 2,0,-1
 208 0 l 1,1,2
 180 -5 180 -5 147 -5 c 0,3,4
 114 -5 114 -5 84 0 c 1,5,-1
 84 353 l 2,6,7
 84 407 84 407 39 407 c 2,8,-1
 27 407 l 1,9,10
 22 424 22 424 22 450 c 128,-1,11
 22 476 22 476 27 495 c 1,12,13
 63 499 63 499 100 499 c 2,14,-1
 116 499 l 2,15,16
 159 499 159 499 183.5 472 c 128,-1,17
 208 445 208 445 208 399 c 2,0,-1
44 588 m 1,18,-1
 192 751 l 1,19,20
 218 742 218 742 241.5 720.5 c 128,-1,21
 265 699 265 699 273 674 c 1,22,-1
 96 539 l 1,23,24
 59 550 59 550 44 588 c 1,18,-1
EndSplineSet
EndChar

StartChar: icircumflex
Encoding: 238 238 163
Width: 277
Flags: HMW
HStem: 407 92<27 116 27 116> 638 94
VStem: -26 304<592 601> 84 124<0 353 353 370>
LayerCount: 2
Fore
SplineSet
208 399 m 2,0,-1
 208 0 l 1,1,2
 180 -5 180 -5 147 -5 c 0,3,4
 114 -5 114 -5 84 0 c 1,5,-1
 84 353 l 2,6,7
 84 407 84 407 39 407 c 2,8,-1
 27 407 l 1,9,10
 22 424 22 424 22 450 c 128,-1,11
 22 476 22 476 27 495 c 1,12,13
 63 499 63 499 100 499 c 2,14,-1
 116 499 l 2,15,16
 159 499 159 499 183.5 472 c 128,-1,17
 208 445 208 445 208 399 c 2,0,-1
222 548 m 1,18,-1
 129 638 l 1,19,-1
 30 542 l 1,20,21
 -7 557 -7 557 -26 592 c 1,22,-1
 80 726 l 1,23,24
 103.275862069 733.75862069 103.275862069 733.75862069 129.137931034 733.75862069 c 0,25,26
 155 733.75862069 155 733.75862069 183 727 c 1,27,-1
 278 601 l 1,28,29
 263 564 263 564 222 548 c 1,18,-1
EndSplineSet
EndChar

StartChar: idieresis
Encoding: 239 239 164
Width: 277
Flags: HMW
HStem: 407 92<27 116 27 116> 573 87<-25 -25 85 85 167 167 277 277>
VStem: -33 118 84 124<0 353 353 370> 159 118
LayerCount: 2
Fore
SplineSet
208 399 m 2,0,-1
 208 0 l 1,1,2
 180 -5 180 -5 147 -5 c 128,-1,3
 114 -5 114 -5 84 0 c 1,4,-1
 84 353 l 2,5,6
 84 407 84 407 39 407 c 2,7,-1
 27 407 l 1,8,9
 22 424 22 424 22 450 c 128,-1,10
 22 476 22 476 27 495 c 1,11,12
 63 499 63 499 100 499 c 2,13,-1
 116 499 l 2,14,15
 159 499 159 499 183.5 472 c 128,-1,16
 208 445 208 445 208 399 c 2,0,-1
167 573 m 1,17,18
 159 595 159 595 159 616.5 c 128,-1,19
 159 638 159 638 167 660 c 1,20,21
 192 674 192 674 222 674 c 128,-1,22
 252 674 252 674 277 660 c 1,23,24
 285 641 285 641 285 615.5 c 128,-1,25
 285 590 285 590 277 573 c 1,26,27
 254 560 254 560 222 560 c 128,-1,28
 190 560 190 560 167 573 c 1,17,18
-25 573 m 1,29,30
 -33 592 -33 592 -33 616.5 c 128,-1,31
 -33 641 -33 641 -25 660 c 1,32,33
 -1 674 -1 674 29.5 674 c 128,-1,34
 60 674 60 674 85 660 c 1,35,36
 93 638 93 638 93 616 c 128,-1,37
 93 594 93 594 85 573 c 1,38,39
 62 560 62 560 30 560 c 128,-1,40
 -2 560 -2 560 -25 573 c 1,29,30
EndSplineSet
EndChar

StartChar: jcircumflex
Encoding: 309 309 165
Width: 281
Flags: HMW
HStem: -220 21G 407 92<24 123 24 123> 638 94
VStem: -23 304<592 601> 90 123<-21 22 22 353 353 370>
LayerCount: 2
Fore
SplineSet
213 399 m 2,0,-1
 213 22 l 2,1,2
 213 -64.6842105263 213 -64.6842105263 200.5 -102.842105263 c 128,-1,3
 188 -141 188 -141 170.5 -160 c 0,4,5
 133.019470405 -200.693146417 133.019470405 -200.693146417 50 -220 c 1,6,7
 20 -193 20 -193 15 -144 c 1,8,9
 58 -123 58 -123 74 -98 c 128,-1,10
 90 -73 90 -73 90 -21 c 2,11,-1
 90 353 l 2,12,13
 90 407 90 407 45 407 c 2,14,-1
 24 407 l 1,15,16
 19 424 19 424 19 450 c 128,-1,17
 19 476 19 476 24 495 c 1,18,19
 64 499 64 499 106 499 c 2,20,-1
 123 499 l 2,21,22
 165 499 165 499 189 472.5 c 128,-1,23
 213 446 213 446 213 399 c 2,0,-1
225 548 m 1,24,-1
 132 638 l 1,25,-1
 33 542 l 1,26,27
 -4 557 -4 557 -23 592 c 1,28,-1
 83 726 l 1,29,30
 106.275862069 733.75862069 106.275862069 733.75862069 132.137931034 733.75862069 c 128,-1,31
 158 733.75862069 158 733.75862069 186 727 c 1,32,-1
 281 601 l 1,33,34
 266 564 266 564 225 548 c 1,24,-1
EndSplineSet
EndChar

StartChar: kcommaaccent
Encoding: 311 311 166
Width: 510
Flags: HMW
HStem: -274 21G -223 21G -73 21 209 102<219 251.5> 490 9
VStem: 71 121<0 207 0 310 310 659> 231 111<-145.5 -116.5>
LayerCount: 2
Fore
SplineSet
419 191 m 1,0,-1
 449 112 l 1,1,2
 471 49 471 49 497 31 c 1,3,4
 463 -7 463 -7 414 -7 c 0,5,6
 385 -7 385 -7 370.5 7 c 128,-1,7
 356 21 356 21 343 55 c 2,8,-1
 307 149 l 2,9,10
 293 185 293 185 277.5 197 c 128,-1,11
 262 209 262 209 240 209 c 128,-1,12
 218 209 218 209 192 207 c 1,13,-1
 192 0 l 1,14,15
 164 -5 164 -5 132.5 -5 c 128,-1,16
 101 -5 101 -5 71 0 c 1,17,-1
 71 729 l 1,18,-1
 78 736 l 1,19,-1
 125 736 l 2,20,21
 163 736 163 736 177.5 718.5 c 128,-1,22
 192 701 192 701 192 659 c 2,23,-1
 192 310 l 1,24,-1
 219 311 l 2,25,26
 234 311 234 311 245 327 c 1,27,-1
 318 450 l 2,28,29
 346 499 346 499 392 499 c 128,-1,30
 438 499 438 499 461 498 c 1,31,-1
 467 490 l 1,32,-1
 370 326 l 2,33,34
 352 295 352 295 330 280 c 1,35,36
 391 261 391 261 419 191 c 1,0,-1
218 -73 m 1,37,38
 247.071428571 -51.8571428571 247.071428571 -51.8571428571 279.892857143 -51.8571428571 c 128,-1,39
 312.714285714 -51.8571428571 312.714285714 -51.8571428571 332 -59 c 1,40,41
 342 -79 342 -79 342 -114 c 0,42,43
 342 -168 342 -168 306 -210.5 c 128,-1,44
 270 -253 270 -253 207 -274 c 1,45,46
 175 -264 175 -264 168 -223 c 1,47,48
 231 -184 231 -184 231 -125 c 0,49,50
 231 -97 231 -97 218 -73 c 1,37,38
EndSplineSet
EndChar

StartChar: kgreenlandic
Encoding: 312 312 167
Width: 510
Flags: HMW
HStem: 209 102<219 251.5> 490 9
VStem: 71 121<0 207 0 310 310 424>
LayerCount: 2
Fore
SplineSet
419 191 m 1,0,-1
 449 112 l 1,1,2
 471 49 471 49 497 31 c 1,3,4
 463 -7 463 -7 414 -7 c 0,5,6
 385 -7 385 -7 370.5 7 c 128,-1,7
 356 21 356 21 343 55 c 2,8,-1
 307 149 l 2,9,10
 293 185 293 185 277.5 197 c 128,-1,11
 262 209 262 209 240 209 c 0,12,13
 218 209 218 209 192 207 c 1,14,-1
 192 0 l 1,15,16
 164 -5 164 -5 132.5 -5 c 0,17,18
 101 -5 101 -5 71 0 c 1,19,-1
 71 495 l 1,20,-1
 78 501 l 1,21,-1
 125 501 l 2,22,23
 163 501 163 501 177.5 483.5 c 128,-1,24
 192 466 192 466 192 424 c 2,25,-1
 192 310 l 1,26,-1
 219 311 l 2,27,28
 234 311 234 311 245 327 c 1,29,-1
 318 450 l 2,30,31
 346 499 346 499 392 499 c 0,32,33
 438 499 438 499 461 498 c 1,34,-1
 467 490 l 1,35,-1
 370 326 l 2,36,37
 352 295 352 295 330 280 c 1,38,39
 391 261 391 261 419 191 c 1,0,-1
EndSplineSet
EndChar

StartChar: ldot
Encoding: 320 320 168
Width: 370
Flags: HMW
HStem: -5 97<141 265> 306 103<257 257 373 373>
VStem: 70 121<122 137 137 659> 248 125
LayerCount: 2
Fore
SplineSet
232 92 m 2,0,-1
 265 92 l 1,1,2
 275 62 275 62 275 39 c 128,-1,3
 275 16 275 16 272 4 c 1,4,5
 214 -5 214 -5 178 -5 c 0,6,7
 70 -5 70 -5 70 112 c 2,8,-1
 70 729 l 1,9,-1
 76 736 l 1,10,-1
 124 736 l 2,11,12
 161 736 161 736 176 718.5 c 128,-1,13
 191 701 191 701 191 659 c 2,14,-1
 191 137 l 2,15,16
 191 92 191 92 232 92 c 2,0,-1
257 306 m 1,17,18
 248 326 248 326 248 356.5 c 128,-1,19
 248 387 248 387 257 409 c 1,20,21
 282 423 282 423 316 423 c 128,-1,22
 350 423 350 423 373 409 c 1,23,24
 381 389 381 389 381 356 c 128,-1,25
 381 323 381 323 373 306 c 1,26,27
 354 291 354 291 316 291 c 128,-1,28
 278 291 278 291 257 306 c 1,17,18
EndSplineSet
EndChar

StartChar: lslash
Encoding: 322 322 169
Width: 344
Flags: HMW
HStem: -5 97<172.5 296>
VStem: 102 120<122 137 137 289 289 289 451 659>
LayerCount: 2
Fore
SplineSet
263 92 m 2,0,-1
 296 92 l 1,1,2
 306 66 306 66 306 39 c 0,3,4
 306 12 306 12 304 4 c 1,5,6
 246 -5 246 -5 210 -5 c 0,7,8
 154 -5 154 -5 128 23.5 c 128,-1,9
 102 52 102 52 102 112 c 2,10,-1
 102 289 l 1,11,-1
 33 254 l 1,12,-1
 24 259 l 1,13,14
 16.9583333333 280.666666667 16.9583333333 280.666666667 16.9583333333 303.645833333 c 0,15,16
 16.9583333333 326.625 16.9583333333 326.625 22 350 c 1,17,-1
 102 390 l 1,18,-1
 102 729 l 1,19,-1
 108 736 l 1,20,-1
 155 736 l 2,21,22
 192 736 192 736 207 718.5 c 128,-1,23
 222 701 222 701 222 659 c 2,24,-1
 222 451 l 1,25,-1
 299 491 l 1,26,-1
 308 486 l 1,27,28
 314.545454545 465.818181818 314.545454545 465.818181818 314.545454545 442.681818182 c 0,29,30
 314.545454545 419.545454545 314.545454545 419.545454545 310 395 c 1,31,-1
 222 350 l 1,32,-1
 222 137 l 2,33,34
 222 92 222 92 263 92 c 2,0,-1
EndSplineSet
EndChar

StartChar: ntilde
Encoding: 241 241 171
Width: 546
Flags: HMW
HStem: 393 112<314 321.5> 481 20G<78 124 124 144> 555 98<349 360.5 349 368>
VStem: 71 124<0 343 0 495> 98 362<605 654> 355 124<95 113 113 309 309 335>
LayerCount: 2
Fore
SplineSet
479 335 m 2,0,-1
 479 113 l 2,1,2
 479 52 479 52 499 19 c 1,3,4
 466 -7 466 -7 425.5 -7 c 0,5,6
 385 -7 385 -7 370 12 c 128,-1,7
 355 31 355 31 355 71 c 2,8,-1
 355 309 l 2,9,10
 355 354 355 354 343 373.5 c 128,-1,11
 331 393 331 393 300 393 c 0,12,13
 243 393 243 393 195 343 c 1,14,-1
 195 0 l 1,15,16
 167 -5 167 -5 134 -5 c 0,17,18
 101 -5 101 -5 71 0 c 1,19,-1
 71 495 l 1,20,-1
 78 501 l 1,21,-1
 124 501 l 2,22,23
 181 501 181 501 192 441 c 1,24,25
 265 505 265 505 337.5 505 c 0,26,27
 410 505 410 505 444.5 458 c 128,-1,28
 479 411 479 411 479 335 c 2,0,-1
286 572 m 1,29,-1
 236 597 l 2,30,31
 220 606 220 606 203 606 c 0,32,33
 186 606 186 606 167 581 c 2,34,-1
 157 567 l 1,35,36
 139 568 139 568 121.5 578.5 c 128,-1,37
 104 589 104 589 98 605 c 1,38,-1
 106 625 l 1,39,40
 122 661 122 661 150 682.5 c 128,-1,41
 178 704 178 704 209 704 c 0,42,43
 240 704 240 704 272 688 c 2,44,-1
 322 662 l 2,45,46
 340 653 340 653 356 653 c 0,47,48
 372 653 372 653 391 678 c 2,49,-1
 401 692 l 1,50,51
 419 691 419 691 436 680.5 c 128,-1,52
 453 670 453 670 460 654 c 1,53,-1
 452 634 l 1,54,55
 436 597 436 597 407.5 576 c 128,-1,56
 379 555 379 555 347.5 555 c 0,57,58
 316 555 316 555 286 572 c 1,29,-1
EndSplineSet
EndChar

StartChar: oe
Encoding: 339 339 172
Width: 818
Flags: HMW
HStem: -14 94<230 297> 208 88<489 660 488 767 489 489> 416 94<230 297.5 230 299> 420 90<547.5 606.5>
VStem: 39 127<206 290> 355 133<203.5 296> 660 117<296 307 307 338>
LayerCount: 2
Fore
SplineSet
767 208 m 1,0,-1
 489 208 l 1,1,2
 492 149 492 149 515.5 116.5 c 128,-1,3
 539 84 539 84 596.5 84 c 0,4,5
 654 84 654 84 728 119 c 1,6,7
 756 91 756 91 764 43 c 1,8,9
 684 -14 684 -14 576 -14 c 0,10,11
 468 -14 468 -14 418 57 c 1,12,13
 365 -14 365 -14 266 -14 c 0,14,15
 167 -14 167 -14 110 43 c 0,16,17
 39 113 39 113 39 247.5 c 0,18,19
 39 382 39 382 110 453 c 0,20,21
 167 510 167 510 266.5 510 c 0,22,23
 366 510 366 510 420 435 c 1,24,25
 471 510 471 510 570.5 510 c 0,26,27
 670 510 670 510 723.5 450 c 128,-1,28
 777 390 777 390 777 297 c 0,29,30
 777 251 777 251 767 208 c 1,0,-1
166 248 m 128,-1,32
 166 80 166 80 260.5 80 c 0,33,34
 355 80 355 80 355 248 c 128,-1,35
 355 416 355 416 260.5 416 c 0,36,31
 166 416 166 416 166 248 c 128,-1,32
576 420 m 0,37,38
 496 420 496 420 488 296 c 1,39,-1
 660 296 l 1,40,-1
 660 307 l 2,41,42
 660 357 660 357 639.5 388.5 c 128,-1,43
 619 420 619 420 576 420 c 0,37,38
EndSplineSet
EndChar

StartChar: oacute
Encoding: 243 243 174
Width: 521
Flags: HMW
HStem: -14 94<230 290.5> 416 94<230 290.5 230 299> 539 212<230 326>
VStem: 39 127<205.5 290> 178 229<588 674> 355 127<205.5 290 205.5 292>
LayerCount: 2
Fore
SplineSet
482 248 m 128,-1,1
 482 114 482 114 411 43 c 0,2,3
 354 -14 354 -14 260.5 -14 c 0,4,5
 167 -14 167 -14 110 43 c 0,6,7
 39 114 39 114 39 248 c 128,-1,8
 39 382 39 382 110 453 c 0,9,10
 167 510 167 510 260.5 510 c 0,11,12
 354 510 354 510 411 453 c 0,13,0
 482 382 482 382 482 248 c 128,-1,1
166 248 m 128,-1,15
 166 80 166 80 260.5 80 c 0,16,17
 355 80 355 80 355 248 c 128,-1,18
 355 416 355 416 260.5 416 c 0,19,14
 166 416 166 416 166 248 c 128,-1,15
178 588 m 1,20,-1
 326 751 l 1,21,22
 352 742 352 742 375.5 720.5 c 128,-1,23
 399 699 399 699 407 674 c 1,24,-1
 230 539 l 1,25,26
 193 550 193 550 178 588 c 1,20,-1
EndSplineSet
EndChar

StartChar: otilde
Encoding: 245 245 176
Width: 521
Flags: HMW
HStem: -14 94<230 290.5> 416 94<230 290.5 230 299> 555 98<330 341.5 330 349>
VStem: 39 127<205.5 290> 79 362<605 654> 355 127<205.5 290 205.5 292>
LayerCount: 2
Fore
SplineSet
482 248 m 128,-1,1
 482 114 482 114 411 43 c 0,2,3
 354 -14 354 -14 260.5 -14 c 0,4,5
 167 -14 167 -14 110 43 c 0,6,7
 39 114 39 114 39 248 c 128,-1,8
 39 382 39 382 110 453 c 0,9,10
 167 510 167 510 260.5 510 c 0,11,12
 354 510 354 510 411 453 c 0,13,0
 482 382 482 382 482 248 c 128,-1,1
166 248 m 128,-1,15
 166 80 166 80 260.5 80 c 0,16,17
 355 80 355 80 355 248 c 128,-1,18
 355 416 355 416 260.5 416 c 0,19,14
 166 416 166 416 166 248 c 128,-1,15
267 572 m 1,20,-1
 217 597 l 2,21,22
 201 606 201 606 184 606 c 0,23,24
 167 606 167 606 148 581 c 2,25,-1
 138 567 l 1,26,27
 120 568 120 568 102.5 578.5 c 128,-1,28
 85 589 85 589 79 605 c 1,29,-1
 87 625 l 1,30,31
 103 661 103 661 131 682.5 c 128,-1,32
 159 704 159 704 190 704 c 0,33,34
 221 704 221 704 253 688 c 2,35,-1
 303 662 l 2,36,37
 321 653 321 653 337 653 c 0,38,39
 353 653 353 653 372 678 c 2,40,-1
 382 692 l 1,41,42
 400 691 400 691 417 680.5 c 128,-1,43
 434 670 434 670 441 654 c 1,44,-1
 433 634 l 1,45,46
 417 597 417 597 388.5 576 c 128,-1,47
 360 555 360 555 328.5 555 c 0,48,49
 297 555 297 555 267 572 c 1,20,-1
EndSplineSet
EndChar

StartChar: oslash
Encoding: 248 248 178
Width: 523
Flags: HMW
HStem: -14 89<253.5 291.5> 421 89<231 270> 474 20G<349 349> 534 20G<384 384>
VStem: 40 116<231 287.5> 367 116<209 265>
LayerCount: 2
Fore
SplineSet
413 452 m 1,0,1
 483 382 483 382 483 247 c 128,-1,2
 483 112 483 112 413 43 c 0,3,4
 356 -14 356 -14 261 -14 c 0,5,6
 215 -14 215 -14 172 2 c 1,7,-1
 137 -58 l 1,8,9
 94 -49 94 -49 71 -21 c 1,10,-1
 108 44 l 1,11,12
 40 112 40 112 40 247.5 c 128,-1,13
 40 383 40 383 110 453 c 0,14,15
 167 510 167 510 261 510 c 0,16,17
 311 510 311 510 349 494 c 1,18,-1
 384 554 l 1,19,20
 426 545 426 545 450 518 c 1,21,-1
 413 452 l 1,0,1
367 248 m 0,22,23
 367 303 367 303 354 345 c 1,24,-1
 218 84 l 1,25,26
 236 75 236 75 262 75 c 0,27,28
 367 75 367 75 367 248 c 0,22,23
156 248 m 0,29,30
 156 190 156 190 168 153 c 1,31,-1
 304 412 l 1,32,33
 286 421 286 421 262 421 c 0,34,35
 156 421 156 421 156 248 c 0,29,30
EndSplineSet
EndChar

StartChar: rcommaaccent
Encoding: 343 343 180
Width: 379
Flags: HMW
HStem: -274 21G -223 21G -73 21 476 20G
VStem: 79 124<0 321 0 335 0 363> 103 111<-145.5 -116.5>
LayerCount: 2
Fore
SplineSet
42 438 m 1,0,1
 46 455 46 455 58.5 474.5 c 128,-1,2
 71 494 71 494 84 503 c 1,3,4
 162 491 162 491 189 414 c 1,5,6
 229 503 229 503 318 503 c 0,7,8
 341 503 341 503 376 496 c 1,9,10
 376 431 376 431 346 380 c 1,11,12
 331 384 331 384 301 386 c 1,13,14
 240 386 240 386 203 321 c 1,15,-1
 203 0 l 1,16,17
 175 -5 175 -5 142 -5 c 128,-1,18
 109 -5 109 -5 79 0 c 1,19,-1
 79 335 l 2,20,21
 79 408 79 408 42 438 c 1,0,1
90 -73 m 1,22,23
 119.071428571 -51.8571428571 119.071428571 -51.8571428571 151.892857143 -51.8571428571 c 128,-1,24
 184.714285714 -51.8571428571 184.714285714 -51.8571428571 204 -59 c 1,25,26
 214 -79 214 -79 214 -114 c 0,27,28
 214 -168 214 -168 178 -210.5 c 128,-1,29
 142 -253 142 -253 79 -274 c 1,30,31
 47 -264 47 -264 40 -223 c 1,32,33
 103 -184 103 -184 103 -125 c 0,34,35
 103 -97 103 -97 90 -73 c 1,22,23
EndSplineSet
EndChar

StartChar: germandbls
Encoding: 223 223 181
Width: 639
Flags: HMW
HStem: -14 95<399 427 395 474> 378 96<15 101> 604 95<292.5 363>
VStem: 101 126<0 379 379 379 474 490 0 503 0 567.5> 433 126<487.5 523>
LayerCount: 2
Fore
SplineSet
101 0 m 1,0,-1
 101 379 l 1,1,-1
 15 378 l 1,2,3
 10 401 10 401 10 426.5 c 0,4,5
 10 452 10 452 15 475 c 1,6,-1
 101 474 l 1,7,-1
 101 503 l 2,8,9
 101 598 101 598 162.5 648.5 c 128,-1,10
 224 699 224 699 328.5 699 c 0,11,12
 433 699 433 699 496 644 c 128,-1,13
 559 589 559 589 559 496 c 0,14,15
 559 461 559 461 543 419 c 1,16,-1
 541 419 l 1,17,-1
 543 418 l 1,18,19
 506 410 506 410 487 390.5 c 128,-1,20
 468 371 468 371 468 349.5 c 0,21,22
 468 328 468 328 499 301 c 1,23,-1
 536 267 l 1,24,25
 609 197 609 197 609 132 c 0,26,27
 609 67 609 67 556 26.5 c 128,-1,28
 503 -14 503 -14 426 -14 c 0,29,30
 349 -14 349 -14 289 15 c 1,31,32
 290 36 290 36 301 62 c 128,-1,33
 312 88 312 88 327 102 c 1,34,35
 366 81 366 81 402 81 c 0,36,37
 438 81 438 81 458 95.5 c 128,-1,38
 478 110 478 110 478 136 c 0,39,40
 478 162 478 162 442 195 c 1,41,-1
 401 231 l 1,42,43
 337 289 337 289 337 343 c 0,44,45
 337 378 337 378 362 410.5 c 128,-1,46
 387 443 387 443 430 461 c 1,47,48
 433 477 433 477 433 493 c 0,49,50
 433 541 433 541 405.5 572.5 c 128,-1,51
 378 604 378 604 328 604 c 0,52,53
 227 604 227 604 227 490 c 2,54,-1
 227 0 l 1,55,56
 197 -5 197 -5 165 -5 c 0,57,58
 133 -5 133 -5 101 0 c 1,0,-1
EndSplineSet
EndChar

StartChar: uacute
Encoding: 250 250 183
Width: 548
Flags: HMW
HStem: -9 111<224.5 234.5> 476 20<351 351 475 475> 539 212<237 333>
VStem: 67 124<160 187 187 383 383 401> 185 229<588 674> 351 124<152 496>
LayerCount: 2
Fore
SplineSet
67 160 m 2,0,-1
 67 383 l 2,1,2
 67 443 67 443 48 476 c 1,3,4
 78 503 78 503 119.5 503 c 0,5,6
 161 503 161 503 176 484 c 128,-1,7
 191 465 191 465 191 425 c 2,8,-1
 191 187 l 2,9,10
 191 141 191 141 203 121.5 c 128,-1,11
 215 102 215 102 246 102 c 0,12,13
 303 102 303 102 351 152 c 1,14,-1
 351 496 l 1,15,16
 379 501 379 501 413 501 c 128,-1,17
 447 501 447 501 475 496 c 1,18,-1
 475 141 l 2,19,20
 475 77 475 77 503 55 c 1,21,22
 494 16 494 16 461 -8 c 1,23,24
 390 1 390 1 364 63 c 1,25,26
 287 -9 287 -9 203 -9 c 0,27,28
 136 -9 136 -9 101.5 37.5 c 128,-1,29
 67 84 67 84 67 160 c 2,0,-1
185 588 m 1,30,-1
 333 751 l 1,31,32
 359 742 359 742 382.5 720.5 c 128,-1,33
 406 699 406 699 414 674 c 1,34,-1
 237 539 l 1,35,36
 200 550 200 550 185 588 c 1,30,-1
EndSplineSet
EndChar

StartChar: udieresis
Encoding: 252 252 185
Width: 548
Flags: HMW
HStem: -9 111<224.5 234.5> 476 20<351 351 475 475> 573 87<116 116 226 226 308 308 418 418>
VStem: 67 124<160 187 187 383 383 401> 108 118 300 118 351 124<152 496>
LayerCount: 2
Fore
SplineSet
67 160 m 2,0,-1
 67 383 l 2,1,2
 67 443 67 443 48 476 c 1,3,4
 78 503 78 503 119.5 503 c 128,-1,5
 161 503 161 503 176 484 c 128,-1,6
 191 465 191 465 191 425 c 2,7,-1
 191 187 l 2,8,9
 191 141 191 141 203 121.5 c 128,-1,10
 215 102 215 102 246 102 c 0,11,12
 303 102 303 102 351 152 c 1,13,-1
 351 496 l 1,14,15
 379 501 379 501 413 501 c 128,-1,16
 447 501 447 501 475 496 c 1,17,-1
 475 141 l 2,18,19
 475 77 475 77 503 55 c 1,20,21
 494 16 494 16 461 -8 c 1,22,23
 390 1 390 1 364 63 c 1,24,25
 287 -9 287 -9 203 -9 c 0,26,27
 136 -9 136 -9 101.5 37.5 c 128,-1,28
 67 84 67 84 67 160 c 2,0,-1
308 573 m 1,29,30
 300 595 300 595 300 616.5 c 128,-1,31
 300 638 300 638 308 660 c 1,32,33
 332 674 332 674 363 674 c 128,-1,34
 394 674 394 674 418 660 c 1,35,36
 426 641 426 641 426 615.5 c 128,-1,37
 426 590 426 590 418 573 c 1,38,39
 395 560 395 560 363 560 c 128,-1,40
 331 560 331 560 308 573 c 1,29,30
116 573 m 1,41,42
 108 592 108 592 108 616.5 c 128,-1,43
 108 641 108 641 116 660 c 1,44,45
 140 674 140 674 171 674 c 128,-1,46
 202 674 202 674 226 660 c 1,47,48
 234 638 234 638 234 616 c 128,-1,49
 234 594 234 594 226 573 c 1,50,51
 203 560 203 560 171 560 c 128,-1,52
 139 560 139 560 116 573 c 1,41,42
EndSplineSet
EndChar

StartChar: ydieresis
Encoding: 255 255 187
Width: 479
Flags: HMW
HStem: -219 93<95.5 140.5 95.5 180.5> 481 20G<392 411> 484 20G 573 87<87 87 197 197 279 279 389 389>
VStem: 4 466 79 118 271 118
LayerCount: 2
Fore
SplineSet
470 484 m 1,0,-1
 341 15 l 2,1,2
 308 -106 308 -106 258.5 -162.5 c 128,-1,3
 209 -219 209 -219 110 -219 c 0,4,5
 56 -219 56 -219 4 -201 c 1,6,7
 3.57894736842 -196.368421053 3.57894736842 -196.368421053 3.57894736842 -184.894736842 c 128,-1,8
 3.57894736842 -173.421052632 3.57894736842 -173.421052632 10.2894736842 -149.710526316 c 128,-1,9
 17 -126 17 -126 30 -112 c 1,10,11
 72 -126 72 -126 113 -126 c 0,12,13
 190.716981132 -126 190.716981132 -126 221 -19 c 1,14,-1
 225 -6 l 1,15,16
 189 -5 189 -5 167.5 8 c 128,-1,17
 146 21 146 21 137 52 c 2,18,-1
 12 486 l 1,19,20
 52 504 52 504 88 504 c 0,21,22
 135 504 135 504 149 450 c 2,23,-1
 208 234 l 2,24,25
 211 225 211 225 240 93 c 0,26,27
 241 86 241 86 249 86 c 1,28,-1
 350 496 l 1,29,30
 373 501 373 501 406 501 c 128,-1,31
 439 501 439 501 466 492 c 1,32,-1
 470 484 l 1,0,-1
279 573 m 1,33,34
 271 595 271 595 271 616.5 c 128,-1,35
 271 638 271 638 279 660 c 1,36,37
 304 674 304 674 334 674 c 128,-1,38
 364 674 364 674 389 660 c 1,39,40
 397 641 397 641 397 615.5 c 128,-1,41
 397 590 397 590 389 573 c 1,42,43
 366 560 366 560 334 560 c 128,-1,44
 302 560 302 560 279 573 c 1,33,34
87 573 m 1,45,46
 79 592 79 592 79 616.5 c 128,-1,47
 79 641 79 641 87 660 c 1,48,49
 111 674 111 674 141.5 674 c 128,-1,50
 172 674 172 674 197 660 c 1,51,52
 205 638 205 638 205 616 c 128,-1,53
 205 594 205 594 197 573 c 1,54,55
 174 560 174 560 142 560 c 128,-1,56
 110 560 110 560 87 573 c 1,45,46
EndSplineSet
EndChar

StartChar: eth
Encoding: 240 240 188
Width: 518
Flags: HMW
HStem: -14 92<228 288.5> 397 90<223.5 260.5 221 274.5>
VStem: 37 127<205 283.5> 353 127<207.5 273.5>
LayerCount: 2
Fore
SplineSet
101 571 m 1,0,-1
 181 626 l 1,1,2
 145 653 145 653 108 673 c 1,3,4
 111 696 111 696 125.5 718.5 c 128,-1,5
 140 741 140 741 157 750 c 1,6,7
 217 724 217 724 269 687 c 1,8,-1
 270 687 l 1,9,-1
 355 746 l 1,10,11
 389 721 389 721 397 685 c 1,12,-1
 328 638 l 1,13,14
 480 488 480 488 480 247 c 0,15,16
 480 113 480 113 409 43 c 0,17,18
 352 -14 352 -14 258.5 -14 c 0,19,20
 165 -14 165 -14 108 43 c 0,21,22
 37 113 37 113 37 239.5 c 0,23,24
 37 366 37 366 109 434 c 0,25,26
 165 487 165 487 250 487 c 0,27,28
 281 487 281 487 310 474 c 1,29,30
 292 523 292 523 239 577 c 1,31,-1
 143 511 l 1,32,33
 128 520 128 520 116 537.5 c 128,-1,34
 104 555 104 555 101 571 c 1,0,-1
353 247 m 0,35,36
 353 323 353 323 340 372 c 1,37,38
 300 397 300 397 260 397 c 0,39,40
 164 397 164 397 164 237.5 c 0,41,42
 164 78 164 78 258.5 78 c 0,43,44
 353 78 353 78 353 247 c 0,35,36
EndSplineSet
EndChar

StartChar: thorn
Encoding: 254 254 189
Width: 530
Flags: HMW
HStem: -216 21G<78 123 78 78> -209 21G<71 71> -9 95<279.5 303 263.5 346> 404 101<291.5 307.5>
VStem: 71 119<-166.5 -139 -139 19 118 348 456 659> 365 126<197.5 307>
LayerCount: 2
Fore
SplineSet
444.5 437 m 128,-1,1
 491 369 491 369 491 248.5 c 128,-1,2
 491 128 491 128 434 59.5 c 128,-1,3
 377 -9 377 -9 299 -9 c 0,4,5
 244 -9 244 -9 190 19 c 1,6,-1
 190 -139 l 2,7,8
 190 -181 190 -181 175.5 -198.5 c 128,-1,9
 161 -216 161 -216 123 -216 c 2,10,-1
 78 -216 l 1,11,-1
 71 -209 l 1,12,-1
 71 729 l 1,13,-1
 78 736 l 1,14,-1
 123 736 l 2,15,16
 161 736 161 736 175.5 718.5 c 128,-1,17
 190 701 190 701 190 659 c 2,18,-1
 190 456 l 1,19,20
 246 505 246 505 322 505 c 128,-1,0
 398 505 398 505 444.5 437 c 128,-1,1
286 404 m 0,21,22
 230 404 230 404 190 348 c 1,23,-1
 190 118 l 1,24,25
 237 86 237 86 277 86 c 128,-1,26
 317 86 317 86 341 129 c 128,-1,27
 365 172 365 172 365 251 c 128,-1,28
 365 330 365 330 343 367 c 128,-1,29
 321 404 321 404 286 404 c 0,21,22
EndSplineSet
EndChar

StartChar: AE
Encoding: 198 198 190
Width: 880
Flags: HMW
HStem: -2 108<588 754> 156 103<256.5 350 296 350 296 350> 292 105<576.5 760 584 760> 576 107<519 584 519 519 584 810>
VStem: 396 124<153.5 157 157 157 258 293 396 508>
LayerCount: 2
Fore
SplineSet
520 164 m 1,0,-1
 519 104 l 1,1,2
 561 106 561 106 588 106 c 2,3,-1
 838 106 l 1,4,5
 838 75 838 75 835 59 c 0,6,7
 824 -2 824 -2 754 -2 c 2,8,-1
 469 -2 l 2,9,10
 435 -2 435 -2 415.5 18.5 c 128,-1,11
 396 39 396 39 396 75 c 2,12,-1
 396 157 l 1,13,14
 380 156 380 156 350 156 c 2,15,-1
 261 156 l 2,16,17
 229 156 229 156 212 157 c 1,18,-1
 140 0 l 1,19,20
 121 -5 121 -5 79.5 -5 c 128,-1,21
 38 -5 38 -5 15 3 c 1,22,-1
 11 10 l 1,23,-1
 327 672 l 1,24,25
 352 683 352 683 403 683 c 2,26,-1
 816 683 l 1,27,28
 820 664 820 664 820 633.5 c 128,-1,29
 820 603 820 603 810 576 c 1,30,-1
 519 576 l 1,31,-1
 520 508 l 1,32,-1
 520 396 l 1,33,34
 544 397 544 397 584 397 c 2,35,-1
 760 397 l 1,36,37
 767 373 767 373 767 344.5 c 128,-1,38
 767 316 767 316 760 292 c 1,39,-1
 584 292 l 2,40,41
 544 292 544 292 520 293 c 1,42,-1
 520 164 l 1,0,-1
350 259 m 1,43,-1
 396 258 l 1,44,-1
 396 562 l 1,45,-1
 392 562 l 1,46,47
 356 471 356 471 324 399 c 1,48,-1
 259 258 l 1,49,-1
 296 259 l 1,50,-1
 350 259 l 1,43,-1
EndSplineSet
EndChar

StartChar: Agrave
Encoding: 192 192 191
Width: 622
Flags: HMW
HStem: -11 20G<15 15> 156 104<231.5 352 263 352 352 356 263 375> 562 126<303 308 303 303> 728 189<224 399>
VStem: 15 591<8 9> 172 263<790 819>
LayerCount: 2
Fore
SplineSet
427 157 m 1,0,-1
 375 156 l 1,1,-1
 236 156 l 1,2,-1
 185 157 l 1,3,-1
 136 -1 l 1,4,5
 116 -6 116 -6 79 -6 c 128,-1,6
 42 -6 42 -6 20 3 c 1,7,-1
 15 9 l 1,8,-1
 239 683 l 1,9,10
 272 688 272 688 315 688 c 128,-1,11
 358 688 358 688 385 682 c 1,12,-1
 606 8 l 1,13,14
 577 -8 577 -8 539.5 -8 c 128,-1,15
 502 -8 502 -8 485.5 6.5 c 128,-1,16
 469 21 469 21 457 60 c 2,17,-1
 427 157 l 1,0,-1
216 259 m 1,18,-1
 263 260 l 1,19,-1
 352 260 l 2,20,21
 355 260 355 260 371.5 259.5 c 128,-1,22
 388 259 388 259 396 259 c 1,23,-1
 362 371 l 2,24,25
 334 460 334 460 308 562 c 1,26,-1
 303 562 l 1,27,28
 291 501 291 501 260 400 c 2,29,-1
 216 259 l 1,18,-1
224 917 m 1,30,-1
 435 790 l 1,31,32
 427 745 427 745 399 728 c 1,33,-1
 172 819 l 1,34,35
 175 846 175 846 191 875 c 128,-1,36
 207 904 207 904 224 917 c 1,30,-1
EndSplineSet
EndChar

StartChar: Aacute
Encoding: 193 193 192
Width: 622
Flags: HMW
HStem: -11 20G<15 15> 156 104<231.5 352 263 352 352 356 263 375> 562 126<303 308 303 303> 728 189<239 414>
VStem: 15 591<8 9> 203 263<790 819>
LayerCount: 2
Fore
SplineSet
427 157 m 1,0,-1
 375 156 l 1,1,-1
 236 156 l 1,2,-1
 185 157 l 1,3,-1
 136 -1 l 1,4,5
 116 -6 116 -6 79 -6 c 128,-1,6
 42 -6 42 -6 20 3 c 1,7,-1
 15 9 l 1,8,-1
 239 683 l 1,9,10
 272 688 272 688 315 688 c 128,-1,11
 358 688 358 688 385 682 c 1,12,-1
 606 8 l 1,13,14
 577 -8 577 -8 539.5 -8 c 128,-1,15
 502 -8 502 -8 485.5 6.5 c 128,-1,16
 469 21 469 21 457 60 c 2,17,-1
 427 157 l 1,0,-1
216 259 m 1,18,-1
 263 260 l 1,19,-1
 352 260 l 2,20,21
 355 260 355 260 371.5 259.5 c 128,-1,22
 388 259 388 259 396 259 c 1,23,-1
 362 371 l 2,24,25
 334 460 334 460 308 562 c 1,26,-1
 303 562 l 1,27,28
 291 501 291 501 260 400 c 2,29,-1
 216 259 l 1,18,-1
203 790 m 1,30,-1
 414 917 l 1,31,32
 431 904 431 904 447 875 c 128,-1,33
 463 846 463 846 466 819 c 1,34,-1
 239 728 l 1,35,36
 225 736 225 736 215 754 c 128,-1,37
 205 772 205 772 203 790 c 1,30,-1
EndSplineSet
EndChar

StartChar: Acircumflex
Encoding: 194 194 193
Width: 622
Flags: HMW
HStem: -11 20G<15 15> 156 104<231.5 352 263 352 352 356 263 375> 562 126<303 308 303 303> 727 174
VStem: 15 591<8 9> 143 335<780 789>
LayerCount: 2
Fore
SplineSet
427 157 m 1,0,-1
 375 156 l 1,1,-1
 236 156 l 1,2,-1
 185 157 l 1,3,-1
 136 -1 l 1,4,5
 116 -6 116 -6 79 -6 c 128,-1,6
 42 -6 42 -6 20 3 c 1,7,-1
 15 9 l 1,8,-1
 239 683 l 1,9,10
 272 688 272 688 315 688 c 128,-1,11
 358 688 358 688 385 682 c 1,12,-1
 606 8 l 1,13,14
 577 -8 577 -8 539.5 -8 c 128,-1,15
 502 -8 502 -8 485.5 6.5 c 128,-1,16
 469 21 469 21 457 60 c 2,17,-1
 427 157 l 1,0,-1
216 259 m 1,18,-1
 263 260 l 1,19,-1
 352 260 l 2,20,21
 355 260 355 260 371.5 259.5 c 128,-1,22
 388 259 388 259 396 259 c 1,23,-1
 362 371 l 2,24,25
 334 460 334 460 308 562 c 1,26,-1
 303 562 l 1,27,28
 291 501 291 501 260 400 c 2,29,-1
 216 259 l 1,18,-1
426 736 m 1,30,-1
 312 811 l 1,31,-1
 195 727 l 1,32,33
 180 732 180 732 163.5 748 c 128,-1,34
 147 764 147 764 143 780 c 1,35,-1
 258 896 l 1,36,37
 283.666666667 901.761904762 283.666666667 901.761904762 310.523809524 901.761904762 c 128,-1,38
 337.380952381 901.761904762 337.380952381 901.761904762 365 897 c 1,39,-1
 478 789 l 1,40,41
 472 771 472 771 456.5 756.5 c 128,-1,42
 441 742 441 742 426 736 c 1,30,-1
EndSplineSet
EndChar

StartChar: Atilde
Encoding: 195 195 194
Width: 622
Flags: HMW
HStem: -11 20G<15 15> 156 104<231.5 352 263 352 352 356 263 375> 562 126<303 308 303 303> 741 97<385 397 385 406>
VStem: 15 591<8 9> 125 376<791 839>
LayerCount: 2
Fore
SplineSet
427 157 m 1,0,-1
 375 156 l 1,1,-1
 236 156 l 1,2,-1
 185 157 l 1,3,-1
 136 -1 l 1,4,5
 116 -6 116 -6 79 -6 c 128,-1,6
 42 -6 42 -6 20 3 c 1,7,-1
 15 9 l 1,8,-1
 239 683 l 1,9,10
 272 688 272 688 315 688 c 128,-1,11
 358 688 358 688 385 682 c 1,12,-1
 606 8 l 1,13,14
 577 -8 577 -8 539.5 -8 c 128,-1,15
 502 -8 502 -8 485.5 6.5 c 128,-1,16
 469 21 469 21 457 60 c 2,17,-1
 427 157 l 1,0,-1
216 259 m 1,18,-1
 263 260 l 1,19,-1
 352 260 l 2,20,21
 355 260 355 260 371.5 259.5 c 128,-1,22
 388 259 388 259 396 259 c 1,23,-1
 362 371 l 2,24,25
 334 460 334 460 308 562 c 1,26,-1
 303 562 l 1,27,28
 291 501 291 501 260 400 c 2,29,-1
 216 259 l 1,18,-1
320 757 m 2,30,-1
 268 782 l 1,31,32
 252 791 252 791 233.5 791 c 128,-1,33
 215 791 215 791 197 767 c 2,34,-1
 187 753 l 1,35,36
 168 754 168 754 149.5 764.5 c 128,-1,37
 131 775 131 775 125 791 c 1,38,-1
 133 810 l 1,39,40
 150 846 150 846 179 867.5 c 128,-1,41
 208 889 208 889 241 889 c 128,-1,42
 274 889 274 889 306 872 c 1,43,-1
 358 847 l 2,44,45
 376 838 376 838 393 838 c 128,-1,46
 410 838 410 838 429 863 c 2,47,-1
 439 877 l 1,48,49
 458 876 458 876 476 865 c 128,-1,50
 494 854 494 854 501 839 c 1,51,-1
 493 820 l 1,52,53
 456 741 456 741 382 741 c 0,54,55
 352 741 352 741 320 757 c 2,30,-1
EndSplineSet
EndChar

StartChar: Adieresis
Encoding: 196 196 195
Width: 622
Flags: HMW
HStem: -11 20G<15 15> 156 104<231.5 352 263 352 352 356 263 375> 562 126<303 308 303 303> 750 103
VStem: 15 591<8 9> 150 107<750 750 839 839> 369 107<750 750 839 839>
LayerCount: 2
Fore
SplineSet
427 157 m 1,0,-1
 375 156 l 1,1,-1
 236 156 l 1,2,-1
 185 157 l 1,3,-1
 136 -1 l 1,4,5
 116 -6 116 -6 79 -6 c 128,-1,6
 42 -6 42 -6 20 3 c 1,7,-1
 15 9 l 1,8,-1
 239 683 l 1,9,10
 272 688 272 688 315 688 c 128,-1,11
 358 688 358 688 385 682 c 1,12,-1
 606 8 l 1,13,14
 577 -8 577 -8 539.5 -8 c 128,-1,15
 502 -8 502 -8 485.5 6.5 c 128,-1,16
 469 21 469 21 457 60 c 2,17,-1
 427 157 l 1,0,-1
216 259 m 1,18,-1
 263 260 l 1,19,-1
 352 260 l 2,20,21
 355 260 355 260 371.5 259.5 c 128,-1,22
 388 259 388 259 396 259 c 1,23,-1
 362 371 l 2,24,25
 334 460 334 460 308 562 c 1,26,-1
 303 562 l 1,27,28
 291 501 291 501 260 400 c 2,29,-1
 216 259 l 1,18,-1
369 839 m 1,30,31
 392 853 392 853 422.5 853 c 128,-1,32
 453 853 453 853 476 839 c 1,33,34
 486 824 486 824 486 794 c 128,-1,35
 486 764 486 764 476 750 c 1,36,37
 456 736 456 736 422.5 736 c 128,-1,38
 389 736 389 736 369 750 c 1,39,40
 357 765 357 765 357 794 c 128,-1,41
 357 823 357 823 369 839 c 1,30,31
150 839 m 1,42,43
 171 853 171 853 202.5 853 c 128,-1,44
 234 853 234 853 257 839 c 1,45,46
 268 824 268 824 268 793.5 c 128,-1,47
 268 763 268 763 257 750 c 1,48,49
 237 736 237 736 203 736 c 128,-1,50
 169 736 169 736 150 750 c 1,51,52
 140 764 140 764 140 794 c 128,-1,53
 140 824 140 824 150 839 c 1,42,43
EndSplineSet
EndChar

StartChar: Aring
Encoding: 197 197 196
Width: 622
Flags: HMW
HStem: -11 20G<15 15> 156 104<231.5 352 263 352 352 356 263 375> 836 67<298 327.5>
VStem: 184 79<768.5 799> 362 79<768.5 799>
LayerCount: 2
Fore
SplineSet
427 157 m 1,0,-1
 375 156 l 1,1,-1
 236 156 l 1,2,-1
 185 157 l 1,3,-1
 136 -1 l 1,4,5
 116 -6 116 -6 79 -6 c 128,-1,6
 42 -6 42 -6 20 3 c 1,7,-1
 15 9 l 1,8,-1
 239 683 l 1,9,-1
 240 683 l 1,10,11
 184 717 184 717 184 784 c 0,12,13
 184 834 184 834 220 868.5 c 128,-1,14
 256 903 256 903 313 903 c 128,-1,15
 370 903 370 903 405.5 868.5 c 128,-1,16
 441 834 441 834 441 784 c 0,17,18
 441 717 441 717 384 682 c 1,19,-1
 385 682 l 1,20,-1
 606 8 l 1,21,22
 577 -8 577 -8 539.5 -8 c 128,-1,23
 502 -8 502 -8 485.5 6.5 c 128,-1,24
 469 21 469 21 457 60 c 2,25,-1
 427 157 l 1,0,-1
216 259 m 1,26,-1
 263 260 l 1,27,-1
 352 260 l 2,28,29
 355 260 355 260 371.5 259.5 c 128,-1,30
 388 259 388 259 396 259 c 1,31,-1
 362 371 l 2,32,33
 334 460 334 460 308 562 c 1,34,-1
 303 562 l 1,35,36
 291 501 291 501 260 400 c 2,37,-1
 216 259 l 1,26,-1
263 784 m 128,-1,39
 263 761 263 761 277 746 c 128,-1,40
 291 731 291 731 313 731 c 128,-1,41
 335 731 335 731 348.5 746 c 128,-1,42
 362 761 362 761 362 784 c 128,-1,43
 362 807 362 807 348.5 821.5 c 128,-1,44
 335 836 335 836 313 836 c 128,-1,45
 291 836 291 836 277 821.5 c 128,-1,38
 263 807 263 807 263 784 c 128,-1,39
EndSplineSet
EndChar

StartChar: Ccedilla
Encoding: 199 199 197
Width: 606
Flags: HMW
HStem: -227 21G<292.5 345.5> -227 66<292.5 312 289 345.5> -91 56 595 102<273 372>
VStem: 44 134<260 421.5 260 463.5> 339 97<-136 -116>
LayerCount: 2
Fore
SplineSet
259 -75 m 1,0,1
 266 -43 266 -43 279 -12 c 1,2,3
 216 -6 216 -6 169 25.5 c 128,-1,4
 122 57 122 57 95.5 107.5 c 0,5,6
 44 205.641509434 44 205.641509434 44 339 c 0,7,8
 44 516 44 516 123.5 606.5 c 128,-1,9
 203 697 203 697 319 697 c 128,-1,10
 435 697 435 697 503.5 638.5 c 128,-1,11
 572 580 572 580 572 497 c 0,12,13
 572 426 572 426 500 426 c 0,14,15
 474 426 474 426 450 433 c 1,16,17
 450.123076923 437.184615385 450.123076923 437.184615385 450.123076923 441.289704142 c 0,18,19
 450.123076923 503.892307692 450.123076923 503.892307692 420.561538462 549.446153846 c 128,-1,20
 391 595 391 595 322 595 c 0,21,22
 178 595 178 595 178 338 c 0,23,24
 178 222 178 222 218.5 159.5 c 128,-1,25
 259 97 259 97 336 97 c 128,-1,26
 413 97 413 97 508 171 c 1,27,28
 528 157 528 157 546 133.5 c 128,-1,29
 564 110 564 110 569 89 c 1,30,31
 483 3 483 3 349 -12 c 1,32,33
 342 -29 342 -29 340 -35 c 1,34,35
 383 -37 383 -37 409.5 -61.5 c 128,-1,36
 436 -86 436 -86 436 -127.5 c 128,-1,37
 436 -169 436 -169 400 -198 c 128,-1,38
 364 -227 364 -227 311 -227 c 128,-1,39
 258 -227 258 -227 227 -205 c 1,40,41
 229 -170 229 -170 249 -147 c 1,42,43
 270 -161 270 -161 298 -161 c 0,44,45
 339 -161 339 -161 339 -126 c 0,46,47
 339 -111 339 -111 329 -101 c 128,-1,48
 319 -91 319 -91 305 -91 c 128,-1,49
 291 -91 291 -91 279 -95 c 1,50,51
 265 -90 265 -90 259 -75 c 1,0,1
EndSplineSet
EndChar

StartChar: Egrave
Encoding: 200 200 198
Width: 569
Flags: HMW
HStem: -2 108<278 442> 292 105<266.5 448 274 448> 576 107<209 274 209 209 274 499> 728 189<210 385>
VStem: 84 126<152.5 163 163 293 396 508> 158 263<790 819>
LayerCount: 2
Fore
SplineSet
210 163 m 1,0,-1
 209 104 l 1,1,2
 251 106 251 106 278 106 c 2,3,-1
 526 106 l 1,4,5
 526 75 526 75 524 59 c 0,6,7
 513 -2 513 -2 442 -2 c 2,8,-1
 157 -2 l 2,9,10
 123 -2 123 -2 103.5 18.5 c 128,-1,11
 84 39 84 39 84 75 c 2,12,-1
 84 676 l 1,13,-1
 91 683 l 1,14,-1
 504 683 l 1,15,16
 509 659 509 659 509 633.5 c 128,-1,17
 509 608 509 608 499 576 c 1,18,-1
 209 576 l 1,19,-1
 210 508 l 1,20,-1
 210 396 l 1,21,22
 234 397 234 397 274 397 c 2,23,-1
 448 397 l 1,24,25
 455 373 455 373 455 344.5 c 128,-1,26
 455 316 455 316 448 292 c 1,27,-1
 274 292 l 2,28,29
 234 292 234 292 210 293 c 1,30,-1
 210 163 l 1,0,-1
210 917 m 1,31,-1
 421 790 l 1,32,33
 413 745 413 745 385 728 c 1,34,-1
 158 819 l 1,35,36
 161 846 161 846 177 875 c 128,-1,37
 193 904 193 904 210 917 c 1,31,-1
EndSplineSet
EndChar

StartChar: Eacute
Encoding: 201 201 199
Width: 569
Flags: HMW
HStem: -2 108<278 442> 292 105<266.5 448 274 448> 576 107<209 274 209 209 274 499> 728 189<225 400>
VStem: 84 126<152.5 163 163 293 396 508> 189 263<790 819>
LayerCount: 2
Fore
SplineSet
210 163 m 1,0,-1
 209 104 l 1,1,2
 251 106 251 106 278 106 c 2,3,-1
 526 106 l 1,4,5
 526 75 526 75 524 59 c 0,6,7
 513 -2 513 -2 442 -2 c 2,8,-1
 157 -2 l 2,9,10
 123 -2 123 -2 103.5 18.5 c 128,-1,11
 84 39 84 39 84 75 c 2,12,-1
 84 676 l 1,13,-1
 91 683 l 1,14,-1
 504 683 l 1,15,16
 509 659 509 659 509 633.5 c 128,-1,17
 509 608 509 608 499 576 c 1,18,-1
 209 576 l 1,19,-1
 210 508 l 1,20,-1
 210 396 l 1,21,22
 234 397 234 397 274 397 c 2,23,-1
 448 397 l 1,24,25
 455 373 455 373 455 344.5 c 128,-1,26
 455 316 455 316 448 292 c 1,27,-1
 274 292 l 2,28,29
 234 292 234 292 210 293 c 1,30,-1
 210 163 l 1,0,-1
189 790 m 1,31,-1
 400 917 l 1,32,33
 417 904 417 904 433 875 c 128,-1,34
 449 846 449 846 452 819 c 1,35,-1
 225 728 l 1,36,37
 211 736 211 736 201 754 c 128,-1,38
 191 772 191 772 189 790 c 1,31,-1
EndSplineSet
EndChar

StartChar: Ecircumflex
Encoding: 202 202 200
Width: 569
Flags: HMW
HStem: -2 108<278 442> 292 105<266.5 448 274 448> 576 107<209 274 209 209 274 499> 727 174
VStem: 84 126<152.5 163 163 293 396 508> 129 335<780 789>
LayerCount: 2
Fore
SplineSet
210 163 m 1,0,-1
 209 104 l 1,1,2
 251 106 251 106 278 106 c 2,3,-1
 526 106 l 1,4,5
 526 75 526 75 524 59 c 0,6,7
 513 -2 513 -2 442 -2 c 2,8,-1
 157 -2 l 2,9,10
 123 -2 123 -2 103.5 18.5 c 128,-1,11
 84 39 84 39 84 75 c 2,12,-1
 84 676 l 1,13,-1
 91 683 l 1,14,-1
 504 683 l 1,15,16
 509 659 509 659 509 633.5 c 128,-1,17
 509 608 509 608 499 576 c 1,18,-1
 209 576 l 1,19,-1
 210 508 l 1,20,-1
 210 396 l 1,21,22
 234 397 234 397 274 397 c 2,23,-1
 448 397 l 1,24,25
 455 373 455 373 455 344.5 c 128,-1,26
 455 316 455 316 448 292 c 1,27,-1
 274 292 l 2,28,29
 234 292 234 292 210 293 c 1,30,-1
 210 163 l 1,0,-1
412 736 m 1,31,-1
 298 811 l 1,32,-1
 181 727 l 1,33,34
 166 732 166 732 149.5 748 c 128,-1,35
 133 764 133 764 129 780 c 1,36,-1
 244 896 l 1,37,38
 269.666666667 901.761904762 269.666666667 901.761904762 296.523809524 901.761904762 c 128,-1,39
 323.380952381 901.761904762 323.380952381 901.761904762 351 897 c 1,40,-1
 464 789 l 1,41,42
 458 771 458 771 442.5 756.5 c 128,-1,43
 427 742 427 742 412 736 c 1,31,-1
EndSplineSet
EndChar

StartChar: Edieresis
Encoding: 203 203 201
Width: 569
Flags: HMW
HStem: -2 108<278 442> 292 105<266.5 448 274 448> 576 107<209 274 209 209 274 499> 750 103
VStem: 84 126<152.5 163 163 293 396 508> 136 107<750 750 839 839> 355 107<750 750 839 839>
LayerCount: 2
Fore
SplineSet
210 163 m 1,0,-1
 209 104 l 1,1,2
 251 106 251 106 278 106 c 2,3,-1
 526 106 l 1,4,5
 526 75 526 75 524 59 c 0,6,7
 513 -2 513 -2 442 -2 c 2,8,-1
 157 -2 l 2,9,10
 123 -2 123 -2 103.5 18.5 c 128,-1,11
 84 39 84 39 84 75 c 2,12,-1
 84 676 l 1,13,-1
 91 683 l 1,14,-1
 504 683 l 1,15,16
 509 659 509 659 509 633.5 c 128,-1,17
 509 608 509 608 499 576 c 1,18,-1
 209 576 l 1,19,-1
 210 508 l 1,20,-1
 210 396 l 1,21,22
 234 397 234 397 274 397 c 2,23,-1
 448 397 l 1,24,25
 455 373 455 373 455 344.5 c 128,-1,26
 455 316 455 316 448 292 c 1,27,-1
 274 292 l 2,28,29
 234 292 234 292 210 293 c 1,30,-1
 210 163 l 1,0,-1
355 839 m 1,31,32
 378 853 378 853 408.5 853 c 128,-1,33
 439 853 439 853 462 839 c 1,34,35
 472 824 472 824 472 794 c 128,-1,36
 472 764 472 764 462 750 c 1,37,38
 442 736 442 736 408.5 736 c 128,-1,39
 375 736 375 736 355 750 c 1,40,41
 343 765 343 765 343 794 c 128,-1,42
 343 823 343 823 355 839 c 1,31,32
136 839 m 1,43,44
 157 853 157 853 188.5 853 c 128,-1,45
 220 853 220 853 243 839 c 1,46,47
 254 824 254 824 254 793.5 c 128,-1,48
 254 763 254 763 243 750 c 1,49,50
 223 736 223 736 189 736 c 128,-1,51
 155 736 155 736 136 750 c 1,52,53
 126 764 126 764 126 794 c 128,-1,54
 126 824 126 824 136 839 c 1,43,44
EndSplineSet
EndChar

StartChar: Igrave
Encoding: 204 204 202
Width: 303
Flags: HMW
HStem: -5 693<142.5 160.5> 729 189<63 238>
VStem: 11 263<791 820> 88 127<0 683 0 683>
LayerCount: 2
Fore
SplineSet
88 0 m 1,0,-1
 88 683 l 1,1,2
 112 688 112 688 151 688 c 128,-1,3
 190 688 190 688 215 683 c 1,4,-1
 215 0 l 1,5,6
 190 -5 190 -5 151 -5 c 128,-1,7
 112 -5 112 -5 88 0 c 1,0,-1
63 918 m 1,8,-1
 274 791 l 1,9,10
 266 746 266 746 238 729 c 1,11,-1
 11 820 l 1,12,13
 14 847 14 847 30 876 c 128,-1,14
 46 905 46 905 63 918 c 1,8,-1
EndSplineSet
EndChar

StartChar: Iacute
Encoding: 205 205 203
Width: 303
Flags: HMW
HStem: -5 693<142.5 160.5> 729 189<78 253>
VStem: 42 263<791 820> 88 127<0 683 0 683>
LayerCount: 2
Fore
SplineSet
88 0 m 1,0,-1
 88 683 l 1,1,2
 112 688 112 688 151 688 c 128,-1,3
 190 688 190 688 215 683 c 1,4,-1
 215 0 l 1,5,6
 190 -5 190 -5 151 -5 c 128,-1,7
 112 -5 112 -5 88 0 c 1,0,-1
42 791 m 1,8,-1
 253 918 l 1,9,10
 270 905 270 905 286 876 c 128,-1,11
 302 847 302 847 305 820 c 1,12,-1
 78 729 l 1,13,14
 64 737 64 737 54 755 c 128,-1,15
 44 773 44 773 42 791 c 1,8,-1
EndSplineSet
EndChar

StartChar: Itilde
Encoding: 296 296 204
Width: 303
Flags: HMW
HStem: -5 693<142.5 160.5> 742 97<224 236 224 245>
VStem: -36 376<792 840> 88 127<0 683 0 683>
LayerCount: 2
Fore
SplineSet
88 0 m 1,0,-1
 88 683 l 1,1,2
 112 688 112 688 151 688 c 128,-1,3
 190 688 190 688 215 683 c 1,4,-1
 215 0 l 1,5,6
 190 -5 190 -5 151 -5 c 128,-1,7
 112 -5 112 -5 88 0 c 1,0,-1
159 758 m 2,8,-1
 107 783 l 1,9,10
 91 792 91 792 72.5 792 c 0,11,12
 54 792 54 792 36 768 c 2,13,-1
 26 754 l 1,14,15
 7 755 7 755 -11.5 765.5 c 128,-1,16
 -30 776 -30 776 -36 792 c 1,17,-1
 -28 811 l 1,18,19
 -11 847 -11 847 18 868.5 c 128,-1,20
 47 890 47 890 80 890 c 0,21,22
 113 890 113 890 145 873 c 1,23,-1
 197 848 l 2,24,25
 215 839 215 839 232 839 c 0,26,27
 249 839 249 839 268 864 c 2,28,-1
 278 878 l 1,29,30
 297 877 297 877 315 866 c 128,-1,31
 333 855 333 855 340 840 c 1,32,-1
 332 821 l 1,33,34
 295 742 295 742 221 742 c 0,35,36
 191 742 191 742 159 758 c 2,8,-1
EndSplineSet
EndChar

StartChar: Icircumflex
Encoding: 206 206 205
Width: 303
Flags: HMW
HStem: -5 693<142.5 160.5> 728 174
VStem: -18 335<781 790> 88 127<0 683 0 683>
LayerCount: 2
Fore
SplineSet
88 0 m 1,0,-1
 88 683 l 1,1,2
 112 688 112 688 151 688 c 128,-1,3
 190 688 190 688 215 683 c 1,4,-1
 215 0 l 1,5,6
 190 -5 190 -5 151 -5 c 128,-1,7
 112 -5 112 -5 88 0 c 1,0,-1
265 737 m 1,8,-1
 151 812 l 1,9,-1
 34 728 l 1,10,11
 19 733 19 733 2.5 749 c 128,-1,12
 -14 765 -14 765 -18 781 c 1,13,-1
 97 897 l 1,14,15
 122.666666667 902.761904762 122.666666667 902.761904762 149.523809524 902.761904762 c 0,16,17
 176.380952381 902.761904762 176.380952381 902.761904762 204 898 c 1,18,-1
 317 790 l 1,19,20
 311 772 311 772 295.5 757.5 c 128,-1,21
 280 743 280 743 265 737 c 1,8,-1
EndSplineSet
EndChar

StartChar: Idieresis
Encoding: 207 207 206
Width: 303
Flags: HMW
HStem: -5 693<142.5 160.5> 751 103
VStem: -11 107<751 751 840 840> 88 127<0 683 0 683> 208 107<751 751 840 840>
LayerCount: 2
Fore
SplineSet
88 0 m 1,0,-1
 88 683 l 1,1,2
 112 688 112 688 151 688 c 128,-1,3
 190 688 190 688 215 683 c 1,4,-1
 215 0 l 1,5,6
 190 -5 190 -5 151 -5 c 128,-1,7
 112 -5 112 -5 88 0 c 1,0,-1
208 840 m 1,8,9
 231 854 231 854 261.5 854 c 128,-1,10
 292 854 292 854 315 840 c 1,11,12
 325 825 325 825 325 795 c 128,-1,13
 325 765 325 765 315 751 c 1,14,15
 295 737 295 737 261.5 737 c 128,-1,16
 228 737 228 737 208 751 c 1,17,18
 196 766 196 766 196 795 c 128,-1,19
 196 824 196 824 208 840 c 1,8,9
-11 840 m 1,20,21
 10 854 10 854 41.5 854 c 128,-1,22
 73 854 73 854 96 840 c 1,23,24
 107 825 107 825 107 794.5 c 128,-1,25
 107 764 107 764 96 751 c 1,26,27
 76 737 76 737 42 737 c 128,-1,28
 8 737 8 737 -11 751 c 1,29,30
 -21 765 -21 765 -21 795 c 128,-1,31
 -21 825 -21 825 -11 840 c 1,20,21
EndSplineSet
EndChar

StartChar: IJ
Encoding: 306 306 207
Width: 756
Flags: HMW
HStem: -10 106<440.5 493 436.5 556.5> -5 693<142.5 160.5>
VStem: 88 127<0 683 0 683> 554 128<239 254 254 683>
LayerCount: 2
Fore
SplineSet
88 0 m 1,0,-1
 88 683 l 1,1,2
 112 688 112 688 151 688 c 128,-1,3
 190 688 190 688 215 683 c 1,4,-1
 215 0 l 1,5,6
 190 -5 190 -5 151 -5 c 128,-1,7
 112 -5 112 -5 88 0 c 1,0,-1
354 128 m 1,8,9
 406 96 406 96 458 96 c 128,-1,10
 510 96 510 96 532 130 c 128,-1,11
 554 164 554 164 554 239 c 2,12,-1
 554 683 l 1,13,14
 579 688 579 688 618 688 c 128,-1,15
 657 688 657 688 682 683 c 1,16,-1
 682 254 l 2,17,18
 682 96.5744680851 682 96.5744680851 620.5 39 c 0,19,20
 568.159090909 -10 568.159090909 -10 472.579545455 -10 c 128,-1,21
 377 -10 377 -10 308 33 c 1,22,23
 318 89 318 89 354 128 c 1,8,9
EndSplineSet
EndChar

StartChar: Jcircumflex
Encoding: 308 308 208
Width: 457
Flags: HMW
HStem: -10 106<142.5 195 138.5 258.5> 727 174
VStem: 151 335<780 789> 256 128<239 254 254 683>
LayerCount: 2
Fore
SplineSet
56 128 m 1,0,1
 108 96 108 96 160 96 c 128,-1,2
 212 96 212 96 234 130 c 128,-1,3
 256 164 256 164 256 239 c 2,4,-1
 256 683 l 1,5,6
 281 688 281 688 320 688 c 128,-1,7
 359 688 359 688 384 683 c 1,8,-1
 384 254 l 2,9,10
 384 96.5744680851 384 96.5744680851 322.5 39 c 0,11,12
 270.159090909 -10 270.159090909 -10 174.579545455 -10 c 128,-1,13
 79 -10 79 -10 10 33 c 1,14,15
 20 89 20 89 56 128 c 1,0,1
434 736 m 1,16,-1
 320 811 l 1,17,-1
 203 727 l 1,18,19
 188 732 188 732 171.5 748 c 128,-1,20
 155 764 155 764 151 780 c 1,21,-1
 266 896 l 1,22,23
 291.666666667 901.761904762 291.666666667 901.761904762 318.523809524 901.761904762 c 128,-1,24
 345.380952381 901.761904762 345.380952381 901.761904762 373 897 c 1,25,-1
 486 789 l 1,26,27
 480 771 480 771 464.5 756.5 c 128,-1,28
 449 742 449 742 434 736 c 1,16,-1
EndSplineSet
EndChar

StartChar: Lslash
Encoding: 321 321 209
Width: 524
Flags: HMW
HStem: -2 110<310 413>
VStem: 92 128<105 276 276 276 417 607>
LayerCount: 2
Fore
SplineSet
220 607 m 2,0,-1
 220 417 l 1,1,-1
 387 475 l 1,2,-1
 396 470 l 1,3,4
 403.84 448.16 403.84 448.16 403.84 423.9 c 0,5,6
 403.84 399.64 403.84 399.64 399 375 c 1,7,-1
 220 316 l 1,8,-1
 220 105 l 1,9,10
 268 108 268 108 310 108 c 2,11,-1
 500 108 l 1,12,13
 500 80 500 80 496 60 c 0,14,15
 485 -2 485 -2 413 -2 c 2,16,-1
 166 -2 l 2,17,18
 132 -2 132 -2 112 18.5 c 128,-1,19
 92 39 92 39 92 75 c 2,20,-1
 92 276 l 1,21,-1
 23 252 l 1,22,-1
 14 257 l 1,23,24
 6.95833333333 278.125 6.95833333333 278.125 6.95833333333 302.229166667 c 0,25,26
 6.95833333333 326.333333333 6.95833333333 326.333333333 12 352 c 1,27,-1
 92 379 l 1,28,-1
 92 682 l 1,29,-1
 99 688 l 1,30,-1
 147 688 l 2,31,32
 185 688 185 688 202.5 668.5 c 128,-1,33
 220 649 220 649 220 607 c 2,0,-1
EndSplineSet
EndChar

StartChar: Ldot
Encoding: 319 319 210
Width: 516
Flags: HMW
HStem: -2 110<302 405> 306 103<345 345 461 461>
VStem: 84 128<105 607 105 682 105 682> 336 125
LayerCount: 2
Fore
SplineSet
302 108 m 2,0,-1
 491 108 l 1,1,2
 491 75 491 75 488 60 c 0,3,4
 477 -2 477 -2 405 -2 c 2,5,-1
 158 -2 l 2,6,7
 124 -2 124 -2 104 18.5 c 128,-1,8
 84 39 84 39 84 75 c 2,9,-1
 84 682 l 1,10,-1
 91 688 l 1,11,-1
 138 688 l 2,12,13
 176 688 176 688 194 669 c 128,-1,14
 212 650 212 650 212 607 c 2,15,-1
 212 105 l 1,16,17
 260 108 260 108 302 108 c 2,0,-1
345 306 m 1,18,19
 336 326 336 326 336 356.5 c 128,-1,20
 336 387 336 387 345 409 c 1,21,22
 370 423 370 423 404 423 c 128,-1,23
 438 423 438 423 461 409 c 1,24,25
 469 389 469 389 469 356 c 128,-1,26
 469 323 469 323 461 306 c 1,27,28
 442 291 442 291 404 291 c 128,-1,29
 366 291 366 291 345 306 c 1,18,19
EndSplineSet
EndChar

StartChar: Nacute
Encoding: 323 323 211
Width: 686
Flags: HMW
HStem: -5 693<152.5 153 152.5 532> 728 189<272 447>
VStem: 85 118<0 268 0 681> 236 263<790 819> 483 118<410 610 610 638.5>
LayerCount: 2
Fore
SplineSet
595 688 m 1,0,-1
 601 682 l 1,1,-1
 601 2 l 1,2,3
 573 -5 573 -5 528 -5 c 128,-1,4
 483 -5 483 -5 449 0 c 1,5,-1
 258 396 l 2,6,7
 233 447 233 447 197 535 c 1,8,-1
 193 534 l 1,9,10
 203 409 203 409 203 268 c 2,11,-1
 203 0 l 1,12,13
 177 -5 177 -5 143.5 -5 c 128,-1,14
 110 -5 110 -5 85 0 c 1,15,-1
 85 681 l 1,16,17
 113 688 113 688 157.5 688 c 128,-1,18
 202 688 202 688 235 683 c 1,19,-1
 424 288 l 2,20,21
 450.25 233.75 450.25 233.75 490 141 c 1,22,-1
 493 142 l 1,23,24
 483 284 483 284 483 410 c 2,25,-1
 483 610 l 2,26,27
 483 652 483 652 499 670 c 128,-1,28
 515 688 515 688 553 688 c 2,29,-1
 595 688 l 1,0,-1
236 790 m 1,30,-1
 447 917 l 1,31,32
 464 904 464 904 480 875 c 128,-1,33
 496 846 496 846 499 819 c 1,34,-1
 272 728 l 1,35,36
 258 736 258 736 248 754 c 128,-1,37
 238 772 238 772 236 790 c 1,30,-1
EndSplineSet
EndChar

StartChar: Ntilde
Encoding: 209 209 212
Width: 686
Flags: HMW
HStem: -5 693<152.5 153 152.5 532> 741 97<418 430 418 439>
VStem: 85 118<0 268 0 681> 158 376<791 839> 483 118<410 610 610 638.5>
LayerCount: 2
Fore
SplineSet
595 688 m 1,0,-1
 601 682 l 1,1,-1
 601 2 l 1,2,3
 573 -5 573 -5 528 -5 c 128,-1,4
 483 -5 483 -5 449 0 c 1,5,-1
 258 396 l 2,6,7
 233 447 233 447 197 535 c 1,8,-1
 193 534 l 1,9,10
 203 409 203 409 203 268 c 2,11,-1
 203 0 l 1,12,13
 177 -5 177 -5 143.5 -5 c 128,-1,14
 110 -5 110 -5 85 0 c 1,15,-1
 85 681 l 1,16,17
 113 688 113 688 157.5 688 c 128,-1,18
 202 688 202 688 235 683 c 1,19,-1
 424 288 l 2,20,21
 450.25 233.75 450.25 233.75 490 141 c 1,22,-1
 493 142 l 1,23,24
 483 284 483 284 483 410 c 2,25,-1
 483 610 l 2,26,27
 483 652 483 652 499 670 c 128,-1,28
 515 688 515 688 553 688 c 2,29,-1
 595 688 l 1,0,-1
353 757 m 2,30,-1
 301 782 l 1,31,32
 285 791 285 791 266.5 791 c 128,-1,33
 248 791 248 791 230 767 c 2,34,-1
 220 753 l 1,35,36
 201 754 201 754 182.5 764.5 c 128,-1,37
 164 775 164 775 158 791 c 1,38,-1
 166 810 l 1,39,40
 183 846 183 846 212 867.5 c 128,-1,41
 241 889 241 889 274 889 c 128,-1,42
 307 889 307 889 339 872 c 1,43,-1
 391 847 l 2,44,45
 409 838 409 838 426 838 c 128,-1,46
 443 838 443 838 462 863 c 2,47,-1
 472 877 l 1,48,49
 491 876 491 876 509 865 c 128,-1,50
 527 854 527 854 534 839 c 1,51,-1
 526 820 l 1,52,53
 489 741 489 741 415 741 c 0,54,55
 385 741 385 741 353 757 c 2,30,-1
EndSplineSet
EndChar

StartChar: OE
Encoding: 338 338 213
Width: 904
Flags: HMW
HStem: -1 107<620 784> 292 105<608.5 790 616 790> 576 107<550 616 550 550 616 840>
VStem: 44 132<288.5 395.5> 428 123<152.5 163 163 293 396 508>
LayerCount: 2
Fore
SplineSet
551 163 m 1,0,-1
 550 104 l 1,1,2
 592 106 592 106 620 106 c 2,3,-1
 868 106 l 1,4,5
 868 75 868 75 865 60 c 0,6,7
 856 -1 856 -1 784 -1 c 2,8,-1
 468 -1 l 1,9,10
 381 -14 381 -14 332 -14 c 0,11,12
 225 -14 225 -14 152 47 c 0,13,14
 44 139 44 139 44 341.5 c 128,-1,15
 44 544 44 544 152 636 c 0,16,17
 225 697 225 697 332 697 c 0,18,19
 371 697 371 697 467 683 c 1,20,-1
 846 683 l 1,21,22
 851 659 851 659 851 632.5 c 128,-1,23
 851 606 851 606 840 576 c 1,24,-1
 550 576 l 1,25,-1
 551 508 l 1,26,-1
 551 396 l 1,27,28
 575 397 575 397 616 397 c 2,29,-1
 790 397 l 1,30,31
 797 373 797 373 797 344.5 c 128,-1,32
 797 316 797 316 790 292 c 1,33,-1
 616 292 l 2,34,35
 575 292 575 292 551 293 c 1,36,-1
 551 163 l 1,0,-1
332 86 m 0,37,38
 374 86 374 86 428 100 c 1,39,-1
 428 583 l 1,40,41
 374 597 374 597 332 597 c 0,42,43
 176 597 176 597 176 341.5 c 128,-1,44
 176 86 176 86 332 86 c 0,37,38
EndSplineSet
EndChar

StartChar: Ograve
Encoding: 210 210 214
Width: 661
Flags: HMW
HStem: -14 100<289 373> 597 100<289 373 289 396> 728 189<242 417>
VStem: 44 133<288.5 395.5> 190 263<790 819> 484 133<288.5 395.5 288.5 399.5>
LayerCount: 2
Fore
SplineSet
177 341.5 m 128,-1,1
 177 86 177 86 330.5 86 c 128,-1,2
 484 86 484 86 484 341.5 c 128,-1,3
 484 597 484 597 330.5 597 c 128,-1,0
 177 597 177 597 177 341.5 c 128,-1,1
151 47 m 0,4,5
 44 138 44 138 44 341.5 c 128,-1,6
 44 545 44 545 151 636 c 0,7,8
 224 697 224 697 330 697 c 128,-1,9
 436 697 436 697 511 636 c 1,10,11
 617 545 617 545 617 341.5 c 128,-1,12
 617 138 617 138 511 47 c 1,13,14
 436 -14 436 -14 330 -14 c 128,-1,15
 224 -14 224 -14 151 47 c 0,4,5
242 917 m 1,16,-1
 453 790 l 1,17,18
 445 745 445 745 417 728 c 1,19,-1
 190 819 l 1,20,21
 193 846 193 846 209 875 c 128,-1,22
 225 904 225 904 242 917 c 1,16,-1
EndSplineSet
EndChar

StartChar: Oacute
Encoding: 211 211 215
Width: 661
Flags: HMW
HStem: -14 100<289 373> 597 100<289 373 289 396> 728 189<257 432>
VStem: 44 133<288.5 395.5> 221 263 484 133<288.5 395.5 288.5 399.5>
LayerCount: 2
Fore
SplineSet
177 341.5 m 128,-1,1
 177 86 177 86 330.5 86 c 128,-1,2
 484 86 484 86 484 341.5 c 128,-1,3
 484 597 484 597 330.5 597 c 128,-1,0
 177 597 177 597 177 341.5 c 128,-1,1
151 47 m 0,4,5
 44 138 44 138 44 341.5 c 128,-1,6
 44 545 44 545 151 636 c 0,7,8
 224 697 224 697 330 697 c 128,-1,9
 436 697 436 697 511 636 c 1,10,11
 617 545 617 545 617 341.5 c 128,-1,12
 617 138 617 138 511 47 c 1,13,14
 436 -14 436 -14 330 -14 c 128,-1,15
 224 -14 224 -14 151 47 c 0,4,5
221 790 m 1,16,-1
 432 917 l 1,17,18
 449 904 449 904 465 875 c 128,-1,19
 481 846 481 846 484 819 c 1,20,-1
 257 728 l 1,21,22
 243 736 243 736 233 754 c 128,-1,23
 223 772 223 772 221 790 c 1,16,-1
EndSplineSet
EndChar

StartChar: Ocircumflex
Encoding: 212 212 216
Width: 661
Flags: HMW
HStem: -14 100<289 373> 597 100<289 373 289 396> 727 174
VStem: 44 133<288.5 395.5> 161 335<780 789> 484 133<288.5 395.5 288.5 399.5>
LayerCount: 2
Fore
SplineSet
177 341.5 m 128,-1,1
 177 86 177 86 330.5 86 c 128,-1,2
 484 86 484 86 484 341.5 c 128,-1,3
 484 597 484 597 330.5 597 c 128,-1,0
 177 597 177 597 177 341.5 c 128,-1,1
151 47 m 0,4,5
 44 138 44 138 44 341.5 c 128,-1,6
 44 545 44 545 151 636 c 0,7,8
 224 697 224 697 330 697 c 128,-1,9
 436 697 436 697 511 636 c 1,10,11
 617 545 617 545 617 341.5 c 128,-1,12
 617 138 617 138 511 47 c 1,13,14
 436 -14 436 -14 330 -14 c 128,-1,15
 224 -14 224 -14 151 47 c 0,4,5
444 736 m 1,16,-1
 330 811 l 1,17,-1
 213 727 l 1,18,19
 198 732 198 732 181.5 748 c 128,-1,20
 165 764 165 764 161 780 c 1,21,-1
 276 896 l 1,22,23
 301.666666667 901.761904762 301.666666667 901.761904762 328.523809524 901.761904762 c 128,-1,24
 355.380952381 901.761904762 355.380952381 901.761904762 383 897 c 1,25,-1
 496 789 l 1,26,27
 490 771 490 771 474.5 756.5 c 128,-1,28
 459 742 459 742 444 736 c 1,16,-1
EndSplineSet
EndChar

StartChar: Otilde
Encoding: 213 213 217
Width: 661
Flags: HMW
HStem: -14 100<289 373> 597 100<289 373 289 396> 747 97<400 412 400 420>
VStem: 44 133<288.5 395.5> 139 376<797 845> 484 133<288.5 395.5 288.5 399.5>
LayerCount: 2
Fore
SplineSet
177 341.5 m 128,-1,1
 177 86 177 86 330.5 86 c 128,-1,2
 484 86 484 86 484 341.5 c 128,-1,3
 484 597 484 597 330.5 597 c 128,-1,0
 177 597 177 597 177 341.5 c 128,-1,1
151 47 m 0,4,5
 44 138 44 138 44 341.5 c 128,-1,6
 44 545 44 545 151 636 c 0,7,8
 224 697 224 697 330 697 c 128,-1,9
 436 697 436 697 511 636 c 1,10,11
 617 545 617 545 617 341.5 c 128,-1,12
 617 138 617 138 511 47 c 1,13,14
 436 -14 436 -14 330 -14 c 128,-1,15
 224 -14 224 -14 151 47 c 0,4,5
334 764 m 1,16,-1
 282 789 l 1,17,18
 266 798 266 798 248 798 c 128,-1,19
 230 798 230 798 211 773 c 2,20,-1
 200 759 l 1,21,22
 181 760 181 760 163 770.5 c 128,-1,23
 145 781 145 781 139 797 c 1,24,-1
 147 817 l 1,25,26
 184 895 184 895 258 895 c 0,27,28
 286 895 286 895 320 879 c 2,29,-1
 372 853 l 2,30,31
 390 844 390 844 407 844 c 128,-1,32
 424 844 424 844 444 869 c 1,33,-1
 454 883 l 1,34,35
 473 882 473 882 490.5 871.5 c 128,-1,36
 508 861 508 861 515 845 c 1,37,-1
 507 826 l 1,38,39
 490 789 490 789 461 768 c 128,-1,40
 432 747 432 747 399 747 c 128,-1,41
 366 747 366 747 334 764 c 1,16,-1
EndSplineSet
EndChar

StartChar: Odieresis
Encoding: 214 214 218
Width: 661
Flags: HMW
HStem: -14 100<289 373> 597 100<289 373 289 396> 750 103
VStem: 44 133<288.5 395.5> 168 107<750 750 839 839> 387 107<750 750 839 839> 484 133<288.5 395.5 288.5 399.5>
LayerCount: 2
Fore
SplineSet
177 341.5 m 128,-1,1
 177 86 177 86 330.5 86 c 128,-1,2
 484 86 484 86 484 341.5 c 128,-1,3
 484 597 484 597 330.5 597 c 128,-1,0
 177 597 177 597 177 341.5 c 128,-1,1
151 47 m 0,4,5
 44 138 44 138 44 341.5 c 128,-1,6
 44 545 44 545 151 636 c 0,7,8
 224 697 224 697 330 697 c 128,-1,9
 436 697 436 697 511 636 c 1,10,11
 617 545 617 545 617 341.5 c 128,-1,12
 617 138 617 138 511 47 c 1,13,14
 436 -14 436 -14 330 -14 c 128,-1,15
 224 -14 224 -14 151 47 c 0,4,5
387 839 m 1,16,17
 410 853 410 853 440.5 853 c 128,-1,18
 471 853 471 853 494 839 c 1,19,20
 504 824 504 824 504 794 c 128,-1,21
 504 764 504 764 494 750 c 1,22,23
 474 736 474 736 440.5 736 c 128,-1,24
 407 736 407 736 387 750 c 1,25,26
 375 765 375 765 375 794 c 128,-1,27
 375 823 375 823 387 839 c 1,16,17
168 839 m 1,28,29
 189 853 189 853 220.5 853 c 128,-1,30
 252 853 252 853 275 839 c 1,31,32
 286 824 286 824 286 793.5 c 128,-1,33
 286 763 286 763 275 750 c 1,34,35
 255 736 255 736 221 736 c 128,-1,36
 187 736 187 736 168 750 c 1,37,38
 158 764 158 764 158 794 c 128,-1,39
 158 824 158 824 168 839 c 1,28,29
EndSplineSet
EndChar

StartChar: Oslash
Encoding: 216 216 219
Width: 664
Flags: HMW
HStem: -14 97<317.5 374> 600 97<290 346.5>
VStem: 44 129<315.5 395.5> 490 129<288.5 368>
LayerCount: 2
Fore
SplineSet
44 342 m 0,0,1
 44 544 44 544 152 636 c 0,2,3
 223 697 223 697 332 697 c 0,4,5
 403 697 403 697 454 673 c 1,6,-1
 495 746 l 1,7,8
 548 737 548 737 576 701 c 1,9,-1
 530 619 l 1,10,11
 619 523 619 523 619 342 c 0,12,13
 619 139 619 139 512 47 c 1,14,15
 439 -14 439 -14 332 -14 c 0,16,17
 262 -14 262 -14 209 10 c 1,18,-1
 169 -61 l 1,19,20
 116 -52 116 -52 88 -17 c 1,21,-1
 133 64 l 1,22,23
 44 160 44 160 44 342 c 0,0,1
197 183 m 1,24,-1
 405 581 l 1,25,26
 373 600 373 600 329 600 c 128,-1,27
 285 600 285 600 252 577 c 128,-1,28
 219 554 219 554 202.5 514 c 0,29,30
 173 442.484848485 173 442.484848485 173 343.242424242 c 128,-1,31
 173 244 173 244 197 183 c 1,24,-1
490 342 m 0,32,33
 490 436 490 436 466 500 c 1,34,-1
 259 102 l 1,35,36
 291 83 291 83 332 83 c 0,37,38
 490 83 490 83 490 342 c 0,32,33
EndSplineSet
EndChar

StartChar: Racute
Encoding: 340 340 220
Width: 606
Flags: HMW
HStem: 265 102<211 352.5 211 352.5> 589 99<295 352.5> 728 189<227 402>
VStem: 85 126<0 265 0 365 365 590> 191 263<790 819> 419 131<450.5 506.5>
LayerCount: 2
Fore
SplineSet
550 478 m 0,0,1
 550 411 550 411 513.5 362.5 c 128,-1,2
 477 314 477 314 424 295 c 1,3,4
 473 278 473 278 497 208 c 1,5,-1
 536 103 l 2,6,7
 555 52 555 52 583 31 c 1,8,9
 555 -8 555 -8 497 -8 c 0,10,11
 464 -8 464 -8 447.5 9.5 c 128,-1,12
 431 27 431 27 417 68 c 2,13,-1
 372 191 l 2,14,15
 359 227 359 227 338.5 246 c 128,-1,16
 318 265 318 265 277 265 c 2,17,-1
 211 265 l 1,18,-1
 211 0 l 1,19,20
 186 -5 186 -5 147.5 -5 c 0,21,22
 109 -5 109 -5 85 0 c 1,23,-1
 85 678 l 1,24,-1
 92 684 l 1,25,26
 250 688 250 688 316 688 c 0,27,28
 423 688 423 688 486.5 634 c 128,-1,29
 550 580 550 580 550 478 c 0,0,1
211 590 m 1,30,-1
 211 365 l 1,31,32
 283 367 283 367 308 367 c 0,33,34
 419 367 419 367 419 478 c 128,-1,35
 419 589 419 589 308 589 c 0,36,37
 243 589 243 589 211 590 c 1,30,-1
191 790 m 1,38,-1
 402 917 l 1,39,40
 419 904 419 904 435 875 c 128,-1,41
 451 846 451 846 454 819 c 1,42,-1
 227 728 l 1,43,44
 213 736 213 736 203 754 c 128,-1,45
 193 772 193 772 191 790 c 1,38,-1
EndSplineSet
EndChar

StartChar: Rcaron
Encoding: 344 344 221
Width: 606
Flags: HMW
HStem: 265 102<211 352.5 211 352.5> 589 99<295 352.5> 738 174
VStem: 85 126<0 265 0 365 365 590> 132 336<850 860> 419 131<450.5 506.5>
LayerCount: 2
Fore
SplineSet
550 478 m 0,0,1
 550 411 550 411 513.5 362.5 c 128,-1,2
 477 314 477 314 424 295 c 1,3,4
 473 278 473 278 497 208 c 1,5,-1
 536 103 l 2,6,7
 555 52 555 52 583 31 c 1,8,9
 555 -8 555 -8 497 -8 c 0,10,11
 464 -8 464 -8 447.5 9.5 c 128,-1,12
 431 27 431 27 417 68 c 2,13,-1
 372 191 l 2,14,15
 359 227 359 227 338.5 246 c 128,-1,16
 318 265 318 265 277 265 c 2,17,-1
 211 265 l 1,18,-1
 211 0 l 1,19,20
 186 -5 186 -5 147.5 -5 c 0,21,22
 109 -5 109 -5 85 0 c 1,23,-1
 85 678 l 1,24,-1
 92 684 l 1,25,26
 250 688 250 688 316 688 c 0,27,28
 423 688 423 688 486.5 634 c 128,-1,29
 550 580 550 580 550 478 c 0,0,1
211 590 m 1,30,-1
 211 365 l 1,31,32
 283 367 283 367 308 367 c 0,33,34
 419 367 419 367 419 478 c 128,-1,35
 419 589 419 589 308 589 c 0,36,37
 243 589 243 589 211 590 c 1,30,-1
183 903 m 1,38,-1
 298 828 l 1,39,-1
 415 912 l 1,40,41
 430 907 430 907 447 892 c 128,-1,42
 464 877 464 877 468 860 c 1,43,-1
 351 743 l 1,44,45
 325.857142857 737.238095238 325.857142857 737.238095238 298.976190476 737.238095238 c 0,46,47
 272.095238095 737.238095238 272.095238095 737.238095238 244 742 c 1,48,-1
 132 850 l 1,49,50
 137 868 137 868 152.5 882.5 c 128,-1,51
 168 897 168 897 183 903 c 1,38,-1
EndSplineSet
EndChar

StartChar: Rcommaaccent
Encoding: 342 342 222
Width: 606
Flags: HMW
HStem: -274 21G -223 21G -73 21 265 102<211 352.5 211 352.5> 589 99<295 352.5>
VStem: 85 126<0 265 0 365 365 590> 278 111<-145.5 -116.5> 419 131<450.5 506.5>
LayerCount: 2
Fore
SplineSet
550 478 m 0,0,1
 550 411 550 411 513.5 362.5 c 128,-1,2
 477 314 477 314 424 295 c 1,3,4
 473 278 473 278 497 208 c 1,5,-1
 536 103 l 2,6,7
 555 52 555 52 583 31 c 1,8,9
 555 -8 555 -8 497 -8 c 0,10,11
 464 -8 464 -8 447.5 9.5 c 128,-1,12
 431 27 431 27 417 68 c 2,13,-1
 372 191 l 2,14,15
 359 227 359 227 338.5 246 c 128,-1,16
 318 265 318 265 277 265 c 2,17,-1
 211 265 l 1,18,-1
 211 0 l 1,19,20
 186 -5 186 -5 147.5 -5 c 128,-1,21
 109 -5 109 -5 85 0 c 1,22,-1
 85 678 l 1,23,-1
 92 684 l 1,24,25
 250 688 250 688 316 688 c 0,26,27
 423 688 423 688 486.5 634 c 128,-1,28
 550 580 550 580 550 478 c 0,0,1
211 590 m 1,29,-1
 211 365 l 1,30,31
 283 367 283 367 308 367 c 0,32,33
 419 367 419 367 419 478 c 128,-1,34
 419 589 419 589 308 589 c 0,35,36
 243 589 243 589 211 590 c 1,29,-1
265 -73 m 1,37,38
 294.071428571 -51.8571428571 294.071428571 -51.8571428571 326.892857143 -51.8571428571 c 128,-1,39
 359.714285714 -51.8571428571 359.714285714 -51.8571428571 379 -59 c 1,40,41
 389 -79 389 -79 389 -114 c 0,42,43
 389 -168 389 -168 353 -210.5 c 128,-1,44
 317 -253 317 -253 254 -274 c 1,45,46
 222 -264 222 -264 215 -223 c 1,47,48
 278 -184 278 -184 278 -125 c 0,49,50
 278 -97 278 -97 265 -73 c 1,37,38
EndSplineSet
EndChar

